{
.appVersion = "1192";
copyright = "Copyright (c) 2011 by Marcelo Magalhães (marcelomagalhaes.net), with Reserved Font Name \"Londrina Sketche\"";
customParameters = (
{
name = trademark;
value = "Londrina Sketches is a trademark of Marcelo Magalh„es.";
},
{
name = licenseURL;
value = "http://scripts.sil.org/OFL";
},
{
name = license;
value = "This Font Software is licensed under the SIL Open Font License, Version 1.1. This license is available with a FAQ at: http://scripts.sil.org/OFL";
},
{
name = vendorID;
value = PYRS;
},
{
name = panose;
value = (
2,
0,
5,
6,
0,
0,
0,
2,
0,
3
);
},
{
name = unicodeRanges;
value = (
0,
1,
2,
3,
5,
31,
33,
35,
36,
45,
62
);
},
{
name = codePageRanges;
value = (
1252
);
},
{
name = blueScale;
value = 0.037;
},
{
name = glyphOrder;
value = (
.notdef,
.null,
CR,
space,
h,
i,
j,
k,
l,
m,
n,
o,
p,
q,
r,
s,
t,
u,
v,
w,
x,
y,
z,
A,
B,
C,
D,
E,
F,
G,
H,
J,
K,
L,
M,
N,
O,
P,
Q,
R,
S,
T,
U,
V,
W,
X,
Y,
Z,
bracketleft,
bracketright,
exclam,
dollar,
plus,
hyphen,
slash,
question,
zero,
one,
two,
three,
four,
five,
six,
seven,
eight,
nine,
braceleft,
braceright,
Euro,
plusminus,
Agrave,
Aacute,
Acircumflex,
Atilde,
Egrave,
Eacute,
Ecircumflex,
Ugrave,
Uacute,
Ucircumflex,
ugrave,
uacute,
ucircumflex,
egrave,
eacute,
ecircumflex,
igrave,
iacute,
icircumflex,
Ograve,
Oacute,
Ocircumflex,
Otilde,
agrave,
aacute,
acircumflex,
ograve,
oacute,
ocircumflex,
otilde,
Edieresis,
exclamdown,
Odieresis,
Udieresis,
atilde,
adieresis,
edieresis,
idieresis,
odieresis,
udieresis,
yacute,
ydieresis,
Igrave,
Iacute,
Icircumflex,
d,
period,
ellipsis,
equal,
grave,
Adieresis,
Idieresis,
colon,
divide,
semicolon,
comma,
quotesinglbase,
quotedblleft,
quotedblright,
quoteleft,
quoteright,
quotedblbase,
questiondown,
bar,
backslash,
percent,
less,
greater,
endash,
at,
quotesingle,
quotedbl,
emdash,
underscore,
a,
Ccedilla,
ccedilla,
AE,
ae,
Oslash,
oslash,
numbersign,
ampersand,
asterisk,
bullet,
Ntilde,
aring,
Yacute,
cent,
sterling,
yen,
Ydieresis,
oe,
tilde,

glyphs = (
{
glyphname = h;
layers = (
{
hints = (
{
horizontal = 1;
place = "{-16, 21}";
target = up;
type = BottomGhost;
},
{
horizontal = 1;
place = "{340, 152}";
type = Stem;
},
{
horizontal = 1;
place = "{735, -20}";
target = down;
type = TopGhost;
},
{
place = "{155, 139}";
type = Stem;
},
{
place = "{286, 117}";
type = Stem;
},
{
horizontal = 1;
place = "{479, 245}";
type = Stem;
},
{
place = "{39, 142}";
type = Stem;
},
{
place = "{34, 130}";
type = Stem;
},
{
horizontal = 1;
place = "{704, 20}";
type = Stem;
}
);
layerId = "CFE16014-3183-49EF-AD56-7F9496F8AA7E";
paths = (
{
closed = 1;
nodes = (
"404 28 OFFCURVE",
"403 33 OFFCURVE",
"403 37 CURVE SMOOTH",
"403 53 LINE SMOOTH",
"403 125 OFFCURVE",
"417 222 OFFCURVE",
"417 300 CURVE SMOOTH",
"417 358 OFFCURVE",
"424 440 OFFCURVE",
"384 472 CURVE SMOOTH",
"364 487 OFFCURVE",
"333 484 OFFCURVE",
"313 487 CURVE SMOOTH",
"306 488 OFFCURVE",
"300 492 OFFCURVE",
"289 492 CURVE SMOOTH",
"246 491 OFFCURVE",
"218 476 OFFCURVE",
"173 471 CURVE",
"173 496 LINE",
"176 493 OFFCURVE",
"177 492 OFFCURVE",
"178 492 CURVE",
"181 493 LINE",
"181 518 OFFCURVE",
"171 678 OFFCURVE",
"171 690 CURVE SMOOTH",
"171 717 LINE SMOOTH",
"171 729 OFFCURVE",
"169 735 OFFCURVE",
"166 735 CURVE",
"161 730 OFFCURVE",
"168 724 OFFCURVE",
"151 724 CURVE SMOOTH",
"140 724 OFFCURVE",
"119 725 OFFCURVE",
"74 729 CURVE",
"63 729 OFFCURVE",
"52 729 OFFCURVE",
"43 734 CURVE",
"32 726 OFFCURVE",
"27 717 OFFCURVE",
"27 707 CURVE SMOOTH",
"27 698 OFFCURVE",
"28 689 OFFCURVE",
"31 680 CURVE",
"35 639 OFFCURVE",
"39 608 OFFCURVE",
"39 577 CURVE SMOOTH",
"39 538 OFFCURVE",
"34 501 OFFCURVE",
"34 468 CURVE SMOOTH",
"34 345 OFFCURVE",
"28 319 OFFCURVE",
"28 263 CURVE SMOOTH",
"28 243 OFFCURVE",
"30 222 OFFCURVE",
"30 202 CURVE SMOOTH",
"30 175 LINE SMOOTH",
"30 160 OFFCURVE",
"31 147 OFFCURVE",
"31 132 CURVE SMOOTH",
"31 104 OFFCURVE",
"29 77 OFFCURVE",
"29 49 CURVE SMOOTH",
"29 28 OFFCURVE",
"33 7 OFFCURVE",
"61 7 CURVE SMOOTH",
"78 7 LINE SMOOTH",
"101 7 OFFCURVE",
"120 4 OFFCURVE",
"149 3 CURVE SMOOTH",
"161 3 OFFCURVE",
"164 17 OFFCURVE",
"169 25 CURVE",
"167 28 OFFCURVE",
"166 31 OFFCURVE",
"166 34 CURVE SMOOTH",
"166 43 OFFCURVE",
"170 51 OFFCURVE",
"170 60 CURVE SMOOTH",
"170 81 OFFCURVE",
"164 103 OFFCURVE",
"164 119 CURVE SMOOTH",
"164 202 OFFCURVE",
"164 340 OFFCURVE",
"214 340 CURVE SMOOTH",
"270 340 OFFCURVE",
"271 265 OFFCURVE",
"279 208 CURVE SMOOTH",
"283 173 OFFCURVE",
"286 132 OFFCURVE",
"286 92 CURVE SMOOTH",
"286 65 OFFCURVE",
"285 42 OFFCURVE",
"282 19 CURVE",
"279 14 OFFCURVE",
"278 11 OFFCURVE",
"278 8 CURVE SMOOTH",
"278 5 OFFCURVE",
"279 3 OFFCURVE",
"282 0 CURVE",
"287 3 OFFCURVE",
"295 5 OFFCURVE",
"304 5 CURVE SMOOTH",
"311 5 OFFCURVE",
"316 4 OFFCURVE",
"319 1 CURVE",
"311 -7 OFFCURVE",
"283 0 OFFCURVE",
"283 -14 CURVE SMOOTH",
"283 -16 LINE",
"318 -8 OFFCURVE",
"373 -8 OFFCURVE",
"415 13 CURVE",
"415 20 OFFCURVE",
"409 18 OFFCURVE",
"405 21 CURVE"
);
},
{
closed = 1;
nodes = (
"369 21 OFFCURVE",
"353 22 OFFCURVE",
"333 22 CURVE SMOOTH",
"320 22 OFFCURVE",
"307 21 OFFCURVE",
"292 19 CURVE",
"293 26 OFFCURVE",
"294 34 OFFCURVE",
"294 41 CURVE SMOOTH",
"294 64 LINE SMOOTH",
"294 128 OFFCURVE",
"291 200 OFFCURVE",
"280 249 CURVE",
"275 309 OFFCURVE",
"270 358 OFFCURVE",
"208 358 CURVE SMOOTH",
"184 358 OFFCURVE",
"155 319 OFFCURVE",
"155 292 CURVE SMOOTH",
"155 276 LINE",
"151 212 OFFCURVE",
"146 151 OFFCURVE",
"146 83 CURVE SMOOTH",
"146 56 LINE SMOOTH",
"146 48 OFFCURVE",
"146 39 OFFCURVE",
"147 30 CURVE",
"140 28 OFFCURVE",
"127 27 OFFCURVE",
"108 27 CURVE SMOOTH",
"71 27 OFFCURVE",
"64 29 OFFCURVE",
"52 36 CURVE",
"52 42 OFFCURVE",
"45 165 OFFCURVE",
"45 226 CURVE SMOOTH",
"45 338 OFFCURVE",
"54 421 OFFCURVE",
"54 532 CURVE SMOOTH",
"54 567 OFFCURVE",
"46 613 OFFCURVE",
"46 661 CURVE SMOOTH",
"46 674 LINE SMOOTH",
"46 697 OFFCURVE",
"50 714 OFFCURVE",
"59 714 CURVE",
"91 711 OFFCURVE",
"121 704 OFFCURVE",
"161 704 CURVE",
"162 693 OFFCURVE",
"163 670 OFFCURVE",
"163 631 CURVE SMOOTH",
"163 538 OFFCURVE",
"163 477 OFFCURVE",
"160 456 CURVE",
"165 453 OFFCURVE",
"167 448 OFFCURVE",
"170 444 CURVE",
"208 463 OFFCURVE",
"230 479 OFFCURVE",
"276 479 CURVE SMOOTH",
"322 479 OFFCURVE",
"332 472 OFFCURVE",
"362 434 CURVE",
"370 423 OFFCURVE",
"382 412 OFFCURVE",
"386 401 CURVE SMOOTH",
"391 388 OFFCURVE",
"390 366 OFFCURVE",
"393 346 CURVE SMOOTH",
"396 327 OFFCURVE",
"399 307 OFFCURVE",
"399 291 CURVE SMOOTH",
"399 221 LINE SMOOTH",
"399 149 OFFCURVE",
"399 74 OFFCURVE",
"392 18 CURVE"
);
}
);
width = 448;
}
);
note = h;
rightKerningGroup = h;
unicode = 0068;
},
{
glyphname = i;
layers = (
{
hints = (
{
horizontal = 1;
place = "{-6, 21}";
target = up;
type = BottomGhost;
},
{
horizontal = 1;
place = "{489, 98}";
type = Stem;
},
{
place = "{159, 22}";
type = Stem;
},
{
horizontal = 1;
place = "{489, 224}";
type = Stem;
},
{
horizontal = 1;
place = "{720, -20}";
target = down;
type = TopGhost;
},
{
place = "{43, 138}";
type = Stem;
},
{
place = "{28, 153}";
type = Stem;
},
{
horizontal = 1;
place = "{4, 21}";
type = Stem;
}
);
layerId = "CFE16014-3183-49EF-AD56-7F9496F8AA7E";
paths = (
{
closed = 1;
nodes = (
"37 698 OFFCURVE",
"37 690 OFFCURVE",
"37 682 CURVE SMOOTH",
"37 614 OFFCURVE",
"48 574 OFFCURVE",
"51 574 CURVE SMOOTH",
"53 574 LINE SMOOTH",
"55 574 OFFCURVE",
"57 573 OFFCURVE",
"59 571 CURVE",
"59 583 OFFCURVE",
"147 583 OFFCURVE",
"168 583 CURVE SMOOTH",
"171 583 OFFCURVE",
"173 582 OFFCURVE",
"173 580 CURVE SMOOTH",
"173 574 LINE SMOOTH",
"173 571 OFFCURVE",
"174 569 OFFCURVE",
"176 569 CURVE",
"180 576 OFFCURVE",
"175 583 OFFCURVE",
"182 586 CURVE",
"178 619 OFFCURVE",
"175 658 OFFCURVE",
"175 689 CURVE SMOOTH",
"175 703 LINE SMOOTH",
"175 709 OFFCURVE",
"175 713 OFFCURVE",
"176 714 CURVE",
"174 713 OFFCURVE",
"170 713 OFFCURVE",
"164 713 CURVE SMOOTH",
"152 713 LINE SMOOTH",
"109 713 OFFCURVE",
"73 719 OFFCURVE",
"32 720 CURVE",
"32 712 OFFCURVE",
"40 715 OFFCURVE",
"40 707 CURVE"
);
},
{
closed = 1;
nodes = (
"55 698 LINE",
"56 697 OFFCURVE",
"62 697 OFFCURVE",
"71 697 CURVE SMOOTH",
"79 697 OFFCURVE",
"132 699 OFFCURVE",
"132 704 CURVE SMOOTH",
"132 707 OFFCURVE",
"131 707 OFFCURVE",
"131 710 CURVE",
"135 710 LINE SMOOTH",
"146 710 OFFCURVE",
"158 708 OFFCURVE",
"162 705 CURVE",
"161 704 OFFCURVE",
"161 699 OFFCURVE",
"161 690 CURVE SMOOTH",
"161 658 OFFCURVE",
"168 625 OFFCURVE",
"171 593 CURVE",
"158 588 OFFCURVE",
"142 587 OFFCURVE",
"126 587 CURVE SMOOTH",
"111 587 OFFCURVE",
"98 588 OFFCURVE",
"86 588 CURVE SMOOTH",
"79 588 OFFCURVE",
"73 587 OFFCURVE",
"68 587 CURVE",
"68 598 OFFCURVE",
"60 642 OFFCURVE",
"58 642 CURVE",
"58 640 LINE",
"57 649 OFFCURVE",
"56 665 OFFCURVE",
"53 688 CURVE"
);
},
{
closed = 1;
nodes = (
"178 504 OFFCURVE",
"175 504 OFFCURVE",
"170 504 CURVE SMOOTH",
"137 503 OFFCURVE",
"118 503 OFFCURVE",
"113 503 CURVE SMOOTH",
"98 503 OFFCURVE",
"76 509 OFFCURVE",
"57 509 CURVE SMOOTH",
"50 509 OFFCURVE",
"45 508 OFFCURVE",
"41 506 CURVE",
"42 501 OFFCURVE",
"43 495 OFFCURVE",
"43 490 CURVE SMOOTH",
"43 441 LINE",
"35 312 OFFCURVE",
"28 180 OFFCURVE",
"28 59 CURVE SMOOTH",
"28 23 LINE SMOOTH",
"28 8 OFFCURVE",
"29 -6 OFFCURVE",
"33 -6 CURVE SMOOTH",
"38 -6 OFFCURVE",
"34 3 OFFCURVE",
"41 4 CURVE",
"64 4 OFFCURVE",
"91 2 OFFCURVE",
"119 2 CURVE SMOOTH",
"134 2 LINE SMOOTH",
"153 2 OFFCURVE",
"178 4 OFFCURVE",
"178 13 CURVE SMOOTH",
"178 20 OFFCURVE",
"174 21 OFFCURVE",
"171 28 CURVE",
"171 61 LINE SMOOTH",
"171 174 OFFCURVE",
"181 302 OFFCURVE",
"181 423 CURVE SMOOTH",
"181 451 OFFCURVE",
"180 478 OFFCURVE",
"179 505 CURVE"
);
},
{
closed = 1;
nodes = (
"151 25 LINE SMOOTH",
"27 25 OFFCURVE",
"46 31 OFFCURVE",
"38 31 CURVE",
"37 59 OFFCURVE",
"36 87 OFFCURVE",
"36 115 CURVE SMOOTH",
"36 151 OFFCURVE",
"37 188 OFFCURVE",
"40 227 CURVE SMOOTH",
"44 283 OFFCURVE",
"39 343 OFFCURVE",
"50 403 CURVE",
"53 435 OFFCURVE",
"48 468 OFFCURVE",
"59 493 CURVE",
"79 490 OFFCURVE",
"106 489 OFFCURVE",
"135 489 CURVE SMOOTH",
"153 489 LINE SMOOTH",
"160 489 OFFCURVE",
"164 489 OFFCURVE",
"171 490 CURVE",
"162 333 OFFCURVE",
"164 182 OFFCURVE",
"159 25 CURVE"
);
}
);
width = 207;
}
);
note = i;
unicode = 0069;
},
{
glyphname = j;
layers = (
{
hints = (
{
horizontal = 1;
place = "{-187, 21}";
target = up;
type = BottomGhost;
},
{
horizontal = 1;
place = "{571, 139}";
type = Stem;
},
{
place = "{35, 136}";
type = Stem;
},
{
horizontal = 1;
place = "{491, 98}";
type = Stem;
},
{
place = "{163, 21}";
type = Stem;
},
{
horizontal = 1;
place = "{571, 152}";
type = Stem;
},
{
place = "{23, 20}";
type = Stem;
}
);
layerId = "CFE16014-3183-49EF-AD56-7F9496F8AA7E";
paths = (
{
closed = 1;
nodes = (
"155 581 OFFCURVE",
"155 577 OFFCURVE",
"155 584 CURVE",
"158 587 OFFCURVE",
"170 582 OFFCURVE",
"173 589 CURVE",
"170 594 OFFCURVE",
"164 610 OFFCURVE",
"164 625 CURVE SMOOTH",
"164 634 OFFCURVE",
"166 640 OFFCURVE",
"170 644 CURVE",
"166 671 OFFCURVE",
"170 703 OFFCURVE",
"161 723 CURVE",
"124 723 OFFCURVE",
"72 710 OFFCURVE",
"53 710 CURVE SMOOTH",
"36 710 OFFCURVE",
"48 723 OFFCURVE",
"39 723 CURVE SMOOTH",
"31 723 OFFCURVE",
"30 681 OFFCURVE",
"30 665 CURVE SMOOTH",
"30 654 OFFCURVE",
"30 628 OFFCURVE",
"31 587 CURVE SMOOTH",
"31 579 OFFCURVE",
"31 574 OFFCURVE",
"30 572 CURVE",
"35 572 OFFCURVE",
"40 571 OFFCURVE",
"45 571 CURVE SMOOTH",
"74 571 OFFCURVE",
"99 577 OFFCURVE",
"126 577 CURVE SMOOTH",
"136 577 OFFCURVE",
"147 576 OFFCURVE",
"158 574 CURVE"
);
},
{
closed = 1;
nodes = (
"43 699 LINE",
"76 713 OFFCURVE",
"113 698 OFFCURVE",
"144 716 CURVE",
"145 715 OFFCURVE",
"146 714 OFFCURVE",
"147 714 CURVE",
"155 679 OFFCURVE",
"151 630 OFFCURVE",
"159 593 CURVE",
"148 590 OFFCURVE",
"143 589 OFFCURVE",
"124 589 CURVE SMOOTH",
"104 589 OFFCURVE",
"73 590 OFFCURVE",
"62 590 CURVE SMOOTH",
"46 590 LINE",
"46 600 LINE SMOOTH",
"46 631 OFFCURVE",
"43 657 OFFCURVE",
"43 688 CURVE SMOOTH"
);
},
{
closed = 1;
nodes = (
"176 393 OFFCURVE",
"171 430 OFFCURVE",
"171 466 CURVE SMOOTH",
"171 477 OFFCURVE",
"173 484 OFFCURVE",
"173 495 CURVE SMOOTH",
"173 502 OFFCURVE",
"170 508 OFFCURVE",
"164 513 CURVE",
"151 513 OFFCURVE",
"170 502 OFFCURVE",
"140 502 CURVE",
"87 509 OFFCURVE",
"51 511 OFFCURVE",
"34 514 CURVE",
"27 511 OFFCURVE",
"28 503 OFFCURVE",
"28 494 CURVE SMOOTH",
"28 436 OFFCURVE",
"35 427 OFFCURVE",
"35 232 CURVE SMOOTH",
"35 207 OFFCURVE",
"33 216 OFFCURVE",
"33 147 CURVE SMOOTH",
"33 118 OFFCURVE",
"22 72 OFFCURVE",
"22 37 CURVE SMOOTH",
"22 30 OFFCURVE",
"23 25 OFFCURVE",
"23 18 CURVE SMOOTH",
"23 -34 OFFCURVE",
"-24 -43 OFFCURVE",
"-132 -46 CURVE",
"-136 -62 LINE",
"-139 -71 OFFCURVE",
"-140 -78 OFFCURVE",
"-140 -83 CURVE SMOOTH",
"-140 -91 OFFCURVE",
"-146 -100 OFFCURVE",
"-146 -108 CURVE SMOOTH",
"-146 -129 OFFCURVE",
"-132 -148 OFFCURVE",
"-132 -168 CURVE SMOOTH",
"-132 -176 LINE SMOOTH",
"-132 -181 OFFCURVE",
"-131 -185 OFFCURVE",
"-128 -187 CURVE",
"-127 -186 OFFCURVE",
"-125 -185 OFFCURVE",
"-122 -185 CURVE",
"-105 -183 LINE",
"-104 -184 OFFCURVE",
"-99 -184 OFFCURVE",
"-91 -184 CURVE SMOOTH",
"-70 -184 OFFCURVE",
"-51 -178 OFFCURVE",
"-28 -175 CURVE",
"-28 -175 OFFCURVE",
"-24 -177 OFFCURVE",
"-16 -180 CURVE",
"19 -175 OFFCURVE",
"56 -158 OFFCURVE",
"87 -158 CURVE SMOOTH",
"98 -158 OFFCURVE",
"104 -157 OFFCURVE",
"105 -155 CURVE",
"110 -150 LINE",
"114 -147 OFFCURVE",
"117 -143 OFFCURVE",
"124 -143 CURVE SMOOTH",
"146 -143 OFFCURVE",
"156 -94 OFFCURVE",
"167 -67 CURVE",
"179 -14 OFFCURVE",
"179 50 OFFCURVE",
"179 118 CURVE SMOOTH",
"179 170 OFFCURVE",
"184 226 OFFCURVE",
"184 282 CURVE SMOOTH",
"184 307 OFFCURVE",
"183 331 OFFCURVE",
"181 354 CURVE"
);
},
{
closed = 1;
nodes = (
"43 248 OFFCURVE",
"44 270 OFFCURVE",
"44 285 CURVE SMOOTH",
"44 301 OFFCURVE",
"43 310 OFFCURVE",
"43 314 CURVE SMOOTH",
"43 330 LINE SMOOTH",
"43 355 OFFCURVE",
"49 384 OFFCURVE",
"49 415 CURVE SMOOTH",
"49 447 OFFCURVE",
"45 474 OFFCURVE",
"42 497 CURVE",
"43 495 OFFCURVE",
"43 494 OFFCURVE",
"44 494 CURVE SMOOTH",
"45 494 OFFCURVE",
"46 497 OFFCURVE",
"49 497 CURVE SMOOTH",
"57 497 OFFCURVE",
"101 491 OFFCURVE",
"133 491 CURVE SMOOTH",
"142 491 OFFCURVE",
"150 492 OFFCURVE",
"155 494 CURVE",
"158 406 OFFCURVE",
"163 307 OFFCURVE",
"163 203 CURVE SMOOTH",
"163 99 OFFCURVE",
"160 -59 OFFCURVE",
"130 -91 CURVE",
"126 -96 OFFCURVE",
"117 -97 OFFCURVE",
"110 -102 CURVE",
"81 -126 OFFCURVE",
"101 -134 OFFCURVE",
"16 -155 CURVE",
"-62 -171 OFFCURVE",
"-66 -175 OFFCURVE",
"-92 -175 CURVE SMOOTH",
"-127 -175 OFFCURVE",
"-127 -152 OFFCURVE",
"-127 -128 CURVE SMOOTH",
"-127 -109 OFFCURVE",
"-126 -92 OFFCURVE",
"-123 -73 CURVE",
"-82 -54 OFFCURVE",
"0 -59 OFFCURVE",
"25 -26 CURVE",
"33 -13 OFFCURVE",
"27 8 OFFCURVE",
"43 21 CURVE",
"39 32 OFFCURVE",
"39 44 OFFCURVE",
"39 57 CURVE SMOOTH",
"39 94 OFFCURVE",
"40 148 OFFCURVE",
"43 221 CURVE"
);
}
);
width = 204;
}
);
note = j;
unicode = 006A;
},
{
glyphname = k;
layers = (
{
hints = (
{
horizontal = 1;
place = "{-4, 21}";
target = up;
type = BottomGhost;
},
{
horizontal = 1;
place = "{522, -20}";
target = down;
type = TopGhost;
},
{
horizontal = 1;
place = "{734, -20}";
target = down;
type = TopGhost;
},
{
place = "{36, 23}";
type = Stem;
},
{
place = "{155, 22}";
type = Stem;
},
{
horizontal = 1;
place = "{0, 21}";
target = up;
type = BottomGhost;
},
{
horizontal = 1;
place = "{-10, 21}";
target = up;
type = BottomGhost;
}
);
layerId = "CFE16014-3183-49EF-AD56-7F9496F8AA7E";
paths = (
{
closed = 1;
nodes = (
"433 33 LINE SMOOTH",
"417 49 OFFCURVE",
"432 31 OFFCURVE",
"284 290 CURVE",
"293 314 OFFCURVE",
"314 334 OFFCURVE",
"329 362 CURVE",
"361 385 OFFCURVE",
"371 422 OFFCURVE",
"392 454 CURVE SMOOTH",
"407 477 OFFCURVE",
"425 491 OFFCURVE",
"429 519 CURVE",
"408 522 OFFCURVE",
"388 522 OFFCURVE",
"368 522 CURVE SMOOTH",
"299 522 LINE SMOOTH",
"294 522 OFFCURVE",
"289 522 OFFCURVE",
"282 523 CURVE",
"267 502 OFFCURVE",
"235 461 OFFCURVE",
"186 401 CURVE",
"181 462 OFFCURVE",
"177 644 OFFCURVE",
"177 697 CURVE SMOOTH",
"177 712 OFFCURVE",
"178 715 OFFCURVE",
"183 728 CURVE",
"175 728 OFFCURVE",
"171 730 OFFCURVE",
"170 734 CURVE",
"140 729 OFFCURVE",
"74 730 OFFCURVE",
"44 727 CURVE",
"44 631 OFFCURVE",
"39 501 OFFCURVE",
"36 397 CURVE SMOOTH",
"33 336 OFFCURVE",
"31 274 OFFCURVE",
"29 213 CURVE SMOOTH",
"29 140 OFFCURVE",
"31 71 OFFCURVE",
"36 -1 CURVE",
"37 0 OFFCURVE",
"40 0 OFFCURVE",
"45 0 CURVE SMOOTH",
"50 0 OFFCURVE",
"66 -1 OFFCURVE",
"93 -3 CURVE",
"103 0 OFFCURVE",
"112 2 OFFCURVE",
"120 2 CURVE SMOOTH",
"141 2 OFFCURVE",
"162 -5 OFFCURVE",
"179 -10 CURVE",
"180 -9 OFFCURVE",
"180 -8 OFFCURVE",
"180 -6 CURVE SMOOTH",
"180 -2 OFFCURVE",
"178 2 OFFCURVE",
"178 7 CURVE SMOOTH",
"178 14 OFFCURVE",
"185 11 OFFCURVE",
"185 18 CURVE SMOOTH",
"185 43 LINE SMOOTH",
"185 66 OFFCURVE",
"184 88 OFFCURVE",
"184 109 CURVE SMOOTH",
"184 130 OFFCURVE",
"184 148 OFFCURVE",
"191 167 CURVE",
"236 82 OFFCURVE",
"267 26 OFFCURVE",
"284 -2 CURVE",
"291 -1 OFFCURVE",
"296 0 OFFCURVE",
"300 0 CURVE SMOOTH",
"318 0 LINE SMOOTH",
"350 0 OFFCURVE",
"385 -4 OFFCURVE",
"418 -4 CURVE SMOOTH",
"436 -4 LINE SMOOTH",
"443 -4 OFFCURVE",
"447 -3 OFFCURVE",
"454 -2 CURVE",
"449 9 OFFCURVE",
"442 9 OFFCURVE",
"442 24 CURVE"
);
},
{
closed = 1;
nodes = (
"291 19 OFFCURVE",
"282 48 OFFCURVE",
"275 60 CURVE SMOOTH",
"240 124 OFFCURVE",
"212 185 OFFCURVE",
"175 234 CURVE",
"158 177 OFFCURVE",
"157 94 OFFCURVE",
"157 14 CURVE",
"153 14 OFFCURVE",
"150 14 OFFCURVE",
"149 13 CURVE",
"111 13 LINE SMOOTH",
"88 13 OFFCURVE",
"71 14 OFFCURVE",
"62 15 CURVE",
"63 24 OFFCURVE",
"63 32 OFFCURVE",
"63 40 CURVE SMOOTH",
"63 65 LINE SMOOTH",
"63 157 OFFCURVE",
"51 191 OFFCURVE",
"51 327 CURVE SMOOTH",
"51 399 OFFCURVE",
"52 500 OFFCURVE",
"59 637 CURVE",
"59 663 OFFCURVE",
"58 690 OFFCURVE",
"56 718 CURVE",
"87 723 OFFCURVE",
"120 723 OFFCURVE",
"155 724 CURVE",
"160 477 OFFCURVE",
"165 406 OFFCURVE",
"165 374 CURVE SMOOTH",
"165 361 OFFCURVE",
"165 354 OFFCURVE",
"164 353 CURVE",
"166 353 OFFCURVE",
"167 352 OFFCURVE",
"167 351 CURVE",
"186 354 OFFCURVE",
"197 373 OFFCURVE",
"209 392 CURVE SMOOTH",
"248 455 LINE",
"248 460 OFFCURVE",
"251 463 OFFCURVE",
"256 465 CURVE",
"256 464 OFFCURVE",
"256 464 OFFCURVE",
"257 464 CURVE SMOOTH",
"261 464 OFFCURVE",
"276 493 OFFCURVE",
"287 512 CURVE",
"314 512 OFFCURVE",
"343 514 OFFCURVE",
"371 514 CURVE SMOOTH",
"388 514 OFFCURVE",
"404 513 OFFCURVE",
"420 511 CURVE",
"400 496 OFFCURVE",
"371 454 OFFCURVE",
"333 386 CURVE",
"307 346 OFFCURVE",
"271 321 OFFCURVE",
"263 276 CURVE",
"265 274 LINE",
"268 274 OFFCURVE",
"269 282 OFFCURVE",
"272 282 CURVE",
"356 147 LINE",
"380 100 OFFCURVE",
"410 57 OFFCURVE",
"435 10 CURVE",
"426 12 OFFCURVE",
"417 13 OFFCURVE",
"408 13 CURVE SMOOTH",
"383 13 OFFCURVE",
"357 7 OFFCURVE",
"334 7 CURVE SMOOTH",
"322 7 OFFCURVE",
"311 7 OFFCURVE",
"302 14 CURVE"
);
}
);
width = 435;
}
);
note = k;
rightKerningGroup = k;
unicode = 006B;
},
{
glyphname = l;
layers = (
{
hints = (
{
horizontal = 1;
place = "{-2, 21}";
target = up;
type = BottomGhost;
},
{
horizontal = 1;
place = "{736, -20}";
target = down;
type = TopGhost;
},
{
place = "{36, 138}";
type = Stem;
},
{
place = "{24, 21}";
type = Stem;
},
{
horizontal = 1;
place = "{-1, 21}";
target = up;
type = BottomGhost;
},
{
horizontal = 1;
place = "{0, 22}";
type = Stem;
}
);
layerId = "CFE16014-3183-49EF-AD56-7F9496F8AA7E";
paths = (
{
closed = 1;
nodes = (
"168 83 OFFCURVE",
"168 86 OFFCURVE",
"168 93 CURVE SMOOTH",
"168 113 OFFCURVE",
"174 131 OFFCURVE",
"174 154 CURVE SMOOTH",
"174 195 OFFCURVE",
"172 235 OFFCURVE",
"172 278 CURVE SMOOTH",
"172 376 LINE SMOOTH",
"172 428 OFFCURVE",
"169 478 OFFCURVE",
"169 529 CURVE SMOOTH",
"169 590 OFFCURVE",
"172 644 OFFCURVE",
"172 704 CURVE SMOOTH",
"172 713 OFFCURVE",
"171 719 OFFCURVE",
"168 724 CURVE",
"163 721 OFFCURVE",
"154 720 OFFCURVE",
"142 720 CURVE SMOOTH",
"115 720 OFFCURVE",
"86 728 OFFCURVE",
"55 728 CURVE SMOOTH",
"45 728 LINE",
"44 731 OFFCURVE",
"45 736 OFFCURVE",
"40 736 CURVE SMOOTH",
"39 736 LINE",
"39 735 OFFCURVE",
"28 711 OFFCURVE",
"18 712 CURVE",
"18 704 OFFCURVE",
"27 710 OFFCURVE",
"28 703 CURVE",
"29 690 OFFCURVE",
"30 678 OFFCURVE",
"30 665 CURVE SMOOTH",
"30 630 LINE SMOOTH",
"30 558 OFFCURVE",
"24 493 OFFCURVE",
"24 424 CURVE SMOOTH",
"24 279 OFFCURVE",
"35 141 OFFCURVE",
"36 0 CURVE",
"43 -1 OFFCURVE",
"48 -2 OFFCURVE",
"53 -2 CURVE SMOOTH",
"71 -2 LINE SMOOTH",
"94 -2 OFFCURVE",
"118 0 OFFCURVE",
"145 0 CURVE SMOOTH",
"156 0 OFFCURVE",
"163 -1 OFFCURVE",
"174 -1 CURVE",
"174 5 LINE SMOOTH",
"174 28 OFFCURVE",
"170 55 OFFCURVE",
"169 82 CURVE"
);
},
{
closed = 1;
nodes = (
"44 31 OFFCURVE",
"45 51 OFFCURVE",
"45 71 CURVE SMOOTH",
"45 140 OFFCURVE",
"42 210 OFFCURVE",
"42 279 CURVE SMOOTH",
"42 314 OFFCURVE",
"44 346 OFFCURVE",
"44 381 CURVE SMOOTH",
"44 402 OFFCURVE",
"43 422 OFFCURVE",
"43 445 CURVE SMOOTH",
"43 490 OFFCURVE",
"49 528 OFFCURVE",
"49 588 CURVE SMOOTH",
"49 644 OFFCURVE",
"47 704 OFFCURVE",
"44 715 CURVE",
"49 718 OFFCURVE",
"56 719 OFFCURVE",
"66 719 CURVE SMOOTH",
"75 719 OFFCURVE",
"101 705 OFFCURVE",
"136 705 CURVE SMOOTH",
"144 705 OFFCURVE",
"150 706 OFFCURVE",
"155 709 CURVE",
"158 621 OFFCURVE",
"158 536 OFFCURVE",
"158 451 CURVE SMOOTH",
"158 328 LINE SMOOTH",
"158 224 OFFCURVE",
"159 124 OFFCURVE",
"164 20 CURVE",
"153 21 OFFCURVE",
"143 22 OFFCURVE",
"131 22 CURVE SMOOTH",
"99 22 OFFCURVE",
"70 18 OFFCURVE",
"44 11 CURVE"
);
}
);
width = 206;
}
);
note = l;
unicode = 006C;
},
{
glyphname = m;
layers = (
{
hints = (
{
horizontal = 1;
place = "{-3, 21}";
target = up;
type = BottomGhost;
},
{
horizontal = 1;
place = "{504, -20}";
target = down;
type = TopGhost;
},
{
place = "{149, 160}";
type = Stem;
},
{
place = "{516, 135}";
type = Stem;
},
{
horizontal = 1;
place = "{328, 171}";
type = Stem;
},
{
horizontal = 1;
place = "{465, 34}";
type = Stem;
},
{
place = "{24, 141}";
type = Stem;
},
{
horizontal = 1;
place = "{-13, 21}";
target = up;
type = BottomGhost;
},
{
horizontal = 1;
place = "{-1, 21}";
target = up;
type = BottomGhost;
},
{
place = "{287, 22}";
type = Stem;
},
{
place = "{287, 127}";
type = Stem;
},
{
place = "{516, 123}";
type = Stem;
},
{
place = "{404, 131}";
type = Stem;
},
{
horizontal = 1;
place = "{430, 69}";
type = Stem;
}
);
layerId = "CFE16014-3183-49EF-AD56-7F9496F8AA7E";
paths = (
{
closed = 1;
nodes = (
"651 308 LINE SMOOTH",
"651 364 OFFCURVE",
"643 412 OFFCURVE",
"632 463 CURVE",
"629 468 OFFCURVE",
"585 499 OFFCURVE",
"521 499 CURVE SMOOTH",
"453 499 OFFCURVE",
"422 474 OFFCURVE",
"388 455 CURVE",
"364 479 OFFCURVE",
"330 491 OFFCURVE",
"285 491 CURVE SMOOTH",
"242 491 OFFCURVE",
"211 476 OFFCURVE",
"180 465 CURVE",
"179 473 OFFCURVE",
"181 483 OFFCURVE",
"177 490 CURVE",
"130 491 OFFCURVE",
"87 490 OFFCURVE",
"42 495 CURVE",
"39 498 OFFCURVE",
"36 504 OFFCURVE",
"32 504 CURVE SMOOTH",
"24 504 OFFCURVE",
"24 490 OFFCURVE",
"24 211 CURVE SMOOTH",
"24 155 OFFCURVE",
"29 100 OFFCURVE",
"29 52 CURVE SMOOTH",
"29 42 LINE SMOOTH",
"29 37 OFFCURVE",
"29 33 OFFCURVE",
"28 32 CURVE",
"38 27 OFFCURVE",
"28 -5 OFFCURVE",
"38 -13 CURVE",
"57 -10 OFFCURVE",
"80 0 OFFCURVE",
"108 0 CURVE SMOOTH",
"121 0 OFFCURVE",
"133 -1 OFFCURVE",
"144 -1 CURVE SMOOTH",
"153 -1 OFFCURVE",
"161 0 OFFCURVE",
"168 5 CURVE",
"166 14 OFFCURVE",
"165 24 OFFCURVE",
"165 36 CURVE SMOOTH",
"165 57 OFFCURVE",
"168 81 OFFCURVE",
"168 106 CURVE SMOOTH",
"168 139 OFFCURVE",
"164 173 OFFCURVE",
"164 204 CURVE SMOOTH",
"164 275 OFFCURVE",
"168 328 OFFCURVE",
"230 328 CURVE SMOOTH",
"243 328 OFFCURVE",
"253 324 OFFCURVE",
"261 316 CURVE",
"277 259 OFFCURVE",
"287 190 OFFCURVE",
"287 122 CURVE SMOOTH",
"287 82 OFFCURVE",
"284 42 OFFCURVE",
"276 7 CURVE",
"291 4 OFFCURVE",
"293 -3 OFFCURVE",
"308 -3 CURVE SMOOTH",
"320 -3 LINE SMOOTH",
"344 -3 OFFCURVE",
"371 0 OFFCURVE",
"395 0 CURVE SMOOTH",
"402 0 OFFCURVE",
"406 -1 OFFCURVE",
"413 -1 CURVE",
"413 11 OFFCURVE",
"414 22 OFFCURVE",
"414 35 CURVE SMOOTH",
"414 87 OFFCURVE",
"410 142 OFFCURVE",
"410 195 CURVE SMOOTH",
"410 242 OFFCURVE",
"413 285 OFFCURVE",
"425 322 CURVE",
"434 325 OFFCURVE",
"441 327 OFFCURVE",
"448 327 CURVE SMOOTH",
"496 327 OFFCURVE",
"516 275 OFFCURVE",
"516 222 CURVE SMOOTH",
"516 199 OFFCURVE",
"514 176 OFFCURVE",
"514 149 CURVE SMOOTH",
"514 129 OFFCURVE",
"516 109 OFFCURVE",
"516 88 CURVE SMOOTH",
"516 51 OFFCURVE",
"514 15 OFFCURVE",
"513 -12 CURVE",
"541 -6 OFFCURVE",
"608 -8 OFFCURVE",
"645 0 CURVE",
"645 7 OFFCURVE",
"636 4 OFFCURVE",
"636 9 CURVE SMOOTH",
"636 20 OFFCURVE",
"641 33 OFFCURVE",
"641 46 CURVE SMOOTH",
"641 65 OFFCURVE",
"639 82 OFFCURVE",
"639 101 CURVE SMOOTH",
"639 158 OFFCURVE",
"648 223 OFFCURVE",
"651 283 CURVE"
);
},
{
closed = 1;
nodes = (
"617 5 OFFCURVE",
"605 4 OFFCURVE",
"588 4 CURVE SMOOTH",
"568 4 OFFCURVE",
"547 7 OFFCURVE",
"526 12 CURVE",
"529 57 OFFCURVE",
"535 117 OFFCURVE",
"535 173 CURVE SMOOTH",
"535 214 OFFCURVE",
"531 253 OFFCURVE",
"519 284 CURVE SMOOTH",
"511 303 OFFCURVE",
"489 346 OFFCURVE",
"464 346 CURVE SMOOTH",
"447 346 OFFCURVE",
"416 333 OFFCURVE",
"408 322 CURVE",
"404 315 OFFCURVE",
"404 304 OFFCURVE",
"404 291 CURVE SMOOTH",
"404 232 LINE SMOOTH",
"404 215 OFFCURVE",
"406 200 OFFCURVE",
"406 187 CURVE SMOOTH",
"406 144 OFFCURVE",
"401 108 OFFCURVE",
"401 72 CURVE SMOOTH",
"401 53 OFFCURVE",
"406 37 OFFCURVE",
"406 17 CURVE SMOOTH",
"406 11 OFFCURVE",
"406 8 OFFCURVE",
"405 7 CURVE",
"378 14 OFFCURVE",
"349 19 OFFCURVE",
"322 19 CURVE SMOOTH",
"313 19 LINE SMOOTH",
"308 19 OFFCURVE",
"305 19 OFFCURVE",
"304 18 CURVE",
"307 50 OFFCURVE",
"309 88 OFFCURVE",
"309 129 CURVE SMOOTH",
"309 149 LINE SMOOTH",
"309 205 OFFCURVE",
"308 280 OFFCURVE",
"284 312 CURVE SMOOTH",
"279 319 OFFCURVE",
"268 323 OFFCURVE",
"261 331 CURVE",
"250 342 OFFCURVE",
"241 355 OFFCURVE",
"220 355 CURVE SMOOTH",
"164 355 OFFCURVE",
"149 286 OFFCURVE",
"149 235 CURVE SMOOTH",
"149 184 LINE SMOOTH",
"149 164 OFFCURVE",
"150 144 OFFCURVE",
"150 125 CURVE SMOOTH",
"150 112 OFFCURVE",
"146 101 OFFCURVE",
"146 90 CURVE SMOOTH",
"146 78 OFFCURVE",
"150 64 OFFCURVE",
"150 53 CURVE",
"151 38 OFFCURVE",
"150 26 OFFCURVE",
"153 11 CURVE",
"118 8 OFFCURVE",
"83 10 OFFCURVE",
"48 2 CURVE",
"43 21 OFFCURVE",
"42 37 OFFCURVE",
"42 56 CURVE SMOOTH",
"42 91 OFFCURVE",
"47 123 OFFCURVE",
"47 158 CURVE SMOOTH",
"47 222 OFFCURVE",
"45 281 OFFCURVE",
"45 345 CURVE SMOOTH",
"45 389 OFFCURVE",
"46 433 OFFCURVE",
"49 480 CURVE",
"48 481 OFFCURVE",
"48 482 OFFCURVE",
"48 483 CURVE",
"50 485 LINE",
"85 480 OFFCURVE",
"125 483 OFFCURVE",
"162 480 CURVE",
"165 470 OFFCURVE",
"166 460 OFFCURVE",
"166 449 CURVE SMOOTH",
"166 444 OFFCURVE",
"164 436 OFFCURVE",
"161 424 CURVE",
"173 424 OFFCURVE",
"175 434 OFFCURVE",
"183 438 CURVE",
"204 451 OFFCURVE",
"233 465 OFFCURVE",
"268 465 CURVE SMOOTH",
"287 465 OFFCURVE",
"314 461 OFFCURVE",
"338 450 CURVE SMOOTH",
"349 445 OFFCURVE",
"371 430 OFFCURVE",
"382 430 CURVE SMOOTH",
"391 430 OFFCURVE",
"400 436 OFFCURVE",
"408 444 CURVE SMOOTH",
"420 456 LINE SMOOTH",
"439 475 OFFCURVE",
"517 486 OFFCURVE",
"544 486 CURVE SMOOTH",
"575 486 OFFCURVE",
"596 467 OFFCURVE",
"616 450 CURVE",
"625 354 OFFCURVE",
"632 253 OFFCURVE",
"632 153 CURVE SMOOTH",
"632 103 OFFCURVE",
"630 55 OFFCURVE",
"626 8 CURVE"
);
}
);
width = 684;
}
);
leftKerningGroup = m;
note = m;
rightKerningGroup = h;
unicode = 006D;
},
{
glyphname = n;
layers = (
{
hints = (
{
horizontal = 1;
place = "{-9, 23}";
type = Stem;
},
{
horizontal = 1;
place = "{330, 167}";
type = Stem;
},
{
place = "{31, 131}";
type = Stem;
},
{
place = "{279, 28}";
type = Stem;
},
{
place = "{407, 28}";
type = Stem;
},
{
horizontal = 1;
place = "{-18, 21}";
target = up;
type = BottomGhost;
},
{
horizontal = 1;
place = "{-17, 21}";
target = up;
type = BottomGhost;
},
{
place = "{17, 28}";
type = Stem;
},
{
horizontal = 1;
place = "{-20, 21}";
target = up;
type = BottomGhost;
},
{
horizontal = 1;
place = "{-3, 21}";
target = up;
type = BottomGhost;
},
{
place = "{151, 156}";
type = Stem;
}
);
layerId = "CFE16014-3183-49EF-AD56-7F9496F8AA7E";
paths = (
{
closed = 1;
nodes = (
"157 -18 LINE",
"161 -18 OFFCURVE",
"163 -18 OFFCURVE",
"164 -17 CURVE",
"163 -9 OFFCURVE",
"162 0 OFFCURVE",
"162 9 CURVE SMOOTH",
"162 53 OFFCURVE",
"171 105 OFFCURVE",
"171 156 CURVE SMOOTH",
"171 169 OFFCURVE",
"170 182 OFFCURVE",
"170 197 CURVE SMOOTH",
"170 269 OFFCURVE",
"176 330 OFFCURVE",
"240 330 CURVE SMOOTH",
"288 330 OFFCURVE",
"274 227 OFFCURVE",
"279 151 CURVE SMOOTH",
"282 107 OFFCURVE",
"289 68 OFFCURVE",
"289 29 CURVE SMOOTH",
"289 9 OFFCURVE",
"288 -6 OFFCURVE",
"285 -16 CURVE",
"286 -17 OFFCURVE",
"288 -17 OFFCURVE",
"291 -17 CURVE SMOOTH",
"298 -17 LINE SMOOTH",
"325 -17 OFFCURVE",
"350 -9 OFFCURVE",
"375 -9 CURVE SMOOTH",
"387 -9 OFFCURVE",
"400 -10 OFFCURVE",
"412 -17 CURVE",
"417 8 OFFCURVE",
"424 38 OFFCURVE",
"424 71 CURVE SMOOTH",
"424 89 LINE",
"427 145 OFFCURVE",
"435 215 OFFCURVE",
"435 275 CURVE SMOOTH",
"435 366 OFFCURVE",
"428 497 OFFCURVE",
"336 497 CURVE SMOOTH",
"323 497 OFFCURVE",
"309 495 OFFCURVE",
"296 495 CURVE SMOOTH",
"285 495 OFFCURVE",
"278 498 OFFCURVE",
"271 498 CURVE SMOOTH",
"255 498 OFFCURVE",
"243 488 OFFCURVE",
"228 481 CURVE",
"215 474 OFFCURVE",
"200 472 OFFCURVE",
"189 465 CURVE",
"182 461 OFFCURVE",
"179 453 OFFCURVE",
"170 453 CURVE",
"170 456 LINE",
"173 465 OFFCURVE",
"173 491 OFFCURVE",
"180 506 CURVE",
"173 507 OFFCURVE",
"168 508 OFFCURVE",
"161 508 CURVE SMOOTH",
"136 508 OFFCURVE",
"108 500 OFFCURVE",
"80 500 CURVE SMOOTH",
"65 500 OFFCURVE",
"53 502 OFFCURVE",
"40 505 CURVE",
"31 498 OFFCURVE",
"29 492 OFFCURVE",
"29 484 CURVE SMOOTH",
"29 479 OFFCURVE",
"30 472 OFFCURVE",
"31 465 CURVE",
"31 438 OFFCURVE",
"26 408 OFFCURVE",
"25 376 CURVE SMOOTH",
"22 300 OFFCURVE",
"17 222 OFFCURVE",
"17 142 CURVE SMOOTH",
"17 101 OFFCURVE",
"18 61 OFFCURVE",
"22 22 CURVE",
"22 15 OFFCURVE",
"17 16 OFFCURVE",
"17 11 CURVE",
"30 8 OFFCURVE",
"17 -20 OFFCURVE",
"36 -20 CURVE SMOOTH",
"41 -20 OFFCURVE",
"41 -10 OFFCURVE",
"48 -9 CURVE"
);
},
{
closed = 1;
nodes = (
"415 78 OFFCURVE",
"410 37 OFFCURVE",
"407 -6 CURVE",
"396 -1 OFFCURVE",
"380 1 OFFCURVE",
"359 1 CURVE SMOOTH",
"338 1 OFFCURVE",
"317 0 OFFCURVE",
"300 -3 CURVE",
"300 4 OFFCURVE",
"307 1 OFFCURVE",
"307 6 CURVE SMOOTH",
"307 43 LINE SMOOTH",
"307 55 OFFCURVE",
"306 66 OFFCURVE",
"305 78 CURVE SMOOTH",
"297 170 OFFCURVE",
"313 347 OFFCURVE",
"233 347 CURVE SMOOTH",
"214 347 OFFCURVE",
"183 323 OFFCURVE",
"175 304 CURVE SMOOTH",
"171 295 OFFCURVE",
"169 277 OFFCURVE",
"166 262 CURVE SMOOTH",
"157 215 OFFCURVE",
"151 174 OFFCURVE",
"151 127 CURVE SMOOTH",
"151 82 OFFCURVE",
"157 33 OFFCURVE",
"157 18 CURVE SMOOTH",
"157 7 OFFCURVE",
"159 -3 OFFCURVE",
"147 -3 CURVE SMOOTH",
"110 -3 OFFCURVE",
"79 14 OFFCURVE",
"36 14 CURVE",
"36 61 OFFCURVE",
"45 104 OFFCURVE",
"45 153 CURVE SMOOTH",
"45 173 OFFCURVE",
"44 193 OFFCURVE",
"44 216 CURVE SMOOTH",
"44 235 OFFCURVE",
"45 252 OFFCURVE",
"45 269 CURVE SMOOTH",
"45 310 OFFCURVE",
"41 351 OFFCURVE",
"41 392 CURVE SMOOTH",
"41 419 OFFCURVE",
"42 443 OFFCURVE",
"53 470 CURVE",
"46 470 OFFCURVE",
"50 465 OFFCURVE",
"47 462 CURVE",
"46 463 OFFCURVE",
"46 465 OFFCURVE",
"46 466 CURVE SMOOTH",
"46 467 OFFCURVE",
"46 467 OFFCURVE",
"45 468 CURVE",
"45 476 OFFCURVE",
"45 487 OFFCURVE",
"58 487 CURVE SMOOTH",
"93 487 OFFCURVE",
"125 483 OFFCURVE",
"161 483 CURVE",
"161 480 OFFCURVE",
"162 477 OFFCURVE",
"162 474 CURVE SMOOTH",
"162 459 OFFCURVE",
"157 440 OFFCURVE",
"156 431 CURVE",
"157 430 OFFCURVE",
"157 430 OFFCURVE",
"158 430 CURVE SMOOTH",
"161 430 OFFCURVE",
"164 433 OFFCURVE",
"168 433 CURVE",
"168 432 OFFCURVE",
"168 432 OFFCURVE",
"169 432 CURVE SMOOTH",
"170 432 OFFCURVE",
"171 431 OFFCURVE",
"174 431 CURVE",
"174 432 OFFCURVE",
"174 432 OFFCURVE",
"175 433 CURVE",
"175 436 OFFCURVE",
"173 436 OFFCURVE",
"173 439 CURVE",
"190 456 OFFCURVE",
"222 480 OFFCURVE",
"302 480 CURVE SMOOTH",
"395 480 OFFCURVE",
"419 346 OFFCURVE",
"419 155 CURVE SMOOTH",
"419 137 LINE SMOOTH",
"419 130 OFFCURVE",
"419 126 OFFCURVE",
"418 119 CURVE"
);
}
);
width = 450;
}
);
leftKerningGroup = m;
note = n;
rightKerningGroup = h;
unicode = 006E;
},
{
glyphname = o;
layers = (
{
hints = (
{
horizontal = 1;
place = "{-6, 146}";
type = Stem;
},
{
horizontal = 1;
place = "{362, 26}";
type = Stem;
},
{
place = "{15, 20}";
type = Stem;
},
{
place = "{284, 139}";
type = Stem;
},
{
place = "{402, 21}";
type = Stem;
},
{
horizontal = 1;
place = "{362, 160}";
type = Stem;
},
{
place = "{28, 128}";
type = Stem;
},
{
place = "{144, 155}";
type = Stem;
}
);
layerId = "CFE16014-3183-49EF-AD56-7F9496F8AA7E";
paths = (
{
closed = 1;
nodes = (
"416 312 OFFCURVE",
"417 342 OFFCURVE",
"414 369 CURVE SMOOTH",
"411 396 OFFCURVE",
"401 419 OFFCURVE",
"401 444 CURVE SMOOTH",
"401 450 LINE SMOOTH",
"401 453 OFFCURVE",
"400 455 OFFCURVE",
"398 456 CURVE",
"389 456 OFFCURVE",
"390 471 OFFCURVE",
"383 476 CURVE",
"360 499 OFFCURVE",
"260 522 OFFCURVE",
"195 522 CURVE SMOOTH",
"172 522 OFFCURVE",
"153 520 OFFCURVE",
"133 517 CURVE SMOOTH",
"94 512 OFFCURVE",
"28 499 OFFCURVE",
"28 415 CURVE SMOOTH",
"28 404 OFFCURVE",
"30 398 OFFCURVE",
"30 391 CURVE SMOOTH",
"30 334 OFFCURVE",
"15 276 OFFCURVE",
"15 215 CURVE SMOOTH",
"15 132 OFFCURVE",
"42 44 OFFCURVE",
"87 15 CURVE SMOOTH",
"118 -6 OFFCURVE",
"200 -6 OFFCURVE",
"232 -6 CURVE SMOOTH",
"244 -6 OFFCURVE",
"259 -7 OFFCURVE",
"274 -7 CURVE SMOOTH",
"301 -7 OFFCURVE",
"326 -6 OFFCURVE",
"345 1 CURVE SMOOTH",
"385 17 OFFCURVE",
"398 72 OFFCURVE",
"411 112 CURVE SMOOTH",
"420 140 OFFCURVE",
"423 169 OFFCURVE",
"423 200 CURVE SMOOTH",
"423 227 OFFCURVE",
"422 253 OFFCURVE",
"419 281 CURVE SMOOTH"
);
},
{
closed = 1;
nodes = (
"272 13 OFFCURVE",
"238 8 OFFCURVE",
"211 8 CURVE SMOOTH",
"170 8 OFFCURVE",
"85 35 OFFCURVE",
"70 58 CURVE",
"51 96 OFFCURVE",
"35 70 OFFCURVE",
"35 217 CURVE SMOOTH",
"35 337 LINE SMOOTH",
"35 374 OFFCURVE",
"39 394 OFFCURVE",
"57 442 CURVE",
"64 455 OFFCURVE",
"69 479 OFFCURVE",
"77 486 CURVE",
"104 505 OFFCURVE",
"194 498 OFFCURVE",
"257 503 CURVE",
"264 504 OFFCURVE",
"267 505 OFFCURVE",
"274 505 CURVE SMOOTH",
"290 505 OFFCURVE",
"304 491 OFFCURVE",
"323 486 CURVE SMOOTH",
"334 483 OFFCURVE",
"342 485 OFFCURVE",
"349 482 CURVE SMOOTH",
"389 466 OFFCURVE",
"402 400 OFFCURVE",
"402 340 CURVE SMOOTH",
"402 101 OFFCURVE",
"402 59 OFFCURVE",
"313 24 CURVE"
);
},
{
closed = 1;
nodes = (
"296 337 OFFCURVE",
"258 388 OFFCURVE",
"227 388 CURVE SMOOTH",
"200 388 OFFCURVE",
"178 362 OFFCURVE",
"159 349 CURVE",
"159 343 LINE SMOOTH",
"159 328 OFFCURVE",
"151 316 OFFCURVE",
"148 301 CURVE",
"148 292 OFFCURVE",
"152 279 OFFCURVE",
"152 267 CURVE",
"149 243 OFFCURVE",
"144 215 OFFCURVE",
"144 188 CURVE SMOOTH",
"144 140 OFFCURVE",
"165 122 OFFCURVE",
"243 122 CURVE SMOOTH",
"284 122 OFFCURVE",
"296 140 OFFCURVE",
"299 171 CURVE",
"299 187 OFFCURVE",
"303 271 OFFCURVE",
"303 280 CURVE SMOOTH",
"303 288 OFFCURVE",
"302 295 OFFCURVE",
"301 303 CURVE SMOOTH"
);
},
{
closed = 1;
nodes = (
"157 186 OFFCURVE",
"156 205 OFFCURVE",
"156 225 CURVE SMOOTH",
"156 295 OFFCURVE",
"156 362 OFFCURVE",
"223 362 CURVE",
"269 357 OFFCURVE",
"284 338 OFFCURVE",
"284 260 CURVE SMOOTH",
"284 236 OFFCURVE",
"280 224 OFFCURVE",
"277 211 CURVE",
"266 171 OFFCURVE",
"263 140 OFFCURVE",
"223 140 CURVE SMOOTH",
"198 140 OFFCURVE",
"171 154 OFFCURVE",
"164 173 CURVE"
);
}
);
width = 448;
}
);
leftKerningGroup = o;
note = o;
rightKerningGroup = o;
unicode = 006F;
},
{
glyphname = p;
layers = (
{
hints = (
{
horizontal = 1;
place = "{-214, 21}";
target = up;
type = BottomGhost;
},
{
horizontal = 1;
place = "{-23, 137}";
type = Stem;
},
{
horizontal = 1;
place = "{476, 34}";
type = Stem;
},
{
place = "{158, 175}";
type = Stem;
},
{
place = "{424, 34}";
type = Stem;
},
{
place = "{25, 141}";
type = Stem;
},
{
horizontal = 1;
place = "{366, 125}";
type = Stem;
},
{
horizontal = 1;
place = "{-13, 21}";
target = up;
type = BottomGhost;
},
{
horizontal = 1;
place = "{366, 23}";
type = Stem;
},
{
place = "{313, 20}";
type = Stem;
}
);
layerId = "CFE16014-3183-49EF-AD56-7F9496F8AA7E";
paths = (
{
closed = 1;
nodes = (
"455 314 OFFCURVE",
"458 285 OFFCURVE",
"458 246 CURVE SMOOTH",
"458 212 OFFCURVE",
"457 178 OFFCURVE",
"425 82 CURVE SMOOTH",
"414 50 OFFCURVE",
"413 36 OFFCURVE",
"393 17 CURVE SMOOTH",
"369 -6 OFFCURVE",
"323 -23 OFFCURVE",
"263 -23 CURVE SMOOTH",
"232 -23 OFFCURVE",
"203 -17 OFFCURVE",
"177 -6 CURVE",
"174 -27 OFFCURVE",
"172 -85 OFFCURVE",
"169 -181 CURVE SMOOTH",
"169 -188 OFFCURVE",
"169 -194 OFFCURVE",
"170 -201 CURVE",
"163 -205 OFFCURVE",
"160 -209 OFFCURVE",
"159 -214 CURVE",
"140 -209 OFFCURVE",
"117 -208 OFFCURVE",
"93 -208 CURVE SMOOTH",
"59 -208 LINE SMOOTH",
"48 -208 OFFCURVE",
"38 -207 OFFCURVE",
"29 -206 CURVE",
"22 -183 OFFCURVE",
"21 -160 OFFCURVE",
"21 -136 CURVE SMOOTH",
"21 52 OFFCURVE",
"20 -169 OFFCURVE",
"25 407 CURVE SMOOTH",
"25 426 OFFCURVE",
"24 446 OFFCURVE",
"23 465 CURVE SMOOTH",
"22 480 OFFCURVE",
"16 495 OFFCURVE",
"15 506 CURVE",
"16 508 OFFCURVE",
"17 509 OFFCURVE",
"20 510 CURVE",
"29 507 OFFCURVE",
"40 506 OFFCURVE",
"53 506 CURVE",
"86 509 OFFCURVE",
"112 510 OFFCURVE",
"132 510 CURVE SMOOTH",
"180 510 OFFCURVE",
"161 493 OFFCURVE",
"169 474 CURVE",
"192 487 OFFCURVE",
"224 491 OFFCURVE",
"259 491 CURVE SMOOTH",
"347 491 OFFCURVE",
"387 429 OFFCURVE",
"408 410 CURVE SMOOTH",
"423 397 OFFCURVE",
"427 390 OFFCURVE",
"428 379 CURVE",
"431 368 OFFCURVE",
"443 349 OFFCURVE",
"446 341 CURVE"
);
},
{
closed = 1;
nodes = (
"424 182 LINE SMOOTH",
"424 259 OFFCURVE",
"423 351 OFFCURVE",
"359 420 CURVE SMOOTH",
"328 453 OFFCURVE",
"285 476 OFFCURVE",
"260 476 CURVE SMOOTH",
"236 476 OFFCURVE",
"232 475 OFFCURVE",
"223 474 CURVE SMOOTH",
"214 473 OFFCURVE",
"189 473 OFFCURVE",
"180 464 CURVE SMOOTH",
"173 457 OFFCURVE",
"174 441 OFFCURVE",
"163 441 CURVE",
"160 444 OFFCURVE",
"159 448 OFFCURVE",
"159 454 CURVE SMOOTH",
"159 459 OFFCURVE",
"160 464 OFFCURVE",
"160 469 CURVE SMOOTH",
"160 474 OFFCURVE",
"160 477 OFFCURVE",
"159 478 CURVE",
"124 481 OFFCURVE",
"87 480 OFFCURVE",
"54 484 CURVE",
"46 469 OFFCURVE",
"47 514 OFFCURVE",
"35 162 CURVE",
"37 107 OFFCURVE",
"38 53 OFFCURVE",
"38 0 CURVE SMOOTH",
"38 -64 OFFCURVE",
"37 -118 OFFCURVE",
"37 -162 CURVE SMOOTH",
"37 -189 LINE",
"46 -194 OFFCURVE",
"58 -196 OFFCURVE",
"74 -196 CURVE SMOOTH",
"101 -196 OFFCURVE",
"131 -189 OFFCURVE",
"154 -189 CURVE",
"154 -190 OFFCURVE",
"158 -54 OFFCURVE",
"158 -21 CURVE SMOOTH",
"158 2 LINE SMOOTH",
"158 10 OFFCURVE",
"157 18 OFFCURVE",
"156 25 CURVE",
"157 24 OFFCURVE",
"158 24 OFFCURVE",
"160 24 CURVE SMOOTH",
"165 24 OFFCURVE",
"171 27 OFFCURVE",
"178 30 CURVE",
"177 23 OFFCURVE",
"177 21 OFFCURVE",
"177 18 CURVE SMOOTH",
"177 2 OFFCURVE",
"247 -13 OFFCURVE",
"283 -13 CURVE SMOOTH",
"314 -13 OFFCURVE",
"344 -3 OFFCURVE",
"355 16 CURVE SMOOTH",
"366 35 OFFCURVE",
"419 75 OFFCURVE",
"424 171 CURVE"
);
},
{
closed = 1;
nodes = (
"241 389 LINE SMOOTH",
"301 389 OFFCURVE",
"333 319 OFFCURVE",
"333 261 CURVE SMOOTH",
"333 121 OFFCURVE",
"245 96 OFFCURVE",
"229 96 CURVE SMOOTH",
"217 96 OFFCURVE",
"207 106 OFFCURVE",
"192 106 CURVE SMOOTH",
"172 106 OFFCURVE",
"152 137 OFFCURVE",
"152 188 CURVE SMOOTH",
"152 219 OFFCURVE",
"156 250 OFFCURVE",
"156 281 CURVE SMOOTH",
"156 300 OFFCURVE",
"155 313 OFFCURVE",
"152 322 CURVE",
"163 353 OFFCURVE",
"184 382 OFFCURVE",
"235 389 CURVE"
);
},
{
closed = 1;
nodes = (
"313 246 LINE SMOOTH",
"313 293 OFFCURVE",
"293 313 OFFCURVE",
"270 336 CURVE",
"258 347 OFFCURVE",
"241 366 OFFCURVE",
"226 366 CURVE SMOOTH",
"211 366 OFFCURVE",
"185 341 OFFCURVE",
"177 330 CURVE SMOOTH",
"168 318 OFFCURVE",
"166 304 OFFCURVE",
"166 289 CURVE SMOOTH",
"166 196 OFFCURVE",
"169 152 OFFCURVE",
"173 141 CURVE",
"180 125 OFFCURVE",
"189 114 OFFCURVE",
"208 114 CURVE SMOOTH",
"268 114 OFFCURVE",
"305 173 OFFCURVE",
"313 237 CURVE"
);
}
);
width = 464;
}
);
leftKerningGroup = m;
note = p;
rightKerningGroup = p;
unicode = 0070;
},
{
glyphname = q;
layers = (
{
hints = (
{
horizontal = 1;
place = "{1, 25}";
type = Stem;
},
{
horizontal = 1;
place = "{359, 132}";
type = Stem;
},
{
place = "{127, 165}";
type = Stem;
},
{
place = "{406, 25}";
type = Stem;
},
{
place = "{278, 153}";
type = Stem;
},
{
place = "{18, 126}";
type = Stem;
},
{
horizontal = 1;
place = "{-204, 230}";
type = Stem;
},
{
place = "{18, 22}";
type = Stem;
},
{
horizontal = 1;
place = "{1, 123}";
type = Stem;
}
);
layerId = "CFE16014-3183-49EF-AD56-7F9496F8AA7E";
paths = (
{
closed = 1;
nodes = (
"431 191 LINE SMOOTH",
"431 202 OFFCURVE",
"430 210 OFFCURVE",
"430 221 CURVE SMOOTH",
"430 228 LINE SMOOTH",
"430 255 OFFCURVE",
"429 450 OFFCURVE",
"425 475 CURVE",
"430 482 OFFCURVE",
"432 488 OFFCURVE",
"432 493 CURVE SMOOTH",
"432 500 OFFCURVE",
"429 505 OFFCURVE",
"424 509 CURVE",
"381 504 OFFCURVE",
"278 510 OFFCURVE",
"278 477 CURVE SMOOTH",
"278 466 LINE",
"251 481 OFFCURVE",
"231 491 OFFCURVE",
"200 491 CURVE SMOOTH",
"161 491 OFFCURVE",
"107 471 OFFCURVE",
"85 438 CURVE",
"71 424 OFFCURVE",
"18 328 OFFCURVE",
"18 252 CURVE SMOOTH",
"18 203 OFFCURVE",
"25 148 OFFCURVE",
"45 108 CURVE",
"50 97 OFFCURVE",
"60 87 OFFCURVE",
"65 76 CURVE",
"72 63 OFFCURVE",
"75 49 OFFCURVE",
"83 40 CURVE SMOOTH",
"110 9 OFFCURVE",
"152 1 OFFCURVE",
"203 1 CURVE SMOOTH",
"226 1 OFFCURVE",
"247 2 OFFCURVE",
"270 5 CURVE",
"271 -22 OFFCURVE",
"272 -46 OFFCURVE",
"272 -71 CURVE SMOOTH",
"272 -118 OFFCURVE",
"271 -151 OFFCURVE",
"271 -164 CURVE SMOOTH",
"271 -177 OFFCURVE",
"272 -191 OFFCURVE",
"275 -204 CURVE",
"335 -204 LINE SMOOTH",
"370 -204 OFFCURVE",
"403 -191 OFFCURVE",
"430 -190 CURVE",
"430 -170 LINE SMOOTH",
"430 -134 OFFCURVE",
"426 -96 OFFCURVE",
"426 -57 CURVE SMOOTH",
"426 -23 OFFCURVE",
"431 132 OFFCURVE",
"431 170 CURVE SMOOTH"
);
},
{
closed = 1;
nodes = (
"380 -182 OFFCURVE",
"341 -187 OFFCURVE",
"298 -190 CURVE",
"299 -187 OFFCURVE",
"299 -181 OFFCURVE",
"299 -173 CURVE SMOOTH",
"299 -157 LINE SMOOTH",
"299 -113 OFFCURVE",
"292 -68 OFFCURVE",
"292 -27 CURVE SMOOTH",
"292 -4 OFFCURVE",
"295 16 OFFCURVE",
"306 27 CURVE",
"298 30 OFFCURVE",
"291 32 OFFCURVE",
"285 32 CURVE SMOOTH",
"262 32 OFFCURVE",
"243 26 OFFCURVE",
"220 26 CURVE SMOOTH",
"56 26 OFFCURVE",
"40 123 OFFCURVE",
"40 207 CURVE SMOOTH",
"40 311 OFFCURVE",
"62 405 OFFCURVE",
"118 452 CURVE",
"143 470 LINE",
"160 473 OFFCURVE",
"174 475 OFFCURVE",
"187 475 CURVE SMOOTH",
"234 475 OFFCURVE",
"257 436 OFFCURVE",
"295 425 CURVE",
"300 428 OFFCURVE",
"303 434 OFFCURVE",
"303 443 CURVE SMOOTH",
"303 450 OFFCURVE",
"302 456 OFFCURVE",
"302 463 CURVE SMOOTH",
"302 470 OFFCURVE",
"303 475 OFFCURVE",
"306 480 CURVE",
"342 480 OFFCURVE",
"370 475 OFFCURVE",
"403 475 CURVE",
"403 406 OFFCURVE",
"406 309 OFFCURVE",
"406 217 CURVE SMOOTH",
"406 148 OFFCURVE",
"413 79 OFFCURVE",
"413 23 CURVE SMOOTH",
"413 -30 OFFCURVE",
"411 -69 OFFCURVE",
"411 -117 CURVE SMOOTH",
"411 -142 LINE SMOOTH",
"411 -151 OFFCURVE",
"411 -160 OFFCURVE",
"412 -169 CURVE"
);
},
{
closed = 1;
nodes = (
"287 357 OFFCURVE",
"251 372 OFFCURVE",
"223 372 CURVE",
"205 368 LINE",
"194 365 OFFCURVE",
"185 363 OFFCURVE",
"180 360 CURVE",
"143 342 OFFCURVE",
"130 259 OFFCURVE",
"127 243 CURVE",
"132 107 OFFCURVE",
"188 125 OFFCURVE",
"269 109 CURVE",
"298 125 OFFCURVE",
"301 196 OFFCURVE",
"301 244 CURVE SMOOTH",
"301 271 OFFCURVE",
"306 311 OFFCURVE",
"295 338 CURVE SMOOTH"
);
},
{
closed = 1;
nodes = (
"186 127 OFFCURVE",
"144 157 OFFCURVE",
"144 206 CURVE SMOOTH",
"144 280 OFFCURVE",
"168 359 OFFCURVE",
"235 359 CURVE SMOOTH",
"262 359 OFFCURVE",
"281 343 OFFCURVE",
"284 312 CURVE",
"284 259 OFFCURVE",
"285 151 OFFCURVE",
"250 124 CURVE"
);
}
);
width = 463;
}
);
leftKerningGroup = q;
note = q;
rightKerningGroup = q;
unicode = 0071;
},
{
glyphname = r;
layers = (
{
hints = (
{
horizontal = 1;
place = "{-16, 21}";
target = up;
type = BottomGhost;
},
{
horizontal = 1;
place = "{476, 26}";
type = Stem;
},
{
place = "{159, 201}";
type = Stem;
},
{
horizontal = 1;
place = "{361, 115}";
type = Stem;
},
{
horizontal = 1;
place = "{516, -20}";
target = down;
type = TopGhost;
},
{
place = "{27, 147}";
type = Stem;
},
{
horizontal = 1;
place = "{-5, 21}";
target = up;
type = BottomGhost;
},
{
place = "{159, 27}";
type = Stem;
},
{
horizontal = 1;
place = "{336, 25}";
type = Stem;
},
{
horizontal = 1;
place = "{-1, 21}";
target = up;
type = BottomGhost;
}
);
layerId = "CFE16014-3183-49EF-AD56-7F9496F8AA7E";
paths = (
{
closed = 1;
nodes = (
"359 500 OFFCURVE",
"357 500 OFFCURVE",
"356 500 CURVE SMOOTH",
"355 500 OFFCURVE",
"355 500 OFFCURVE",
"355 499 CURVE",
"352 499 OFFCURVE",
"353 502 OFFCURVE",
"348 505 CURVE",
"322 496 OFFCURVE",
"266 482 OFFCURVE",
"180 463 CURVE",
"173 480 OFFCURVE",
"178 503 OFFCURVE",
"171 516 CURVE",
"168 513 LINE",
"166 510 LINE",
"155 510 LINE SMOOTH",
"123 510 OFFCURVE",
"96 502 OFFCURVE",
"51 502 CURVE",
"39 504 LINE",
"35 491 OFFCURVE",
"37 484 OFFCURVE",
"24 484 CURVE",
"26 468 OFFCURVE",
"27 450 OFFCURVE",
"27 431 CURVE SMOOTH",
"27 371 OFFCURVE",
"18 299 OFFCURVE",
"18 223 CURVE SMOOTH",
"18 188 OFFCURVE",
"21 121 OFFCURVE",
"26 20 CURVE",
"26 -8 LINE",
"31 -13 OFFCURVE",
"39 -16 OFFCURVE",
"48 -16 CURVE SMOOTH",
"56 -16 OFFCURVE",
"122 -15 OFFCURVE",
"186 -4 CURVE",
"183 47 OFFCURVE",
"174 129 OFFCURVE",
"174 199 CURVE SMOOTH",
"174 259 OFFCURVE",
"182 336 OFFCURVE",
"243 336 CURVE SMOOTH",
"271 336 OFFCURVE",
"307 326 OFFCURVE",
"323 319 CURVE SMOOTH",
"339 312 OFFCURVE",
"336 308 OFFCURVE",
"339 305 CURVE",
"352 304 LINE",
"357 304 OFFCURVE",
"360 338 OFFCURVE",
"360 501 CURVE"
);
},
{
closed = 1;
nodes = (
"301 336 OFFCURVE",
"271 361 OFFCURVE",
"232 361 CURVE SMOOTH",
"161 361 OFFCURVE",
"159 258 OFFCURVE",
"159 210 CURVE SMOOTH",
"159 138 OFFCURVE",
"162 67 OFFCURVE",
"174 10 CURVE",
"141 5 OFFCURVE",
"110 -5 OFFCURVE",
"71 -5 CURVE SMOOTH",
"63 -5 OFFCURVE",
"50 -4 OFFCURVE",
"50 1 CURVE SMOOTH",
"50 3 LINE",
"51 3 OFFCURVE",
"51 -1 OFFCURVE",
"54 -1 CURVE",
"61 18 LINE",
"56 27 LINE",
"56 36 LINE SMOOTH",
"56 47 OFFCURVE",
"52 115 OFFCURVE",
"49 176 CURVE SMOOTH",
"43 297 LINE",
"43 304 OFFCURVE",
"44 311 OFFCURVE",
"46 316 CURVE",
"46 312 LINE",
"48 325 LINE",
"48 366 OFFCURVE",
"47 382 OFFCURVE",
"47 405 CURVE SMOOTH",
"47 428 OFFCURVE",
"48 452 OFFCURVE",
"53 476 CURVE",
"89 477 OFFCURVE",
"117 485 OFFCURVE",
"152 485 CURVE",
"154 478 OFFCURVE",
"151 448 OFFCURVE",
"174 433 CURVE",
"177 434 OFFCURVE",
"179 437 OFFCURVE",
"179 440 CURVE",
"178 444 LINE",
"178 446 LINE",
"198 454 OFFCURVE",
"219 451 OFFCURVE",
"238 455 CURVE SMOOTH",
"273 463 OFFCURVE",
"300 485 OFFCURVE",
"339 485 CURVE",
"341 471 OFFCURVE",
"342 457 OFFCURVE",
"342 442 CURVE SMOOTH",
"342 405 OFFCURVE",
"337 364 OFFCURVE",
"336 327 CURVE"
);
}
);
width = 368;
}
);
leftKerningGroup = m;
note = r;
rightKerningGroup = r;
unicode = 0072;
},
{
glyphname = s;
layers = (
{
hints = (
{
horizontal = 1;
place = "{-43, 40}";
type = Stem;
},
{
horizontal = 1;
place = "{94, 196}";
type = Stem;
},
{
horizontal = 1;
place = "{331, 35}";
type = Stem;
},
{
horizontal = 1;
place = "{415, 21}";
type = Stem;
},
{
horizontal = 1;
place = "{476, 55}";
type = Stem;
},
{
place = "{14, 173}";
type = Stem;
},
{
place = "{292, 147}";
type = Stem;
},
{
horizontal = 1;
place = "{-43, 152}";
type = Stem;
},
{
horizontal = 1;
place = "{94, 81}";
type = Stem;
},
{
place = "{165, 146}";
type = Stem;
}
);
layerId = "CFE16014-3183-49EF-AD56-7F9496F8AA7E";
paths = (
{
closed = 1;
nodes = (
"335 291 OFFCURVE",
"333 291 OFFCURVE",
"329 291 CURVE SMOOTH",
"324 291 OFFCURVE",
"319 290 OFFCURVE",
"315 290 CURVE SMOOTH",
"296 290 OFFCURVE",
"276 302 OFFCURVE",
"257 309 CURVE SMOOTH",
"238 316 OFFCURVE",
"219 317 OFFCURVE",
"203 328 CURVE",
"199 345 OFFCURVE",
"187 358 OFFCURVE",
"187 377 CURVE SMOOTH",
"187 401 OFFCURVE",
"206 415 OFFCURVE",
"233 415 CURVE SMOOTH",
"289 415 OFFCURVE",
"267 376 OFFCURVE",
"286 348 CURVE",
"305 337 OFFCURVE",
"340 331 OFFCURVE",
"375 331 CURVE SMOOTH",
"408 331 OFFCURVE",
"423 335 OFFCURVE",
"442 354 CURVE",
"438 363 OFFCURVE",
"435 372 OFFCURVE",
"434 382 CURVE",
"430 411 LINE SMOOTH",
"427 431 OFFCURVE",
"425 448 OFFCURVE",
"416 463 CURVE",
"384 511 OFFCURVE",
"280 531 OFFCURVE",
"204 531 CURVE SMOOTH",
"177 531 OFFCURVE",
"160 521 OFFCURVE",
"136 514 CURVE SMOOTH",
"52 489 OFFCURVE",
"14 449 OFFCURVE",
"14 376 CURVE SMOOTH",
"14 195 OFFCURVE",
"292 264 OFFCURVE",
"292 166 CURVE SMOOTH",
"292 134 OFFCURVE",
"265 109 OFFCURVE",
"240 109 CURVE SMOOTH",
"166 109 OFFCURVE",
"195 175 OFFCURVE",
"158 175 CURVE SMOOTH",
"148 175 LINE SMOOTH",
"117 175 OFFCURVE",
"87 167 OFFCURVE",
"56 167 CURVE SMOOTH",
"39 167 OFFCURVE",
"25 169 OFFCURVE",
"15 174 CURVE",
"15 166 OFFCURVE",
"14 159 OFFCURVE",
"14 152 CURVE SMOOTH",
"14 25 OFFCURVE",
"106 -43 OFFCURVE",
"223 -43 CURVE SMOOTH",
"286 -43 OFFCURVE",
"319 -26 OFFCURVE",
"357 6 CURVE SMOOTH",
"399 40 OFFCURVE",
"439 118 OFFCURVE",
"439 156 CURVE SMOOTH",
"439 179 OFFCURVE",
"431 208 OFFCURVE",
"422 224 CURVE",
"409 245 OFFCURVE",
"368 285 OFFCURVE",
"336 290 CURVE"
);
},
{
closed = 1;
nodes = (
"343 18 OFFCURVE",
"297 -3 OFFCURVE",
"234 -3 CURVE SMOOTH",
"158 -3 OFFCURVE",
"63 14 OFFCURVE",
"36 86 CURVE SMOOTH",
"29 105 OFFCURVE",
"27 126 OFFCURVE",
"24 153 CURVE",
"25 152 OFFCURVE",
"28 152 OFFCURVE",
"32 152 CURVE SMOOTH",
"41 152 LINE SMOOTH",
"69 152 OFFCURVE",
"96 158 OFFCURVE",
"120 158 CURVE SMOOTH",
"133 158 OFFCURVE",
"147 157 OFFCURVE",
"159 150 CURVE",
"170 143 OFFCURVE",
"172 132 OFFCURVE",
"180 123 CURVE",
"192 107 OFFCURVE",
"217 94 OFFCURVE",
"244 94 CURVE SMOOTH",
"273 94 OFFCURVE",
"311 124 OFFCURVE",
"311 177 CURVE SMOOTH",
"311 244 OFFCURVE",
"192 248 OFFCURVE",
"127 275 CURVE SMOOTH",
"107 283 LINE",
"63 298 OFFCURVE",
"33 317 OFFCURVE",
"33 373 CURVE SMOOTH",
"33 410 OFFCURVE",
"46 422 OFFCURVE",
"70 446 CURVE SMOOTH",
"120 496 OFFCURVE",
"159 497 OFFCURVE",
"212 513 CURVE",
"213 514 OFFCURVE",
"216 514 OFFCURVE",
"222 514 CURVE SMOOTH",
"239 514 OFFCURVE",
"255 504 OFFCURVE",
"278 504 CURVE SMOOTH",
"293 504 LINE SMOOTH",
"320 504 OFFCURVE",
"340 476 OFFCURVE",
"369 476 CURVE SMOOTH",
"401 476 OFFCURVE",
"424 429 OFFCURVE",
"424 389 CURVE SMOOTH",
"424 370 OFFCURVE",
"403 366 OFFCURVE",
"384 366 CURVE SMOOTH",
"340 366 OFFCURVE",
"288 366 OFFCURVE",
"272 411 CURVE",
"257 422 OFFCURVE",
"229 436 OFFCURVE",
"204 436 CURVE SMOOTH",
"183 436 OFFCURVE",
"165 424 OFFCURVE",
"165 389 CURVE SMOOTH",
"165 350 OFFCURVE",
"191 318 OFFCURVE",
"212 307 CURVE SMOOTH",
"255 286 OFFCURVE",
"316 293 OFFCURVE",
"359 269 CURVE SMOOTH",
"383 256 OFFCURVE",
"418 212 OFFCURVE",
"418 180 CURVE SMOOTH",
"418 133 OFFCURVE",
"385 81 OFFCURVE",
"372 60 CURVE"
);
}
);
width = 450;
}
);
leftKerningGroup = s;
note = s;
rightKerningGroup = s;
unicode = 0073;
},
{
glyphname = t;
layers = (
{
hints = (
{
horizontal = 1;
place = "{0, 21}";
target = up;
type = BottomGhost;
},
{
horizontal = 1;
place = "{371, 133}";
type = Stem;
},
{
horizontal = 1;
place = "{692, -20}";
target = down;
type = TopGhost;
},
{
place = "{75, 35}";
type = Stem;
},
{
place = "{207, 164}";
type = Stem;
},
{
place = "{75, 140}";
type = Stem;
},
{
place = "{207, 21}";
type = Stem;
},
{
horizontal = 1;
place = "{486, 197}";
type = Stem;
},
{
place = "{91, 137}";
type = Stem;
},
{
place = "{16, 94}";
type = Stem;
},
{
horizontal = 1;
place = "{-15, 21}";
target = up;
type = BottomGhost;
},
{
horizontal = 1;
place = "{371, 22}";
type = Stem;
}
);
layerId = "CFE16014-3183-49EF-AD56-7F9496F8AA7E";
paths = (
{
closed = 1;
nodes = (
"306 140 OFFCURVE",
"295 152 OFFCURVE",
"271 152 CURVE SMOOTH",
"248 152 OFFCURVE",
"241 170 OFFCURVE",
"219 170 CURVE",
"219 213 OFFCURVE",
"215 261 OFFCURVE",
"215 308 CURVE SMOOTH",
"215 329 OFFCURVE",
"216 349 OFFCURVE",
"218 369 CURVE",
"221 370 OFFCURVE",
"225 371 OFFCURVE",
"230 371 CURVE SMOOTH",
"270 371 OFFCURVE",
"327 367 OFFCURVE",
"371 366 CURVE",
"379 495 OFFCURVE",
"376 492 OFFCURVE",
"379 500 CURVE",
"376 503 OFFCURVE",
"372 504 OFFCURVE",
"367 504 CURVE SMOOTH",
"352 504 OFFCURVE",
"334 496 OFFCURVE",
"314 496 CURVE SMOOTH",
"283 496 OFFCURVE",
"254 499 OFFCURVE",
"238 499 CURVE SMOOTH",
"230 499 LINE",
"229 516 OFFCURVE",
"228 540 OFFCURVE",
"228 571 CURVE SMOOTH",
"228 602 OFFCURVE",
"229 639 OFFCURVE",
"230 686 CURVE",
"223 686 OFFCURVE",
"214 685 OFFCURVE",
"210 692 CURVE",
"201 683 OFFCURVE",
"202 683 OFFCURVE",
"190 683 CURVE SMOOTH",
"158 684 OFFCURVE",
"124 688 OFFCURVE",
"104 688 CURVE SMOOTH",
"99 688 OFFCURVE",
"93 687 OFFCURVE",
"88 686 CURVE",
"90 631 OFFCURVE",
"91 587 OFFCURVE",
"91 554 CURVE SMOOTH",
"91 521 OFFCURVE",
"90 500 OFFCURVE",
"88 490 CURVE",
"87 491 OFFCURVE",
"84 491 OFFCURVE",
"78 491 CURVE SMOOTH",
"41 491 LINE SMOOTH",
"26 491 OFFCURVE",
"29 500 OFFCURVE",
"24 500 CURVE SMOOTH",
"20 500 OFFCURVE",
"19 496 OFFCURVE",
"16 496 CURVE SMOOTH",
"15 496 OFFCURVE",
"16 497 OFFCURVE",
"13 497 CURVE",
"14 485 OFFCURVE",
"16 467 OFFCURVE",
"16 447 CURVE SMOOTH",
"16 424 OFFCURVE",
"13 402 OFFCURVE",
"4 383 CURVE",
"12 380 OFFCURVE",
"7 359 OFFCURVE",
"14 359 CURVE SMOOTH",
"18 359 OFFCURVE",
"15 368 OFFCURVE",
"22 369 CURVE",
"39 366 OFFCURVE",
"66 369 OFFCURVE",
"77 360 CURVE",
"77 339 LINE SMOOTH",
"77 302 OFFCURVE",
"75 261 OFFCURVE",
"75 220 CURVE SMOOTH",
"75 152 OFFCURVE",
"80 88 OFFCURVE",
"115 48 CURVE SMOOTH",
"140 19 OFFCURVE",
"187 15 OFFCURVE",
"236 4 CURVE",
"287 -11 OFFCURVE",
"320 -15 OFFCURVE",
"335 -15 CURVE SMOOTH",
"350 -15 OFFCURVE",
"361 -14 OFFCURVE",
"367 -11 CURVE",
"371 20 OFFCURVE",
"378 59 OFFCURVE",
"378 95 CURVE SMOOTH",
"378 106 OFFCURVE",
"376 121 OFFCURVE",
"373 140 CURVE",
"362 137 OFFCURVE",
"350 136 OFFCURVE",
"338 136 CURVE SMOOTH",
"330 136 OFFCURVE",
"326 136 OFFCURVE",
"325 137 CURVE"
);
},
{
closed = 1;
nodes = (
"245 25 OFFCURVE",
"110 20 OFFCURVE",
"110 104 CURVE SMOOTH",
"110 120 LINE SMOOTH",
"110 176 OFFCURVE",
"94 239 OFFCURVE",
"91 303 CURVE SMOOTH",
"90 320 OFFCURVE",
"91 335 OFFCURVE",
"90 354 CURVE",
"90 361 OFFCURVE",
"95 360 OFFCURVE",
"96 365 CURVE",
"92 370 OFFCURVE",
"90 375 OFFCURVE",
"90 380 CURVE SMOOTH",
"90 384 LINE",
"57 390 OFFCURVE",
"34 393 OFFCURVE",
"23 393 CURVE",
"27 422 OFFCURVE",
"28 453 OFFCURVE",
"28 485 CURVE",
"39 482 OFFCURVE",
"60 481 OFFCURVE",
"93 478 CURVE",
"98 482 OFFCURVE",
"95 494 OFFCURVE",
"103 497 CURVE",
"103 502 OFFCURVE",
"102 507 OFFCURVE",
"102 512 CURVE SMOOTH",
"102 531 OFFCURVE",
"103 584 OFFCURVE",
"105 671 CURVE",
"117 675 OFFCURVE",
"130 677 OFFCURVE",
"143 677 CURVE SMOOTH",
"162 677 OFFCURVE",
"183 674 OFFCURVE",
"204 671 CURVE",
"206 622 OFFCURVE",
"207 579 OFFCURVE",
"207 542 CURVE SMOOTH",
"207 513 OFFCURVE",
"206 493 OFFCURVE",
"206 482 CURVE",
"233 485 OFFCURVE",
"256 486 OFFCURVE",
"279 486 CURVE SMOOTH",
"303 486 OFFCURVE",
"324 485 OFFCURVE",
"340 484 CURVE",
"351 484 OFFCURVE",
"359 485 OFFCURVE",
"370 490 CURVE",
"370 487 OFFCURVE",
"361 479 OFFCURVE",
"361 460 CURVE SMOOTH",
"361 436 OFFCURVE",
"362 416 OFFCURVE",
"365 393 CURVE",
"333 393 OFFCURVE",
"295 386 OFFCURVE",
"268 386 CURVE SMOOTH",
"246 386 OFFCURVE",
"196 375 OFFCURVE",
"194 375 CURVE",
"193 372 LINE",
"193 365 OFFCURVE",
"202 369 OFFCURVE",
"203 362 CURVE",
"200 311 OFFCURVE",
"199 260 OFFCURVE",
"199 211 CURVE SMOOTH",
"199 166 OFFCURVE",
"199 164 OFFCURVE",
"203 164 CURVE SMOOTH",
"206 164 OFFCURVE",
"207 165 OFFCURVE",
"207 167 CURVE SMOOTH",
"207 169 LINE",
"220 148 OFFCURVE",
"244 143 OFFCURVE",
"272 131 CURVE SMOOTH",
"296 120 OFFCURVE",
"314 112 OFFCURVE",
"343 112 CURVE SMOOTH",
"352 112 LINE SMOOTH",
"357 112 OFFCURVE",
"360 112 OFFCURVE",
"361 113 CURVE",
"360 112 OFFCURVE",
"360 109 OFFCURVE",
"360 104 CURVE SMOOTH",
"360 96 LINE SMOOTH",
"360 81 OFFCURVE",
"361 67 OFFCURVE",
"361 52 CURVE SMOOTH",
"361 29 OFFCURVE",
"359 9 OFFCURVE",
"346 -2 CURVE"
);
},
{
closed = 1;
nodes = (
"294 1 OFFCURVE",
"296 1 OFFCURVE",
"299 1 CURVE",
"298 0 OFFCURVE",
"297 0 OFFCURVE",
"294 0 CURVE"
);
}
);
width = 387;
}
);
leftKerningGroup = t;
note = t;
rightKerningGroup = t;
unicode = 0074;
},
{
glyphname = u;
layers = (
{
hints = (
{
horizontal = 1;
place = "{1, 25}";
type = Stem;
},
{
horizontal = 1;
place = "{515, -20}";
target = down;
type = TopGhost;
},
{
place = "{21, 22}";
type = Stem;
},
{
place = "{141, 159}";
type = Stem;
},
{
place = "{284, 124}";
type = Stem;
},
{
horizontal = 1;
place = "{1, 161}";
type = Stem;
},
{
place = "{141, 23}";
type = Stem;
},
{
horizontal = 1;
place = "{-3, 21}";
target = up;
type = BottomGhost;
},
{
place = "{399, 25}";
type = Stem;
},
{
place = "{21, 34}";
type = Stem;
},
{
place = "{141, 153}";
type = Stem;
}
);
layerId = "CFE16014-3183-49EF-AD56-7F9496F8AA7E";
paths = (
{
closed = 1;
nodes = (
"417 501 OFFCURVE",
"410 503 OFFCURVE",
"403 503 CURVE SMOOTH",
"394 503 OFFCURVE",
"384 500 OFFCURVE",
"369 500 CURVE SMOOTH",
"362 500 OFFCURVE",
"357 501 OFFCURVE",
"350 501 CURVE SMOOTH",
"334 501 OFFCURVE",
"320 494 OFFCURVE",
"308 494 CURVE SMOOTH",
"303 494 OFFCURVE",
"299 495 OFFCURVE",
"297 497 CURVE",
"297 489 OFFCURVE",
"286 494 OFFCURVE",
"283 487 CURVE",
"284 478 OFFCURVE",
"285 467 OFFCURVE",
"285 456 CURVE SMOOTH",
"285 419 LINE SMOOTH",
"285 392 OFFCURVE",
"284 370 OFFCURVE",
"284 315 CURVE SMOOTH",
"284 239 OFFCURVE",
"290 162 OFFCURVE",
"210 162 CURVE SMOOTH",
"173 162 OFFCURVE",
"164 212 OFFCURVE",
"164 252 CURVE SMOOTH",
"164 289 LINE SMOOTH",
"164 340 OFFCURVE",
"166 387 OFFCURVE",
"166 426 CURVE SMOOTH",
"166 461 OFFCURVE",
"165 490 OFFCURVE",
"161 510 CURVE",
"154 512 OFFCURVE",
"146 513 OFFCURVE",
"137 513 CURVE SMOOTH",
"118 513 OFFCURVE",
"95 508 OFFCURVE",
"76 508 CURVE SMOOTH",
"69 508 OFFCURVE",
"61 510 OFFCURVE",
"51 513 CURVE",
"50 510 OFFCURVE",
"48 509 OFFCURVE",
"43 509 CURVE SMOOTH",
"29 509 LINE",
"26 510 OFFCURVE",
"26 515 OFFCURVE",
"23 515 CURVE SMOOTH",
"22 515 OFFCURVE",
"21 514 OFFCURVE",
"20 513 CURVE",
"20 510 LINE SMOOTH",
"20 494 OFFCURVE",
"21 477 OFFCURVE",
"21 460 CURVE SMOOTH",
"21 391 OFFCURVE",
"17 314 OFFCURVE",
"17 250 CURVE SMOOTH",
"17 238 OFFCURVE",
"21 227 OFFCURVE",
"22 215 CURVE",
"22 199 OFFCURVE",
"20 184 OFFCURVE",
"20 169 CURVE SMOOTH",
"20 76 OFFCURVE",
"60 1 OFFCURVE",
"135 1 CURVE SMOOTH",
"187 1 OFFCURVE",
"233 31 OFFCURVE",
"265 50 CURVE",
"262 39 OFFCURVE",
"261 26 OFFCURVE",
"261 14 CURVE SMOOTH",
"261 1 OFFCURVE",
"259 -3 OFFCURVE",
"274 -3 CURVE SMOOTH",
"301 -3 OFFCURVE",
"335 6 OFFCURVE",
"366 6 CURVE SMOOTH",
"374 6 OFFCURVE",
"385 4 OFFCURVE",
"398 1 CURVE",
"401 6 OFFCURVE",
"403 23 OFFCURVE",
"408 51 CURVE",
"408 69 LINE SMOOTH",
"408 149 OFFCURVE",
"424 238 OFFCURVE",
"424 323 CURVE SMOOTH",
"424 370 OFFCURVE",
"420 415 OFFCURVE",
"420 458 CURVE SMOOTH",
"420 473 OFFCURVE",
"421 485 OFFCURVE",
"422 497 CURVE"
);
},
{
closed = 1;
nodes = (
"399 315 LINE SMOOTH",
"394 150 OFFCURVE",
"404 26 OFFCURVE",
"363 26 CURVE SMOOTH",
"344 26 OFFCURVE",
"325 33 OFFCURVE",
"306 33 CURVE SMOOTH",
"299 33 OFFCURVE",
"292 32 OFFCURVE",
"286 30 CURVE",
"286 42 OFFCURVE",
"285 53 OFFCURVE",
"285 64 CURVE SMOOTH",
"285 75 OFFCURVE",
"287 83 OFFCURVE",
"292 88 CURVE",
"285 93 OFFCURVE",
"284 91 OFFCURVE",
"283 104 CURVE",
"271 100 OFFCURVE",
"264 92 OFFCURVE",
"257 81 CURVE",
"230 42 OFFCURVE",
"202 19 OFFCURVE",
"151 19 CURVE SMOOTH",
"95 19 OFFCURVE",
"43 75 OFFCURVE",
"43 150 CURVE SMOOTH",
"43 173 OFFCURVE",
"41 214 OFFCURVE",
"41 270 CURVE SMOOTH",
"41 352 OFFCURVE",
"55 394 OFFCURVE",
"55 456 CURVE SMOOTH",
"55 473 LINE SMOOTH",
"55 481 OFFCURVE",
"55 487 OFFCURVE",
"54 490 CURVE",
"79 490 OFFCURVE",
"96 493 OFFCURVE",
"115 493 CURVE SMOOTH",
"126 493 OFFCURVE",
"134 493 OFFCURVE",
"145 490 CURVE",
"142 455 OFFCURVE",
"141 419 OFFCURVE",
"141 366 CURVE SMOOTH",
"141 289 OFFCURVE",
"137 153 OFFCURVE",
"213 153 CURVE SMOOTH",
"235 153 OFFCURVE",
"253 160 OFFCURVE",
"266 174 CURVE",
"274 201 OFFCURVE",
"300 225 OFFCURVE",
"300 261 CURVE SMOOTH",
"300 300 OFFCURVE",
"294 343 OFFCURVE",
"294 382 CURVE SMOOTH",
"294 417 OFFCURVE",
"296 451 OFFCURVE",
"301 484 CURVE",
"317 488 OFFCURVE",
"333 489 OFFCURVE",
"352 489 CURVE SMOOTH",
"367 489 OFFCURVE",
"382 488 OFFCURVE",
"398 487 CURVE",
"398 425 LINE SMOOTH",
"398 409 OFFCURVE",
"399 386 OFFCURVE",
"399 355 CURVE SMOOTH"
);
}
);
width = 450;
}
);
leftKerningGroup = u;
note = u;
rightKerningGroup = q;
unicode = 0075;
},
{
glyphname = v;
layers = (
{
hints = (
{
horizontal = 1;
place = "{0, 21}";
target = up;
type = BottomGhost;
},
{
horizontal = 1;
place = "{508, -20}";
target = down;
type = TopGhost;
}
);
layerId = "CFE16014-3183-49EF-AD56-7F9496F8AA7E";
paths = (
{
closed = 1;
nodes = (
"414 482 OFFCURVE",
"413 484 OFFCURVE",
"413 487 CURVE SMOOTH",
"413 488 OFFCURVE",
"414 489 OFFCURVE",
"414 490 CURVE SMOOTH",
"414 496 OFFCURVE",
"404 499 OFFCURVE",
"385 499 CURVE SMOOTH",
"365 499 OFFCURVE",
"326 494 OFFCURVE",
"310 494 CURVE SMOOTH",
"294 494 OFFCURVE",
"289 496 OFFCURVE",
"289 499 CURVE",
"282 481 LINE",
"258 393 OFFCURVE",
"245 301 OFFCURVE",
"218 217 CURVE",
"207 248 OFFCURVE",
"216 206 OFFCURVE",
"165 356 CURVE",
"157 407 OFFCURVE",
"138 460 OFFCURVE",
"134 488 CURVE",
"137 488 LINE SMOOTH",
"138 488 OFFCURVE",
"147 475 OFFCURVE",
"150 475 CURVE",
"150 478 OFFCURVE",
"140 499 OFFCURVE",
"137 499 CURVE SMOOTH",
"136 499 OFFCURVE",
"135 497 OFFCURVE",
"132 497 CURVE SMOOTH",
"125 497 OFFCURVE",
"130 508 OFFCURVE",
"123 508 CURVE",
"123 497 OFFCURVE",
"105 495 OFFCURVE",
"80 495 CURVE SMOOTH",
"64 495 OFFCURVE",
"47 496 OFFCURVE",
"32 496 CURVE SMOOTH",
"20 496 OFFCURVE",
"13 495 OFFCURVE",
"10 492 CURVE",
"7 492 OFFCURVE",
"7 496 OFFCURVE",
"4 496 CURVE SMOOTH",
"3 496 OFFCURVE",
"2 495 OFFCURVE",
"2 492 CURVE SMOOTH",
"2 486 LINE SMOOTH",
"2 454 OFFCURVE",
"19 428 OFFCURVE",
"28 395 CURVE SMOOTH",
"40 348 OFFCURVE",
"103 30 OFFCURVE",
"115 30 CURVE SMOOTH",
"116 30 LINE SMOOTH",
"117 30 OFFCURVE",
"117 28 OFFCURVE",
"118 16 CURVE",
"119 11 OFFCURVE",
"149 6 OFFCURVE",
"208 0 CURVE",
"285 7 OFFCURVE",
"323 11 OFFCURVE",
"323 12 CURVE",
"315 16 LINE",
"335 136 OFFCURVE",
"350 215 OFFCURVE",
"361 254 CURVE SMOOTH",
"380 330 OFFCURVE",
"396 409 OFFCURVE",
"415 481 CURVE"
);
},
{
closed = 1;
nodes = (
"352 489 OFFCURVE",
"363 490 OFFCURVE",
"367 490 CURVE SMOOTH",
"368 490 LINE",
"368 489 OFFCURVE",
"362 488 OFFCURVE",
"362 487 CURVE",
"365 487 LINE",
"367 488 OFFCURVE",
"374 488 OFFCURVE",
"385 488 CURVE SMOOTH",
"389 488 OFFCURVE",
"391 488 OFFCURVE",
"392 487 CURVE",
"379 407 OFFCURVE",
"359 330 OFFCURVE",
"346 250 CURVE SMOOTH",
"335 179 OFFCURVE",
"296 20 OFFCURVE",
"294 20 CURVE SMOOTH",
"278 20 OFFCURVE",
"276 12 OFFCURVE",
"263 12 CURVE SMOOTH",
"251 12 OFFCURVE",
"237 17 OFFCURVE",
"221 17 CURVE SMOOTH",
"192 17 LINE SMOOTH",
"171 17 OFFCURVE",
"152 17 OFFCURVE",
"136 24 CURVE",
"133 33 OFFCURVE",
"114 117 OFFCURVE",
"90 202 CURVE",
"63 283 OFFCURVE",
"71 288 OFFCURVE",
"29 479 CURVE",
"36 480 OFFCURVE",
"43 480 OFFCURVE",
"48 480 CURVE SMOOTH",
"65 480 LINE SMOOTH",
"74 480 OFFCURVE",
"93 480 OFFCURVE",
"121 479 CURVE",
"152 371 OFFCURVE",
"183 268 OFFCURVE",
"210 159 CURVE",
"211 159 LINE",
"212 158 OFFCURVE",
"214 157 OFFCURVE",
"215 157 CURVE SMOOTH",
"217 157 OFFCURVE",
"219 158 OFFCURVE",
"222 161 CURVE",
"222 159 LINE SMOOTH",
"222 156 OFFCURVE",
"221 156 OFFCURVE",
"221 153 CURVE SMOOTH",
"221 152 OFFCURVE",
"223 151 OFFCURVE",
"226 151 CURVE",
"249 264 OFFCURVE",
"268 379 OFFCURVE",
"296 488 CURVE",
"303 488 OFFCURVE",
"314 487 OFFCURVE",
"333 486 CURVE"
);
}
);
width = 429;
}
);
leftKerningGroup = v;
note = v;
rightKerningGroup = v;
unicode = 0076;
},
{
glyphname = w;
layers = (
{
hints = (
{
horizontal = 1;
place = "{-5, 21}";
target = up;
type = BottomGhost;
},
{
horizontal = 1;
place = "{516, -20}";
target = down;
type = TopGhost;
},
{
place = "{323, 21}";
type = Stem;
},
{
horizontal = 1;
place = "{-1, 28}";
type = Stem;
},
{
place = "{201, 143}";
type = Stem;
}
);
layerId = "CFE16014-3183-49EF-AD56-7F9496F8AA7E";
paths = (
{
closed = 1;
nodes = (
"667 500 OFFCURVE",
"672 513 OFFCURVE",
"665 516 CURVE",
"660 513 OFFCURVE",
"663 505 OFFCURVE",
"659 504 CURVE",
"650 504 LINE SMOOTH",
"631 504 OFFCURVE",
"621 496 OFFCURVE",
"602 496 CURVE SMOOTH",
"583 496 OFFCURVE",
"567 502 OFFCURVE",
"552 502 CURVE SMOOTH",
"529 502 OFFCURVE",
"532 486 OFFCURVE",
"531 471 CURVE SMOOTH",
"530 460 OFFCURVE",
"524 449 OFFCURVE",
"521 438 CURVE",
"502 350 OFFCURVE",
"488 263 OFFCURVE",
"460 191 CURVE",
"441 288 OFFCURVE",
"423 384 OFFCURVE",
"403 480 CURVE",
"409 482 OFFCURVE",
"412 484 OFFCURVE",
"412 486 CURVE SMOOTH",
"412 495 OFFCURVE",
"397 493 OFFCURVE",
"397 506 CURVE",
"395 506 LINE SMOOTH",
"394 506 OFFCURVE",
"393 505 OFFCURVE",
"393 502 CURVE SMOOTH",
"393 499 LINE SMOOTH",
"393 496 OFFCURVE",
"392 494 OFFCURVE",
"390 494 CURVE",
"386 497 OFFCURVE",
"387 505 OFFCURVE",
"380 505 CURVE SMOOTH",
"379 505 OFFCURVE",
"379 504 OFFCURVE",
"379 502 CURVE SMOOTH",
"379 497 LINE SMOOTH",
"379 496 OFFCURVE",
"379 495 OFFCURVE",
"378 495 CURVE",
"351 498 OFFCURVE",
"331 505 OFFCURVE",
"308 505 CURVE",
"296 496 OFFCURVE",
"295 490 OFFCURVE",
"261 403 CURVE SMOOTH",
"226 318 OFFCURVE",
"228 286 OFFCURVE",
"209 235 CURVE",
"180 321 OFFCURVE",
"185 441 OFFCURVE",
"139 511 CURVE",
"137 510 OFFCURVE",
"136 508 OFFCURVE",
"136 507 CURVE SMOOTH",
"136 504 OFFCURVE",
"138 502 OFFCURVE",
"138 499 CURVE SMOOTH",
"138 498 OFFCURVE",
"137 497 OFFCURVE",
"135 496 CURVE",
"113 502 LINE SMOOTH",
"106 504 OFFCURVE",
"91 505 OFFCURVE",
"70 505 CURVE SMOOTH",
"41 505 OFFCURVE",
"10 502 OFFCURVE",
"2 498 CURVE",
"22 451 OFFCURVE",
"33 399 OFFCURVE",
"45 343 CURVE SMOOTH",
"56 294 OFFCURVE",
"72 243 OFFCURVE",
"84 191 CURVE SMOOTH",
"97 135 OFFCURVE",
"101 73 OFFCURVE",
"114 22 CURVE",
"117 17 OFFCURVE",
"122 18 OFFCURVE",
"122 11 CURVE",
"117 9 OFFCURVE",
"115 6 OFFCURVE",
"115 3 CURVE SMOOTH",
"115 0 OFFCURVE",
"117 -1 OFFCURVE",
"120 -1 CURVE SMOOTH",
"128 -1 OFFCURVE",
"130 1 OFFCURVE",
"133 2 CURVE",
"137 4 LINE",
"138 5 OFFCURVE",
"140 5 OFFCURVE",
"144 5 CURVE SMOOTH",
"155 5 OFFCURVE",
"166 4 OFFCURVE",
"178 4 CURVE SMOOTH",
"189 4 OFFCURVE",
"199 5 OFFCURVE",
"210 5 CURVE SMOOTH",
"219 5 OFFCURVE",
"231 4 OFFCURVE",
"244 2 CURVE",
"249 4 OFFCURVE",
"255 5 OFFCURVE",
"263 5 CURVE SMOOTH",
"273 5 OFFCURVE",
"283 4 OFFCURVE",
"292 2 CURVE",
"293 13 OFFCURVE",
"296 20 OFFCURVE",
"300 22 CURVE",
"304 75 OFFCURVE",
"320 129 OFFCURVE",
"333 178 CURVE",
"348 122 OFFCURVE",
"362 57 OFFCURVE",
"363 0 CURVE",
"384 1 OFFCURVE",
"408 2 OFFCURVE",
"433 2 CURVE SMOOTH",
"474 2 OFFCURVE",
"516 0 OFFCURVE",
"551 -5 CURVE",
"551 -1 OFFCURVE",
"550 3 OFFCURVE",
"550 7 CURVE SMOOTH",
"550 15 OFFCURVE",
"554 16 OFFCURVE",
"557 16 CURVE",
"562 17 LINE",
"564 18 OFFCURVE",
"565 20 OFFCURVE",
"565 23 CURVE SMOOTH",
"565 27 OFFCURVE",
"556 23 OFFCURVE",
"555 27 CURVE",
"568 62 OFFCURVE",
"574 106 OFFCURVE",
"585 149 CURVE",
"609 221 OFFCURVE",
"614 293 OFFCURVE",
"641 365 CURVE SMOOTH",
"656 406 OFFCURVE",
"670 442 OFFCURVE",
"670 487 CURVE",
"671 492 OFFCURVE",
"676 492 OFFCURVE",
"676 499 CURVE"
);
},
{
closed = 1;
nodes = (
"566 133 OFFCURVE",
"555 83 OFFCURVE",
"540 26 CURVE",
"533 26 OFFCURVE",
"528 27 OFFCURVE",
"523 27 CURVE SMOOTH",
"484 27 OFFCURVE",
"449 18 OFFCURVE",
"410 18 CURVE SMOOTH",
"393 18 OFFCURVE",
"384 25 OFFCURVE",
"384 32 CURVE SMOOTH",
"384 35 OFFCURVE",
"385 35 OFFCURVE",
"385 38 CURVE SMOOTH",
"385 49 OFFCURVE",
"347 133 OFFCURVE",
"344 227 CURVE",
"344 234 OFFCURVE",
"338 236 OFFCURVE",
"335 236 CURVE SMOOTH",
"332 236 OFFCURVE",
"328 235 OFFCURVE",
"323 232 CURVE",
"323 153 OFFCURVE",
"296 93 OFFCURVE",
"285 20 CURVE",
"284 19 OFFCURVE",
"282 19 OFFCURVE",
"278 19 CURVE SMOOTH",
"271 19 OFFCURVE",
"262 20 OFFCURVE",
"250 20 CURVE SMOOTH",
"233 20 OFFCURVE",
"212 18 OFFCURVE",
"185 10 CURVE",
"133 14 LINE",
"124 51 OFFCURVE",
"112 88 OFFCURVE",
"105 124 CURVE SMOOTH",
"98 155 OFFCURVE",
"100 183 OFFCURVE",
"93 212 CURVE SMOOTH",
"90 223 OFFCURVE",
"85 232 OFFCURVE",
"82 243 CURVE",
"74 264 OFFCURVE",
"31 431 OFFCURVE",
"23 494 CURVE",
"31 491 OFFCURVE",
"40 489 OFFCURVE",
"50 489 CURVE SMOOTH",
"58 489 OFFCURVE",
"76 490 OFFCURVE",
"99 490 CURVE SMOOTH",
"126 490 OFFCURVE",
"132 484 OFFCURVE",
"140 484 CURVE",
"156 399 OFFCURVE",
"201 291 OFFCURVE",
"201 208 CURVE",
"194 171 LINE",
"207 168 OFFCURVE",
"214 161 OFFCURVE",
"214 150 CURVE",
"218 150 OFFCURVE",
"255 286 OFFCURVE",
"268 337 CURVE SMOOTH",
"283 393 OFFCURVE",
"297 443 OFFCURVE",
"313 494 CURVE",
"314 495 OFFCURVE",
"318 495 OFFCURVE",
"325 495 CURVE SMOOTH",
"344 495 OFFCURVE",
"361 488 OFFCURVE",
"381 487 CURVE",
"416 388 OFFCURVE",
"407 239 OFFCURVE",
"453 153 CURVE",
"460 158 OFFCURVE",
"463 158 OFFCURVE",
"470 161 CURVE",
"501 265 OFFCURVE",
"522 373 OFFCURVE",
"553 477 CURVE",
"554 476 OFFCURVE",
"557 476 OFFCURVE",
"562 476 CURVE SMOOTH",
"571 476 LINE SMOOTH",
"602 476 OFFCURVE",
"625 484 OFFCURVE",
"656 487 CURVE",
"640 426 OFFCURVE",
"631 366 OFFCURVE",
"615 306 CURVE SMOOTH",
"604 267 OFFCURVE",
"589 229 OFFCURVE",
"578 189 CURVE"
);
}
);
width = 683;
}
);
leftKerningGroup = w;
note = w;
rightKerningGroup = w;
unicode = 0077;
},
{
glyphname = x;
layers = (
{
hints = (
{
horizontal = 1;
place = "{-8, 21}";
target = up;
type = BottomGhost;
},
{
horizontal = 1;
place = "{469, 29}";
type = Stem;
},
{
horizontal = 1;
place = "{514, -20}";
target = down;
type = TopGhost;
},
{
horizontal = 1;
place = "{-3, 21}";
target = up;
type = BottomGhost;
},
{
horizontal = 1;
place = "{-5, 21}";
target = up;
type = BottomGhost;
}
);
layerId = "CFE16014-3183-49EF-AD56-7F9496F8AA7E";
paths = (
{
closed = 1;
nodes = (
"394 23 OFFCURVE",
"391 32 OFFCURVE",
"388 40 CURVE SMOOTH",
"374 78 OFFCURVE",
"339 229 OFFCURVE",
"323 229 CURVE SMOOTH",
"320 229 LINE SMOOTH",
"319 229 OFFCURVE",
"319 230 OFFCURVE",
"319 231 CURVE",
"346 323 OFFCURVE",
"379 408 OFFCURVE",
"411 496 CURVE",
"404 499 OFFCURVE",
"398 497 OFFCURVE",
"398 502 CURVE SMOOTH",
"398 503 OFFCURVE",
"398 504 OFFCURVE",
"399 505 CURVE",
"360 502 OFFCURVE",
"324 498 OFFCURVE",
"291 498 CURVE SMOOTH",
"276 498 OFFCURVE",
"261 499 OFFCURVE",
"248 502 CURVE",
"237 497 OFFCURVE",
"230 439 OFFCURVE",
"211 366 CURVE",
"204 409 OFFCURVE",
"182 451 OFFCURVE",
"181 490 CURVE",
"174 491 OFFCURVE",
"173 495 OFFCURVE",
"172 502 CURVE",
"171 501 OFFCURVE",
"167 501 OFFCURVE",
"162 501 CURVE SMOOTH",
"153 501 LINE SMOOTH",
"110 501 OFFCURVE",
"70 514 OFFCURVE",
"31 514 CURVE",
"23 511 OFFCURVE",
"13 506 OFFCURVE",
"4 506 CURVE",
"5 506 OFFCURVE",
"2 507 OFFCURVE",
"-5 508 CURVE",
"-6 507 OFFCURVE",
"-7 505 OFFCURVE",
"-7 503 CURVE SMOOTH",
"-7 499 LINE SMOOTH",
"-7 498 OFFCURVE",
"-7 497 OFFCURVE",
"-8 496 CURVE",
"-15 496 LINE SMOOTH",
"-22 496 OFFCURVE",
"-26 494 OFFCURVE",
"-26 489 CURVE",
"-25 486 OFFCURVE",
"-23 485 OFFCURVE",
"-18 485 CURVE SMOOTH",
"-14 485 OFFCURVE",
"-9 486 OFFCURVE",
"-5 486 CURVE SMOOTH",
"-2 486 LINE",
"-1 462 OFFCURVE",
"8 446 OFFCURVE",
"16 430 CURVE",
"42 393 OFFCURVE",
"60 301 OFFCURVE",
"73 256 CURVE",
"76 248 OFFCURVE",
"83 240 OFFCURVE",
"83 231 CURVE SMOOTH",
"83 217 OFFCURVE",
"37 119 OFFCURVE",
"7 3 CURVE",
"12 -1 OFFCURVE",
"18 -3 OFFCURVE",
"27 -3 CURVE SMOOTH",
"46 -3 OFFCURVE",
"65 4 OFFCURVE",
"88 4 CURVE SMOOTH",
"99 4 OFFCURVE",
"152 2 OFFCURVE",
"152 -1 CURVE SMOOTH",
"152 -5 LINE SMOOTH",
"152 -7 OFFCURVE",
"153 -8 OFFCURVE",
"154 -8 CURVE SMOOTH",
"162 -8 OFFCURVE",
"177 55 OFFCURVE",
"182 66 CURVE",
"190 91 OFFCURVE",
"192 120 OFFCURVE",
"205 144 CURVE",
"225 99 OFFCURVE",
"236 47 OFFCURVE",
"256 3 CURVE",
"263 3 OFFCURVE",
"267 4 OFFCURVE",
"274 4 CURVE SMOOTH",
"311 4 OFFCURVE",
"350 -5 OFFCURVE",
"385 -5 CURVE SMOOTH",
"398 -5 LINE SMOOTH",
"403 -5 OFFCURVE",
"407 -4 OFFCURVE",
"412 -3 CURVE",
"411 5 OFFCURVE",
"403 9 OFFCURVE",
"399 16 CURVE"
);
},
{
closed = 1;
nodes = (
"248 56 OFFCURVE",
"226 101 OFFCURVE",
"215 148 CURVE",
"212 159 OFFCURVE",
"216 173 OFFCURVE",
"205 180 CURVE",
"184 124 OFFCURVE",
"166 68 OFFCURVE",
"146 12 CURVE",
"135 12 OFFCURVE",
"127 13 OFFCURVE",
"118 13 CURVE SMOOTH",
"82 13 OFFCURVE",
"47 9 OFFCURVE",
"16 9 CURVE",
"33 74 OFFCURVE",
"66 126 OFFCURVE",
"86 193 CURVE",
"100 221 OFFCURVE",
"107 241 OFFCURVE",
"107 253 CURVE",
"94 243 OFFCURVE",
"95 231 OFFCURVE",
"71 181 CURVE",
"70 182 LINE",
"70 185 OFFCURVE",
"89 228 OFFCURVE",
"94 252 CURVE",
"92 253 LINE",
"91 253 OFFCURVE",
"90 251 OFFCURVE",
"89 247 CURVE",
"87 250 OFFCURVE",
"86 253 OFFCURVE",
"86 257 CURVE SMOOTH",
"86 262 OFFCURVE",
"88 266 OFFCURVE",
"92 268 CURVE",
"68 344 OFFCURVE",
"32 407 OFFCURVE",
"11 486 CURVE",
"44 483 OFFCURVE",
"66 473 OFFCURVE",
"97 466 CURVE",
"93 469 LINE",
"119 469 LINE SMOOTH",
"128 469 OFFCURVE",
"135 465 OFFCURVE",
"138 465 CURVE SMOOTH",
"145 465 OFFCURVE",
"151 474 OFFCURVE",
"160 474 CURVE",
"179 434 OFFCURVE",
"190 386 OFFCURVE",
"203 339 CURVE",
"202 332 OFFCURVE",
"199 327 OFFCURVE",
"199 318 CURVE SMOOTH",
"199 315 LINE",
"208 315 OFFCURVE",
"204 323 OFFCURVE",
"211 328 CURVE",
"212 321 OFFCURVE",
"214 318 OFFCURVE",
"218 318 CURVE",
"236 397 OFFCURVE",
"247 441 OFFCURVE",
"251 448 CURVE",
"250 452 LINE",
"250 477 OFFCURVE",
"270 479 OFFCURVE",
"293 479 CURVE SMOOTH",
"322 479 OFFCURVE",
"352 478 OFFCURVE",
"379 478 CURVE SMOOTH",
"380 478 LINE SMOOTH",
"382 478 OFFCURVE",
"383 474 OFFCURVE",
"383 467 CURVE SMOOTH",
"383 442 OFFCURVE",
"345 343 OFFCURVE",
"307 246 CURVE",
"320 166 OFFCURVE",
"362 89 OFFCURVE",
"378 4 CURVE",
"335 5 OFFCURVE",
"300 12 OFFCURVE",
"259 13 CURVE"
);
}
);
width = 413;
}
);
leftKerningGroup = x;
note = x;
rightKerningGroup = x;
unicode = 0078;
},
{
glyphname = y;
layers = (
{
hints = (
{
horizontal = 1;
place = "{-181, 146}";
type = Stem;
},
{
horizontal = 1;
place = "{478, 28}";
type = Stem;
},
{
place = "{113, 20}";
type = Stem;
},
{
horizontal = 1;
place = "{518, -20}";
target = down;
type = TopGhost;
}
);
layerId = "CFE16014-3183-49EF-AD56-7F9496F8AA7E";
paths = (
{
closed = 1;
nodes = (
"418 500 LINE",
"318 506 LINE",
"307 506 OFFCURVE",
"298 510 OFFCURVE",
"290 518 CURVE",
"288 517 OFFCURVE",
"287 515 OFFCURVE",
"287 514 CURVE SMOOTH",
"287 511 OFFCURVE",
"292 507 OFFCURVE",
"292 503 CURVE SMOOTH",
"292 496 OFFCURVE",
"273 502 OFFCURVE",
"273 491 CURVE SMOOTH",
"273 484 OFFCURVE",
"287 484 OFFCURVE",
"288 477 CURVE",
"271 373 OFFCURVE",
"254 275 OFFCURVE",
"233 175 CURVE",
"229 200 OFFCURVE",
"163 499 OFFCURVE",
"158 499 CURVE SMOOTH",
"155 499 OFFCURVE",
"156 497 OFFCURVE",
"153 497 CURVE SMOOTH",
"152 497 OFFCURVE",
"152 497 OFFCURVE",
"151 498 CURVE",
"151 501 OFFCURVE",
"152 500 OFFCURVE",
"152 503 CURVE",
"152 502 OFFCURVE",
"151 504 OFFCURVE",
"150 508 CURVE",
"137 506 OFFCURVE",
"123 505 OFFCURVE",
"110 505 CURVE SMOOTH",
"87 505 OFFCURVE",
"65 507 OFFCURVE",
"40 507 CURVE SMOOTH",
"28 507 OFFCURVE",
"17 506 OFFCURVE",
"12 506 CURVE SMOOTH",
"5 506 OFFCURVE",
"10 512 OFFCURVE",
"6 512 CURVE SMOOTH",
"2 512 OFFCURVE",
"3 502 OFFCURVE",
"0 498 CURVE",
"3 495 OFFCURVE",
"9 495 OFFCURVE",
"9 490 CURVE",
"24 429 OFFCURVE",
"41 364 OFFCURVE",
"58 292 CURVE SMOOTH",
"76 218 OFFCURVE",
"113 148 OFFCURVE",
"113 65 CURVE SMOOTH",
"113 33 OFFCURVE",
"92 -35 OFFCURVE",
"39 -35 CURVE SMOOTH",
"23 -35 OFFCURVE",
"9 -32 OFFCURVE",
"-6 -32 CURVE SMOOTH",
"-13 -32 OFFCURVE",
"-20 -33 OFFCURVE",
"-27 -35 CURVE",
"-24 -80 OFFCURVE",
"-29 -141 OFFCURVE",
"-13 -175 CURVE",
"7 -179 OFFCURVE",
"32 -181 OFFCURVE",
"56 -181 CURVE SMOOTH",
"211 -181 OFFCURVE",
"257 -130 OFFCURVE",
"297 -30 CURVE SMOOTH",
"308 -3 OFFCURVE",
"320 21 OFFCURVE",
"329 49 CURVE SMOOTH",
"337 77 OFFCURVE",
"346 106 OFFCURVE",
"359 133 CURVE SMOOTH",
"386 190 OFFCURVE",
"394 251 OFFCURVE",
"407 308 CURVE SMOOTH",
"422 372 OFFCURVE",
"432 442 OFFCURVE",
"443 498 CURVE"
);
},
{
closed = 1;
nodes = (
"344 198 OFFCURVE",
"331 27 OFFCURVE",
"240 -72 CURVE SMOOTH",
"221 -92 OFFCURVE",
"216 -110 OFFCURVE",
"192 -122 CURVE SMOOTH",
"167 -134 OFFCURVE",
"141 -135 OFFCURVE",
"116 -142 CURVE",
"84 -147 OFFCURVE",
"52 -160 OFFCURVE",
"16 -160 CURVE SMOOTH",
"6 -160 LINE",
"-1 -141 OFFCURVE",
"-3 -123 OFFCURVE",
"-3 -104 CURVE SMOOTH",
"-3 -92 OFFCURVE",
"-2 -80 OFFCURVE",
"-2 -65 CURVE",
"56 -46 OFFCURVE",
"88 -36 OFFCURVE",
"94 -35 CURVE SMOOTH",
"123 -30 OFFCURVE",
"133 0 OFFCURVE",
"133 27 CURVE SMOOTH",
"133 70 OFFCURVE",
"114 120 OFFCURVE",
"103 156 CURVE SMOOTH",
"92 192 OFFCURVE",
"90 228 OFFCURVE",
"79 255 CURVE SMOOTH",
"66 290 OFFCURVE",
"41 408 OFFCURVE",
"20 494 CURVE",
"44 494 OFFCURVE",
"63 495 OFFCURVE",
"78 495 CURVE SMOOTH",
"115 495 OFFCURVE",
"146 491 OFFCURVE",
"146 487 CURVE",
"142 486 LINE",
"141 485 OFFCURVE",
"141 484 OFFCURVE",
"141 483 CURVE SMOOTH",
"141 479 OFFCURVE",
"148 481 OFFCURVE",
"151 478 CURVE",
"162 454 OFFCURVE",
"169 425 OFFCURVE",
"174 397 CURVE",
"174 400 OFFCURVE",
"224 137 OFFCURVE",
"227 137 CURVE",
"231 138 LINE",
"230 135 OFFCURVE",
"227 132 OFFCURVE",
"227 128 CURVE SMOOTH",
"227 127 OFFCURVE",
"228 126 OFFCURVE",
"229 125 CURVE",
"244 130 OFFCURVE",
"239 151 OFFCURVE",
"243 166 CURVE SMOOTH",
"259 222 OFFCURVE",
"241 227 OFFCURVE",
"309 478 CURVE",
"372 475 OFFCURVE",
"409 474 OFFCURVE",
"422 471 CURVE",
"413 418 OFFCURVE",
"414 363 OFFCURVE",
"395 316 CURVE SMOOTH"
);
}
);
width = 449;
}
);
leftKerningGroup = y;
note = y;
rightKerningGroup = y;
unicode = 0079;
},
{
glyphname = z;
layers = (
{
hints = (
{
horizontal = 1;
place = "{-7, 21}";
target = up;
type = BottomGhost;
},
{
horizontal = 1;
place = "{132, 218}";
type = Stem;
},
{
horizontal = 1;
place = "{517, -20}";
target = down;
type = TopGhost;
},
{
horizontal = 1;
place = "{341, 163}";
type = Stem;
},
{
horizontal = 1;
place = "{132, 22}";
type = Stem;
},
{
horizontal = 1;
place = "{8, 138}";
type = Stem;
},
{
horizontal = 1;
place = "{0, 21}";
target = up;
type = BottomGhost;
},
{
horizontal = 1;
place = "{-3, 21}";
target = up;
type = BottomGhost;
}
);
layerId = "CFE16014-3183-49EF-AD56-7F9496F8AA7E";
paths = (
{
closed = 1;
nodes = (
"431 356 OFFCURVE",
"434 361 OFFCURVE",
"437 372 CURVE",
"434 381 OFFCURVE",
"432 391 OFFCURVE",
"432 402 CURVE SMOOTH",
"432 422 OFFCURVE",
"436 443 OFFCURVE",
"436 466 CURVE SMOOTH",
"436 474 OFFCURVE",
"435 483 OFFCURVE",
"434 491 CURVE",
"430 488 OFFCURVE",
"431 479 OFFCURVE",
"428 476 CURVE",
"429 477 OFFCURVE",
"429 479 OFFCURVE",
"429 482 CURVE SMOOTH",
"429 489 OFFCURVE",
"427 493 OFFCURVE",
"427 497 CURVE SMOOTH",
"427 500 OFFCURVE",
"427 502 OFFCURVE",
"428 503 CURVE",
"421 514 OFFCURVE",
"410 517 OFFCURVE",
"397 517 CURVE SMOOTH",
"382 517 OFFCURVE",
"366 513 OFFCURVE",
"347 513 CURVE SMOOTH",
"335 513 OFFCURVE",
"324 518 OFFCURVE",
"316 518 CURVE",
"282 515 OFFCURVE",
"312 509 OFFCURVE",
"213 506 CURVE SMOOTH",
"173 504 LINE",
"175 506 LINE",
"175 507 OFFCURVE",
"174 507 OFFCURVE",
"173 507 CURVE SMOOTH",
"169 507 OFFCURVE",
"160 504 OFFCURVE",
"160 503 CURVE",
"157 503 OFFCURVE",
"151 504 OFFCURVE",
"143 504 CURVE SMOOTH",
"127 504 OFFCURVE",
"80 495 OFFCURVE",
"57 495 CURVE SMOOTH",
"44 495 OFFCURVE",
"35 496 OFFCURVE",
"30 496 CURVE SMOOTH",
"23 496 OFFCURVE",
"19 494 OFFCURVE",
"17 489 CURVE",
"20 484 OFFCURVE",
"28 488 OFFCURVE",
"31 483 CURVE",
"30 476 OFFCURVE",
"29 471 OFFCURVE",
"29 464 CURVE SMOOTH",
"29 441 OFFCURVE",
"35 423 OFFCURVE",
"35 400 CURVE SMOOTH",
"35 387 OFFCURVE",
"34 376 OFFCURVE",
"31 368 CURVE",
"33 366 LINE",
"36 367 LINE",
"37 367 OFFCURVE",
"38 366 OFFCURVE",
"38 365 CURVE SMOOTH",
"38 361 LINE SMOOTH",
"38 352 OFFCURVE",
"29 352 OFFCURVE",
"28 345 CURVE",
"31 337 OFFCURVE",
"43 346 OFFCURVE",
"43 335 CURVE",
"51 340 OFFCURVE",
"53 341 OFFCURVE",
"99 341 CURVE",
"139 345 OFFCURVE",
"155 347 OFFCURVE",
"162 347 CURVE SMOOTH",
"173 347 OFFCURVE",
"200 342 OFFCURVE",
"212 342 CURVE SMOOTH",
"219 342 OFFCURVE",
"220 343 OFFCURVE",
"223 343 CURVE SMOOTH",
"224 343 LINE",
"216 341 OFFCURVE",
"160 283 OFFCURVE",
"113 236 CURVE",
"89 220 OFFCURVE",
"130 241 OFFCURVE",
"35 156 CURVE",
"32 155 OFFCURVE",
"28 156 OFFCURVE",
"25 153 CURVE",
"25 122 OFFCURVE",
"28 89 OFFCURVE",
"28 58 CURVE SMOOTH",
"28 41 OFFCURVE",
"27 24 OFFCURVE",
"23 9 CURVE",
"24 8 OFFCURVE",
"27 8 OFFCURVE",
"33 8 CURVE SMOOTH",
"43 8 LINE SMOOTH",
"75 8 OFFCURVE",
"105 11 OFFCURVE",
"126 11 CURVE SMOOTH",
"131 11 OFFCURVE",
"136 10 OFFCURVE",
"140 9 CURVE",
"141 10 OFFCURVE",
"145 10 OFFCURVE",
"151 10 CURVE",
"211 5 OFFCURVE",
"247 3 OFFCURVE",
"263 3 CURVE SMOOTH",
"278 3 OFFCURVE",
"288 4 OFFCURVE",
"295 5 CURVE",
"294 2 OFFCURVE",
"292 3 OFFCURVE",
"292 0 CURVE",
"293 1 OFFCURVE",
"296 1 OFFCURVE",
"301 1 CURVE SMOOTH",
"338 1 OFFCURVE",
"357 -3 OFFCURVE",
"380 -3 CURVE SMOOTH",
"389 -3 OFFCURVE",
"399 -2 OFFCURVE",
"410 0 CURVE",
"415 0 OFFCURVE",
"410 -7 OFFCURVE",
"417 -7 CURVE SMOOTH",
"425 -7 OFFCURVE",
"428 22 OFFCURVE",
"428 31 CURVE SMOOTH",
"428 56 OFFCURVE",
"421 84 OFFCURVE",
"421 109 CURVE SMOOTH",
"421 124 OFFCURVE",
"422 136 OFFCURVE",
"425 143 CURVE",
"424 142 OFFCURVE",
"423 142 OFFCURVE",
"421 142 CURVE SMOOTH",
"406 142 OFFCURVE",
"391 154 OFFCURVE",
"368 154 CURVE SMOOTH",
"361 154 OFFCURVE",
"343 152 OFFCURVE",
"310 147 CURVE",
"248 145 LINE SMOOTH",
"241 145 OFFCURVE",
"236 146 OFFCURVE",
"233 149 CURVE",
"297 217 OFFCURVE",
"356 285 OFFCURVE",
"428 345 CURVE"
);
},
{
closed = 1;
nodes = (
"251 132 OFFCURVE",
"314 137 OFFCURVE",
"370 142 CURVE",
"389 142 OFFCURVE",
"403 140 OFFCURVE",
"412 135 CURVE",
"413 112 OFFCURVE",
"415 81 OFFCURVE",
"415 53 CURVE SMOOTH",
"415 42 LINE SMOOTH",
"415 30 OFFCURVE",
"414 14 OFFCURVE",
"410 14 CURVE SMOOTH",
"406 14 OFFCURVE",
"408 22 OFFCURVE",
"404 23 CURVE",
"364 23 OFFCURVE",
"308 18 OFFCURVE",
"264 18 CURVE SMOOTH",
"194 18 OFFCURVE",
"197 26 OFFCURVE",
"150 26 CURVE SMOOTH",
"117 26 OFFCURVE",
"80 24 OFFCURVE",
"41 21 CURVE",
"42 23 LINE",
"42 24 OFFCURVE",
"42 24 OFFCURVE",
"41 24 CURVE SMOOTH",
"38 24 LINE SMOOTH",
"37 24 OFFCURVE",
"37 24 OFFCURVE",
"37 25 CURVE SMOOTH",
"37 32 OFFCURVE",
"38 36 OFFCURVE",
"38 43 CURVE SMOOTH",
"38 54 OFFCURVE",
"37 79 OFFCURVE",
"34 116 CURVE",
"34 133 LINE SMOOTH",
"34 138 OFFCURVE",
"36 141 OFFCURVE",
"39 141 CURVE SMOOTH",
"60 141 OFFCURVE",
"158 273 OFFCURVE",
"253 347 CURVE",
"252 348 OFFCURVE",
"251 350 OFFCURVE",
"251 351 CURVE SMOOTH",
"251 355 OFFCURVE",
"257 358 OFFCURVE",
"257 365 CURVE SMOOTH",
"257 368 LINE",
"246 368 OFFCURVE",
"247 356 OFFCURVE",
"236 356 CURVE SMOOTH",
"233 356 OFFCURVE",
"236 362 OFFCURVE",
"233 363 CURVE",
"199 363 OFFCURVE",
"155 350 OFFCURVE",
"134 350 CURVE SMOOTH",
"114 350 OFFCURVE",
"104 353 OFFCURVE",
"95 353 CURVE SMOOTH",
"88 353 OFFCURVE",
"80 352 OFFCURVE",
"72 352 CURVE SMOOTH",
"62 352 OFFCURVE",
"54 353 OFFCURVE",
"49 356 CURVE",
"49 367 OFFCURVE",
"37 443 OFFCURVE",
"37 457 CURVE SMOOTH",
"37 466 OFFCURVE",
"38 477 OFFCURVE",
"40 488 CURVE",
"43 485 OFFCURVE",
"61 486 OFFCURVE",
"62 485 CURVE",
"64 488 LINE",
"64 493 OFFCURVE",
"111 497 OFFCURVE",
"211 497 CURVE",
"334 508 OFFCURVE",
"276 508 OFFCURVE",
"317 508 CURVE SMOOTH",
"328 508 OFFCURVE",
"336 504 OFFCURVE",
"347 504 CURVE SMOOTH",
"354 504 OFFCURVE",
"360 505 OFFCURVE",
"368 505 CURVE SMOOTH",
"380 505 OFFCURVE",
"395 503 OFFCURVE",
"416 495 CURVE",
"419 464 OFFCURVE",
"421 436 OFFCURVE",
"421 405 CURVE SMOOTH",
"421 388 OFFCURVE",
"420 370 OFFCURVE",
"419 351 CURVE",
"398 344 OFFCURVE",
"388 323 OFFCURVE",
"373 308 CURVE SMOOTH",
"332 267 OFFCURVE",
"381 307 OFFCURVE",
"241 167 CURVE",
"241 169 OFFCURVE",
"241 170 OFFCURVE",
"242 171 CURVE",
"231 160 OFFCURVE",
"215 151 OFFCURVE",
"208 132 CURVE"
);
}
);
width = 456;
}
);
leftKerningGroup = z;
note = z;
rightKerningGroup = z;
unicode = 007A;
},
{
glyphname = A;
layers = (
{
hints = (
{
horizontal = 1;
place = "{-2, 21}";
target = up;
type = BottomGhost;
},
{
horizontal = 1;
place = "{708, -20}";
target = down;
type = TopGhost;
},
{
horizontal = 1;
place = "{-5, 21}";
target = up;
type = BottomGhost;
}
);
layerId = "CFE16014-3183-49EF-AD56-7F9496F8AA7E";
paths = (
{
closed = 1;
nodes = (
"408 66 OFFCURVE",
"404 111 OFFCURVE",
"397 144 CURVE",
"397 147 OFFCURVE",
"398 148 OFFCURVE",
"401 148 CURVE",
"400 153 OFFCURVE",
"402 159 OFFCURVE",
"395 162 CURVE",
"387 185 OFFCURVE",
"392 213 OFFCURVE",
"381 234 CURVE",
"377 274 OFFCURVE",
"365 317 OFFCURVE",
"358 357 CURVE",
"343 397 OFFCURVE",
"340 442 OFFCURVE",
"328 483 CURVE",
"328 486 OFFCURVE",
"329 487 OFFCURVE",
"329 488 CURVE SMOOTH",
"329 489 OFFCURVE",
"329 489 OFFCURVE",
"330 490 CURVE",
"330 501 OFFCURVE",
"318 508 OFFCURVE",
"318 521 CURVE",
"307 585 OFFCURVE",
"292 644 OFFCURVE",
"276 708 CURVE",
"260 708 OFFCURVE",
"243 704 OFFCURVE",
"188 704 CURVE SMOOTH",
"171 704 LINE",
"148 688 OFFCURVE",
"123 635 OFFCURVE",
"120 606 CURVE",
"123 610 OFFCURVE",
"123 615 OFFCURVE",
"126 618 CURVE",
"111 542 OFFCURVE",
"93 470 OFFCURVE",
"74 394 CURVE",
"74 406 LINE",
"75 408 OFFCURVE",
"75 411 OFFCURVE",
"75 416 CURVE",
"46 299 OFFCURVE",
"27 166 OFFCURVE",
"4 49 CURVE",
"20 108 OFFCURVE",
"40 239 OFFCURVE",
"48 239 CURVE",
"39 175 OFFCURVE",
"23 97 OFFCURVE",
"12 33 CURVE SMOOTH",
"11 28 OFFCURVE",
"5 24 OFFCURVE",
"5 20 CURVE SMOOTH",
"5 19 OFFCURVE",
"6 17 OFFCURVE",
"8 15 CURVE",
"4 9 LINE",
"1 1 OFFCURVE",
"1 6 OFFCURVE",
"1 3 CURVE SMOOTH",
"1 0 OFFCURVE",
"5 2 OFFCURVE",
"6 -1 CURVE",
"38 3 OFFCURVE",
"74 1 OFFCURVE",
"107 2 CURVE",
"109 0 LINE",
"110 1 OFFCURVE",
"112 1 OFFCURVE",
"116 1 CURVE SMOOTH",
"123 1 OFFCURVE",
"131 -2 OFFCURVE",
"138 -2 CURVE SMOOTH",
"143 -2 OFFCURVE",
"148 0 OFFCURVE",
"151 3 CURVE",
"182 139 LINE",
"185 145 OFFCURVE",
"191 148 OFFCURVE",
"200 148 CURVE SMOOTH",
"208 148 OFFCURVE",
"217 145 OFFCURVE",
"225 145 CURVE",
"225 146 OFFCURVE",
"226 146 OFFCURVE",
"227 146 CURVE SMOOTH",
"230 146 OFFCURVE",
"232 146 OFFCURVE",
"235 147 CURVE",
"222 150 OFFCURVE",
"209 149 OFFCURVE",
"196 153 CURVE",
"211 160 OFFCURVE",
"228 157 OFFCURVE",
"244 158 CURVE",
"248 154 LINE",
"264 114 OFFCURVE",
"283 46 OFFCURVE",
"299 3 CURVE",
"312 -1 OFFCURVE",
"334 0 OFFCURVE",
"363 -1 CURVE SMOOTH",
"412 -4 OFFCURVE",
"423 -5 OFFCURVE",
"428 -5 CURVE SMOOTH",
"429 -5 OFFCURVE",
"431 -3 OFFCURVE",
"432 1 CURVE",
"428 13 OFFCURVE",
"424 23 OFFCURVE",
"421 35 CURVE"
);
},
{
closed = 1;
nodes = (
"402 20 LINE",
"383 19 OFFCURVE",
"368 19 OFFCURVE",
"355 19 CURVE SMOOTH",
"332 19 OFFCURVE",
"319 20 OFFCURVE",
"316 22 CURVE",
"313 19 OFFCURVE",
"310 19 OFFCURVE",
"307 18 CURVE",
"307 26 LINE",
"311 26 LINE",
"290 58 OFFCURVE",
"281 123 OFFCURVE",
"265 160 CURVE",
"267 164 LINE",
"267 171 OFFCURVE",
"259 173 OFFCURVE",
"256 176 CURVE",
"228 173 OFFCURVE",
"193 179 OFFCURVE",
"170 166 CURVE",
"175 158 LINE",
"162 126 OFFCURVE",
"157 60 OFFCURVE",
"138 30 CURVE",
"102 22 OFFCURVE",
"66 17 OFFCURVE",
"27 10 CURVE",
"23 12 LINE",
"36 75 OFFCURVE",
"65 151 OFFCURVE",
"68 217 CURVE",
"60 214 OFFCURVE",
"63 206 OFFCURVE",
"58 199 CURVE",
"58 202 LINE SMOOTH",
"58 211 OFFCURVE",
"64 221 OFFCURVE",
"64 232 CURVE",
"63 232 OFFCURVE",
"63 233 OFFCURVE",
"63 234 CURVE SMOOTH",
"63 235 OFFCURVE",
"62 238 OFFCURVE",
"62 241 CURVE",
"69 254 OFFCURVE",
"72 277 OFFCURVE",
"76 296 CURVE SMOOTH",
"79 309 OFFCURVE",
"97 367 OFFCURVE",
"97 374 CURVE",
"95 386 LINE",
"106 401 OFFCURVE",
"106 423 OFFCURVE",
"109 442 CURVE",
"106 442 LINE",
"130 492 OFFCURVE",
"129 550 OFFCURVE",
"148 606 CURVE SMOOTH",
"157 634 OFFCURVE",
"164 656 OFFCURVE",
"168 688 CURVE",
"211 689 OFFCURVE",
"235 689 OFFCURVE",
"243 689 CURVE",
"243 688 OFFCURVE",
"242 687 OFFCURVE",
"240 685 CURVE",
"241 684 OFFCURVE",
"244 683 OFFCURVE",
"247 683 CURVE SMOOTH",
"252 683 OFFCURVE",
"257 684 OFFCURVE",
"261 684 CURVE SMOOTH",
"267 684 OFFCURVE",
"270 680 OFFCURVE",
"270 673 CURVE",
"275 636 LINE",
"274 637 LINE",
"287 565 OFFCURVE",
"305 501 OFFCURVE",
"308 458 CURVE",
"310 465 LINE",
"311 465 OFFCURVE",
"311 464 OFFCURVE",
"311 463 CURVE",
"312 460 LINE",
"313 460 OFFCURVE",
"314 461 OFFCURVE",
"314 463 CURVE SMOOTH",
"314 472 OFFCURVE",
"308 481 OFFCURVE",
"308 492 CURVE SMOOTH",
"308 495 OFFCURVE",
"309 498 OFFCURVE",
"311 502 CURVE",
"309 511 LINE",
"309 515 LINE",
"312 487 OFFCURVE",
"332 457 OFFCURVE",
"332 426 CURVE SMOOTH",
"332 420 LINE",
"344 384 OFFCURVE",
"348 338 OFFCURVE",
"359 299 CURVE",
"359 296 OFFCURVE",
"355 296 OFFCURVE",
"355 293 CURVE SMOOTH",
"355 292 OFFCURVE",
"356 291 OFFCURVE",
"357 290 CURVE",
"356 289 OFFCURVE",
"355 288 OFFCURVE",
"354 288 CURVE",
"351 293 OFFCURVE",
"352 298 OFFCURVE",
"349 305 CURVE",
"351 305 LINE",
"351 308 LINE SMOOTH",
"351 313 OFFCURVE",
"347 318 OFFCURVE",
"344 322 CURVE",
"327 371 OFFCURVE",
"318 395 OFFCURVE",
"317 395 CURVE",
"319 388 LINE",
"343 288 OFFCURVE",
"354 267 OFFCURVE",
"354 247 CURVE SMOOTH",
"354 244 LINE SMOOTH",
"354 215 OFFCURVE",
"392 132 OFFCURVE",
"405 50 CURVE SMOOTH",
"410 20 LINE"
);
},
{
closed = 1;
nodes = (
"212 495 OFFCURVE",
"210 484 OFFCURVE",
"210 479 CURVE SMOOTH",
"210 476 OFFCURVE",
"210 474 OFFCURVE",
"211 473 CURVE",
"206 468 OFFCURVE",
"204 464 OFFCURVE",
"204 461 CURVE SMOOTH",
"204 456 LINE SMOOTH",
"204 449 OFFCURVE",
"202 437 OFFCURVE",
"198 420 CURVE SMOOTH",
"183 360 OFFCURVE",
"185 322 OFFCURVE",
"182 311 CURVE",
"181 312 LINE",
"180 311 OFFCURVE",
"180 310 OFFCURVE",
"180 308 CURVE SMOOTH",
"180 304 LINE SMOOTH",
"180 301 OFFCURVE",
"177 301 OFFCURVE",
"177 294 CURVE SMOOTH",
"177 289 OFFCURVE",
"178 287 OFFCURVE",
"181 287 CURVE SMOOTH",
"194 287 LINE SMOOTH",
"209 287 OFFCURVE",
"229 285 OFFCURVE",
"244 285 CURVE SMOOTH",
"248 285 OFFCURVE",
"252 286 OFFCURVE",
"256 286 CURVE",
"259 288 LINE",
"247 328 OFFCURVE",
"245 390 OFFCURVE",
"224 479 CURVE",
"222 490 OFFCURVE",
"219 495 OFFCURVE",
"216 495 CURVE SMOOTH"
);
},
{
closed = 1;
nodes = (
"248 293 LINE",
"191 293 LINE",
"187 304 LINE",
"185 303 LINE",
"187 307 LINE",
"189 305 LINE",
"192 321 OFFCURVE",
"208 423 OFFCURVE",
"208 439 CURVE SMOOTH",
"208 447 LINE SMOOTH",
"208 458 OFFCURVE",
"214 463 OFFCURVE",
"217 470 CURVE",
"219 469 OFFCURVE",
"220 466 OFFCURVE",
"220 463 CURVE SMOOTH",
"220 458 LINE",
"244 417 OFFCURVE",
"239 319 OFFCURVE",
"252 296 CURVE"
);
},
{
closed = 1;
nodes = (
"44 242 LINE",
"55 289 OFFCURVE",
"59 336 OFFCURVE",
"74 383 CURVE",
"67 339 OFFCURVE",
"60 288 OFFCURVE",
"49 243 CURVE"
);
}
);
width = 434;
}
);
leftKerningGroup = A;
note = A;
rightKerningGroup = A;
unicode = 0041;
},
{
glyphname = B;
layers = (
{
hints = (
{
horizontal = 1;
place = "{-16, 148}";
type = Stem;
},
{
horizontal = 1;
place = "{410, 150}";
type = Stem;
},
{
horizontal = 1;
place = "{691, 20}";
type = Stem;
},
{
place = "{46, 129}";
type = Stem;
},
{
place = "{289, 27}";
type = Stem;
},
{
place = "{414, 30}";
type = Stem;
},
{
place = "{449, 21}";
type = Stem;
},
{
horizontal = 1;
place = "{-11, 21}";
target = up;
type = BottomGhost;
},
{
horizontal = 1;
place = "{547, 164}";
type = Stem;
}
);
layerId = "CFE16014-3183-49EF-AD56-7F9496F8AA7E";
paths = (
{
closed = 1;
nodes = (
"453 221 LINE",
"452 222 LINE",
"425 302 OFFCURVE",
"366 333 OFFCURVE",
"365 333 CURVE",
"362 336 LINE SMOOTH",
"357 341 OFFCURVE",
"355 345 OFFCURVE",
"355 350 CURVE SMOOTH",
"355 352 OFFCURVE",
"356 354 OFFCURVE",
"358 356 CURVE",
"407 391 OFFCURVE",
"444 439 OFFCURVE",
"444 507 CURVE SMOOTH",
"444 534 OFFCURVE",
"439 562 OFFCURVE",
"428 589 CURVE",
"391 660 OFFCURVE",
"358 711 OFFCURVE",
"244 711 CURVE SMOOTH",
"192 711 OFFCURVE",
"138 701 OFFCURVE",
"86 701 CURVE SMOOTH",
"79 701 OFFCURVE",
"74 702 OFFCURVE",
"67 702 CURVE",
"59 699 OFFCURVE",
"49 701 OFFCURVE",
"44 692 CURVE",
"43 648 LINE",
"45 591 OFFCURVE",
"46 533 OFFCURVE",
"46 476 CURVE SMOOTH",
"46 355 OFFCURVE",
"43 233 OFFCURVE",
"43 112 CURVE SMOOTH",
"43 52 LINE SMOOTH",
"43 32 OFFCURVE",
"43 12 OFFCURVE",
"44 -7 CURVE",
"59 -14 OFFCURVE",
"77 -16 OFFCURVE",
"96 -16 CURVE SMOOTH",
"125 -16 OFFCURVE",
"156 -11 OFFCURVE",
"183 -11 CURVE",
"207 -14 OFFCURVE",
"234 -16 OFFCURVE",
"261 -16 CURVE SMOOTH",
"292 -16 OFFCURVE",
"321 -12 OFFCURVE",
"348 0 CURVE",
"351 -4 LINE",
"374 8 OFFCURVE",
"392 17 OFFCURVE",
"403 24 CURVE SMOOTH",
"424 37 OFFCURVE",
"466 118 OFFCURVE",
"466 115 CURVE",
"468 117 LINE",
"468 122 LINE",
"469 137 OFFCURVE",
"470 149 OFFCURVE",
"470 160 CURVE SMOOTH",
"470 187 OFFCURVE",
"458 209 OFFCURVE",
"453 220 CURVE"
);
},
{
closed = 1;
nodes = (
"352 333 LINE",
"351 333 OFFCURVE",
"351 333 OFFCURVE",
"351 332 CURVE SMOOTH",
"351 331 OFFCURVE",
"355 329 OFFCURVE",
"362 325 CURVE SMOOTH",
"445 277 OFFCURVE",
"449 190 OFFCURVE",
"449 166 CURVE SMOOTH",
"449 102 OFFCURVE",
"427 89 OFFCURVE",
"366 28 CURVE",
"361 7 OFFCURVE",
"276 3 OFFCURVE",
"232 3 CURVE SMOOTH",
"203 3 OFFCURVE",
"174 4 OFFCURVE",
"145 4 CURVE SMOOTH",
"120 4 OFFCURVE",
"97 3 OFFCURVE",
"74 1 CURVE",
"86 4 LINE",
"61 5 LINE",
"62 6 OFFCURVE",
"62 10 OFFCURVE",
"62 16 CURVE SMOOTH",
"62 31 LINE SMOOTH",
"62 50 OFFCURVE",
"61 71 OFFCURVE",
"61 90 CURVE SMOOTH",
"61 102 OFFCURVE",
"63 113 OFFCURVE",
"63 122 CURVE SMOOTH",
"63 126 OFFCURVE",
"62 130 OFFCURVE",
"62 133 CURVE SMOOTH",
"62 136 OFFCURVE",
"63 139 OFFCURVE",
"64 140 CURVE",
"65 136 OFFCURVE",
"66 134 OFFCURVE",
"66 135 CURVE",
"67 135 LINE",
"67 174 OFFCURVE",
"66 213 OFFCURVE",
"66 253 CURVE SMOOTH",
"66 300 OFFCURVE",
"67 345 OFFCURVE",
"72 389 CURVE",
"67 458 OFFCURVE",
"70 491 OFFCURVE",
"67 608 CURVE",
"67 675 LINE",
"68 676 OFFCURVE",
"68 678 OFFCURVE",
"68 682 CURVE SMOOTH",
"68 686 LINE",
"68 686 OFFCURVE",
"83 692 OFFCURVE",
"187 691 CURVE SMOOTH",
"230 691 OFFCURVE",
"288 685 OFFCURVE",
"323 669 CURVE",
"356 658 OFFCURVE",
"414 598 OFFCURVE",
"414 507 CURVE SMOOTH",
"414 491 LINE",
"415 490 OFFCURVE",
"415 486 OFFCURVE",
"415 481 CURVE SMOOTH",
"415 473 LINE SMOOTH",
"415 405 OFFCURVE",
"358 396 OFFCURVE",
"334 356 CURVE",
"334 348 OFFCURVE",
"338 342 OFFCURVE",
"346 337 CURVE SMOOTH"
);
},
{
closed = 1;
nodes = (
"168 552 OFFCURVE",
"165 545 OFFCURVE",
"165 536 CURVE SMOOTH",
"165 529 OFFCURVE",
"166 522 OFFCURVE",
"166 515 CURVE",
"169 527 LINE",
"170 522 OFFCURVE",
"171 518 OFFCURVE",
"171 516 CURVE SMOOTH",
"171 506 LINE SMOOTH",
"171 483 OFFCURVE",
"166 464 OFFCURVE",
"166 441 CURVE SMOOTH",
"166 410 OFFCURVE",
"180 410 OFFCURVE",
"203 410 CURVE SMOOTH",
"248 410 OFFCURVE",
"318 421 OFFCURVE",
"318 496 CURVE SMOOTH",
"318 548 OFFCURVE",
"254 560 OFFCURVE",
"216 560 CURVE SMOOTH",
"201 560 OFFCURVE",
"186 558 OFFCURVE",
"173 557 CURVE"
);
},
{
closed = 1;
nodes = (
"284 444 LINE",
"265 421 OFFCURVE",
"239 419 OFFCURVE",
"211 419 CURVE SMOOTH",
"200 419 OFFCURVE",
"189 420 OFFCURVE",
"178 420 CURVE",
"176 434 OFFCURVE",
"175 450 OFFCURVE",
"175 467 CURVE SMOOTH",
"175 494 OFFCURVE",
"177 521 OFFCURVE",
"177 545 CURVE",
"184 546 OFFCURVE",
"188 547 OFFCURVE",
"191 547 CURVE SMOOTH",
"206 547 OFFCURVE",
"223 541 OFFCURVE",
"240 541 CURVE SMOOTH",
"261 541 OFFCURVE",
"297 527 OFFCURVE",
"297 498 CURVE SMOOTH",
"297 475 OFFCURVE",
"284 453 OFFCURVE",
"264 438 CURVE"
);
},
{
closed = 1;
nodes = (
"228 289 OFFCURVE",
"198 288 OFFCURVE",
"167 291 CURVE",
"161 130 LINE",
"175 121 LINE",
"228 124 OFFCURVE",
"316 108 OFFCURVE",
"316 197 CURVE SMOOTH",
"316 240 OFFCURVE",
"292 276 OFFCURVE",
"259 281 CURVE"
);
},
{
closed = 1;
nodes = (
"262 136 OFFCURVE",
"234 132 OFFCURVE",
"217 132 CURVE SMOOTH",
"201 132 OFFCURVE",
"195 135 OFFCURVE",
"187 135 CURVE SMOOTH",
"180 135 LINE SMOOTH",
"177 135 OFFCURVE",
"176 135 OFFCURVE",
"175 136 CURVE",
"178 142 OFFCURVE",
"179 153 OFFCURVE",
"179 168 CURVE SMOOTH",
"179 176 OFFCURVE",
"178 188 OFFCURVE",
"178 205 CURVE SMOOTH",
"178 262 LINE",
"215 259 OFFCURVE",
"289 273 OFFCURVE",
"289 204 CURVE SMOOTH",
"289 188 OFFCURVE",
"285 172 OFFCURVE",
"274 159 CURVE"
);
}
);
width = 477;
}
);
note = B;
rightKerningGroup = B;
unicode = 0042;
},
{
glyphname = C;
layers = (
{
hints = (
{
horizontal = 1;
place = "{-16, 21}";
target = up;
type = BottomGhost;
},
{
horizontal = 1;
place = "{119, 29}";
type = Stem;
},
{
horizontal = 1;
place = "{255, 27}";
type = Stem;
},
{
horizontal = 1;
place = "{419, 167}";
type = Stem;
},
{
horizontal = 1;
place = "{699, 22}";
type = Stem;
},
{
place = "{53, 113}";
type = Stem;
},
{
place = "{36, 146}";
type = Stem;
},
{
horizontal = 1;
place = "{561, 25}";
type = Stem;
},
{
horizontal = 1;
place = "{255, 180}";
type = Stem;
},
{
place = "{28, 138}";
type = Stem;
}
);
layerId = "CFE16014-3183-49EF-AD56-7F9496F8AA7E";
paths = (
{
closed = 1;
nodes = (
"443 285 OFFCURVE",
"439 283 OFFCURVE",
"432 282 CURVE",
"330 285 OFFCURVE",
"351 282 OFFCURVE",
"329 285 CURVE",
"321 226 OFFCURVE",
"334 148 OFFCURVE",
"254 148 CURVE SMOOTH",
"189 148 OFFCURVE",
"182 235 OFFCURVE",
"182 303 CURVE SMOOTH",
"182 383 OFFCURVE",
"185 444 OFFCURVE",
"190 524 CURVE",
"202 540 LINE",
"218 554 OFFCURVE",
"235 561 OFFCURVE",
"254 561 CURVE SMOOTH",
"325 561 OFFCURVE",
"311 472 OFFCURVE",
"316 429 CURVE SMOOTH",
"317 420 OFFCURVE",
"327 421 OFFCURVE",
"334 418 CURVE",
"341 418 OFFCURVE",
"348 419 OFFCURVE",
"355 419 CURVE SMOOTH",
"378 419 OFFCURVE",
"399 416 OFFCURVE",
"422 416 CURVE SMOOTH",
"437 416 OFFCURVE",
"451 417 OFFCURVE",
"467 420 CURVE",
"466 421 OFFCURVE",
"466 426 OFFCURVE",
"466 434 CURVE SMOOTH",
"466 465 OFFCURVE",
"474 493 OFFCURVE",
"475 524 CURVE",
"466 571 OFFCURVE",
"447 614 OFFCURVE",
"416 654 CURVE",
"400 684 OFFCURVE",
"364 687 OFFCURVE",
"343 708 CURVE",
"298 723 OFFCURVE",
"262 718 OFFCURVE",
"211 721 CURVE",
"170 720 OFFCURVE",
"134 721 OFFCURVE",
"102 702 CURVE",
"66 659 OFFCURVE",
"47 608 OFFCURVE",
"34 557 CURVE",
"35 544 OFFCURVE",
"36 532 OFFCURVE",
"36 519 CURVE SMOOTH",
"36 481 LINE SMOOTH",
"36 409 OFFCURVE",
"31 337 OFFCURVE",
"28 267 CURVE",
"29 275 OFFCURVE",
"30 281 OFFCURVE",
"32 287 CURVE",
"33 285 LINE",
"36 162 OFFCURVE",
"28 -15 OFFCURVE",
"182 -15 CURVE SMOOTH",
"187 -15 OFFCURVE",
"193 -13 OFFCURVE",
"193 -6 CURVE",
"233 -15 LINE",
"235 -16 OFFCURVE",
"250 -16 OFFCURVE",
"278 -16 CURVE SMOOTH",
"353 -16 OFFCURVE",
"470 66 OFFCURVE",
"470 174 CURVE SMOOTH",
"470 209 OFFCURVE",
"464 244 OFFCURVE",
"464 279 CURVE",
"459 283 OFFCURVE",
"453 285 OFFCURVE",
"448 285 CURVE SMOOTH"
);
},
{
closed = 1;
nodes = (
"438 116 LINE",
"414 41 OFFCURVE",
"330 4 OFFCURVE",
"263 4 CURVE SMOOTH",
"127 4 OFFCURVE",
"53 93 OFFCURVE",
"53 170 CURVE SMOOTH",
"53 181 OFFCURVE",
"54 191 OFFCURVE",
"57 198 CURVE",
"53 214 LINE",
"54 219 OFFCURVE",
"54 225 OFFCURVE",
"54 230 CURVE SMOOTH",
"54 289 LINE SMOOTH",
"54 296 OFFCURVE",
"55 301 OFFCURVE",
"56 308 CURVE",
"54 307 LINE",
"53 307 OFFCURVE",
"53 308 OFFCURVE",
"53 310 CURVE SMOOTH",
"53 313 OFFCURVE",
"54 319 OFFCURVE",
"56 329 CURVE",
"51 332 LINE",
"51 347 OFFCURVE",
"50 360 OFFCURVE",
"50 375 CURVE SMOOTH",
"50 400 OFFCURVE",
"51 425 OFFCURVE",
"53 450 CURVE SMOOTH",
"57 509 LINE",
"60 505 OFFCURVE",
"57 500 OFFCURVE",
"60 500 CURVE",
"71 552 OFFCURVE",
"48 617 OFFCURVE",
"95 656 CURVE",
"111 667 LINE",
"113 665 LINE",
"118 665 OFFCURVE",
"119 674 OFFCURVE",
"126 675 CURVE",
"157 691 OFFCURVE",
"193 699 OFFCURVE",
"229 699 CURVE SMOOTH",
"274 699 OFFCURVE",
"319 687 OFFCURVE",
"358 668 CURVE",
"410 614 OFFCURVE",
"453 576 OFFCURVE",
"453 496 CURVE SMOOTH",
"453 476 OFFCURVE",
"449 459 OFFCURVE",
"449 439 CURVE",
"443 435 LINE",
"332 435 LINE",
"324 492 OFFCURVE",
"332 586 OFFCURVE",
"253 586 CURVE SMOOTH",
"234 586 OFFCURVE",
"228 577 OFFCURVE",
"211 577 CURVE SMOOTH",
"206 577 LINE",
"170 532 OFFCURVE",
"167 478 OFFCURVE",
"167 418 CURVE SMOOTH",
"167 354 LINE SMOOTH",
"167 347 OFFCURVE",
"167 340 OFFCURVE",
"166 333 CURVE",
"166 298 LINE",
"169 231 OFFCURVE",
"172 119 OFFCURVE",
"261 119 CURVE SMOOTH",
"271 119 OFFCURVE",
"278 120 OFFCURVE",
"283 123 CURVE",
"296 144 OFFCURVE",
"322 154 OFFCURVE",
"333 175 CURVE",
"333 202 OFFCURVE",
"344 224 OFFCURVE",
"345 251 CURVE",
"346 250 OFFCURVE",
"350 250 OFFCURVE",
"357 250 CURVE SMOOTH",
"374 250 OFFCURVE",
"394 255 OFFCURVE",
"411 255 CURVE SMOOTH",
"435 255 OFFCURVE",
"448 244 OFFCURVE",
"448 201 CURVE SMOOTH",
"448 172 OFFCURVE",
"447 146 OFFCURVE",
"434 117 CURVE"
);
},
{
closed = 1;
nodes = (
"28 267 LINE",
"28 263 OFFCURVE",
"28 259 OFFCURVE",
"28 254 CURVE"
);
},
{
closed = 1;
nodes = (
"33 195 LINE",
"30 214 OFFCURVE",
"28 233 OFFCURVE",
"28 252 CURVE SMOOTH",
"28 254 LINE",
"27 234 OFFCURVE",
"27 215 OFFCURVE",
"27 196 CURVE"
);
}
);
width = 488;
}
);
leftKerningGroup = C;
note = C;
rightKerningGroup = C;
unicode = 0043;
},
{
glyphname = D;
layers = (
{
hints = (
{
horizontal = 1;
place = "{-1, 21}";
target = up;
type = BottomGhost;
},
{
horizontal = 1;
place = "{481, 221}";
type = Stem;
},
{
place = "{38, 145}";
type = Stem;
},
{
horizontal = 1;
place = "{1, 27}";
type = Stem;
},
{
place = "{181, 150}";
type = Stem;
},
{
place = "{321, 139}";
type = Stem;
},
{
horizontal = 1;
place = "{1, 213}";
type = Stem;
}
);
layerId = "CFE16014-3183-49EF-AD56-7F9496F8AA7E";
paths = (
{
closed = 1;
nodes = (
"435 552 OFFCURVE",
"386 680 OFFCURVE",
"281 702 CURVE",
"260 702 LINE SMOOTH",
"228 702 OFFCURVE",
"196 703 OFFCURVE",
"164 703 CURVE SMOOTH",
"127 703 LINE SMOOTH",
"87 703 OFFCURVE",
"39 700 OFFCURVE",
"39 681 CURVE",
"38 673 OFFCURVE",
"38 665 OFFCURVE",
"38 657 CURVE SMOOTH",
"38 633 LINE SMOOTH",
"38 561 OFFCURVE",
"44 492 OFFCURVE",
"44 420 CURVE SMOOTH",
"44 395 LINE SMOOTH",
"44 387 OFFCURVE",
"42 373 OFFCURVE",
"39 352 CURVE",
"39 349 OFFCURVE",
"41 348 OFFCURVE",
"41 347 CURVE SMOOTH",
"41 346 OFFCURVE",
"40 345 OFFCURVE",
"38 344 CURVE",
"39 291 OFFCURVE",
"43 243 OFFCURVE",
"46 192 CURVE",
"44 181 OFFCURVE",
"43 170 OFFCURVE",
"43 160 CURVE SMOOTH",
"43 128 OFFCURVE",
"49 95 OFFCURVE",
"49 62 CURVE SMOOTH",
"49 59 OFFCURVE",
"40 28 OFFCURVE",
"40 25 CURVE SMOOTH",
"40 24 OFFCURVE",
"40 24 OFFCURVE",
"41 24 CURVE SMOOTH",
"42 24 OFFCURVE",
"42 24 OFFCURVE",
"43 25 CURVE",
"46 25 OFFCURVE",
"50 16 OFFCURVE",
"50 15 CURVE SMOOTH",
"50 14 OFFCURVE",
"49 13 OFFCURVE",
"47 12 CURVE",
"51 9 OFFCURVE",
"51 -1 OFFCURVE",
"56 -1 CURVE SMOOTH",
"59 -1 OFFCURVE",
"59 1 OFFCURVE",
"62 1 CURVE SMOOTH",
"65 1 OFFCURVE",
"69 -1 OFFCURVE",
"72 -1 CURVE SMOOTH",
"73 -1 OFFCURVE",
"75 0 OFFCURVE",
"76 2 CURVE",
"81 2 OFFCURVE",
"90 2 OFFCURVE",
"105 1 CURVE",
"116 1 LINE SMOOTH",
"188 1 OFFCURVE",
"262 3 OFFCURVE",
"330 3 CURVE",
"378 27 OFFCURVE",
"408 86 OFFCURVE",
"418 133 CURVE",
"458 197 OFFCURVE",
"460 291 OFFCURVE",
"460 371 CURVE SMOOTH",
"460 398 OFFCURVE",
"459 422 OFFCURVE",
"456 449 CURVE"
);
},
{
closed = 1;
nodes = (
"447 273 LINE",
"444 248 OFFCURVE",
"447 226 OFFCURVE",
"440 203 CURVE",
"437 191 OFFCURVE",
"429 183 OFFCURVE",
"429 172 CURVE SMOOTH",
"429 169 OFFCURVE",
"429 167 OFFCURVE",
"430 166 CURVE",
"406 131 OFFCURVE",
"383 85 OFFCURVE",
"354 52 CURVE",
"349 47 OFFCURVE",
"349 35 OFFCURVE",
"344 35 CURVE",
"341 38 LINE",
"340 31 OFFCURVE",
"337 30 OFFCURVE",
"337 26 CURVE SMOOTH",
"337 25 OFFCURVE",
"337 24 OFFCURVE",
"338 23 CURVE",
"326 23 OFFCURVE",
"307 28 OFFCURVE",
"292 28 CURVE SMOOTH",
"286 28 OFFCURVE",
"283 28 OFFCURVE",
"282 27 CURVE",
"281 31 OFFCURVE",
"278 33 OFFCURVE",
"274 33 CURVE SMOOTH",
"271 33 OFFCURVE",
"269 32 OFFCURVE",
"266 29 CURVE",
"246 31 LINE",
"246 26 LINE",
"226 26 LINE",
"231 28 LINE",
"218 28 OFFCURVE",
"131 20 OFFCURVE",
"110 20 CURVE SMOOTH",
"99 20 OFFCURVE",
"92 23 OFFCURVE",
"81 23 CURVE SMOOTH",
"78 23 OFFCURVE",
"75 22 OFFCURVE",
"72 22 CURVE",
"71 25 LINE",
"72 25 LINE SMOOTH",
"75 25 OFFCURVE",
"73 26 OFFCURVE",
"76 27 CURVE",
"75 27 OFFCURVE",
"75 28 OFFCURVE",
"75 29 CURVE SMOOTH",
"75 32 OFFCURVE",
"79 33 OFFCURVE",
"79 36 CURVE SMOOTH",
"79 52 LINE SMOOTH",
"79 63 OFFCURVE",
"78 77 OFFCURVE",
"76 93 CURVE",
"73 82 LINE",
"70 85 OFFCURVE",
"68 93 OFFCURVE",
"67 100 CURVE",
"66 93 OFFCURVE",
"65 85 OFFCURVE",
"65 78 CURVE SMOOTH",
"65 67 OFFCURVE",
"66 57 OFFCURVE",
"68 48 CURVE",
"56 67 OFFCURVE",
"63 95 OFFCURVE",
"58 118 CURVE",
"54 119 OFFCURVE",
"52 123 OFFCURVE",
"52 130 CURVE SMOOTH",
"52 137 OFFCURVE",
"57 143 OFFCURVE",
"57 146 CURVE",
"55 149 LINE",
"53 147 LINE",
"53 152 LINE",
"55 152 LINE",
"54 163 LINE",
"54 169 LINE SMOOTH",
"54 170 OFFCURVE",
"54 171 OFFCURVE",
"55 172 CURVE",
"57 294 LINE",
"59 448 LINE",
"59 470 LINE",
"62 509 OFFCURVE",
"63 531 OFFCURVE",
"63 542 CURVE SMOOTH",
"63 559 LINE SMOOTH",
"63 588 OFFCURVE",
"66 616 OFFCURVE",
"66 644 CURVE",
"64 678 LINE",
"105 681 OFFCURVE",
"129 685 OFFCURVE",
"194 685 CURVE SMOOTH",
"236 685 OFFCURVE",
"287 689 OFFCURVE",
"327 641 CURVE",
"364 622 OFFCURVE",
"386 590 OFFCURVE",
"405 555 CURVE",
"409 553 LINE",
"438 497 OFFCURVE",
"452 432 OFFCURVE",
"452 364 CURVE SMOOTH",
"452 333 OFFCURVE",
"449 303 OFFCURVE",
"443 274 CURVE"
);
},
{
closed = 1;
nodes = (
"316 418 OFFCURVE",
"307 474 OFFCURVE",
"256 487 CURVE",
"243 487 OFFCURVE",
"230 488 OFFCURVE",
"215 488 CURVE SMOOTH",
"197 488 LINE SMOOTH",
"182 488 OFFCURVE",
"179 487 OFFCURVE",
"179 472 CURVE SMOOTH",
"179 459 LINE SMOOTH",
"179 429 OFFCURVE",
"181 419 OFFCURVE",
"181 374 CURVE SMOOTH",
"181 343 OFFCURVE",
"180 300 OFFCURVE",
"180 268 CURVE SMOOTH",
"180 253 LINE SMOOTH",
"180 242 OFFCURVE",
"177 235 OFFCURVE",
"177 227 CURVE SMOOTH",
"177 208 OFFCURVE",
"193 208 OFFCURVE",
"208 208 CURVE SMOOTH",
"223 208 OFFCURVE",
"236 209 OFFCURVE",
"255 210 CURVE",
"305 226 OFFCURVE",
"331 297 OFFCURVE",
"331 354 CURVE SMOOTH",
"331 362 OFFCURVE",
"330 370 OFFCURVE",
"329 378 CURVE"
);
},
{
closed = 1;
nodes = (
"239 214 OFFCURVE",
"230 214 OFFCURVE",
"218 214 CURVE SMOOTH",
"203 214 OFFCURVE",
"193 214 OFFCURVE",
"185 218 CURVE",
"182 260 LINE",
"183 268 OFFCURVE",
"183 277 OFFCURVE",
"183 286 CURVE SMOOTH",
"183 460 LINE SMOOTH",
"183 474 OFFCURVE",
"187 481 OFFCURVE",
"196 481 CURVE SMOOTH",
"199 481 OFFCURVE",
"202 480 OFFCURVE",
"205 480 CURVE SMOOTH",
"210 480 OFFCURVE",
"212 483 OFFCURVE",
"216 483 CURVE SMOOTH",
"219 483 OFFCURVE",
"223 478 OFFCURVE",
"227 478 CURVE SMOOTH",
"230 478 OFFCURVE",
"237 479 OFFCURVE",
"244 479 CURVE SMOOTH",
"252 479 OFFCURVE",
"260 477 OFFCURVE",
"260 469 CURVE",
"303 445 OFFCURVE",
"318 388 OFFCURVE",
"321 332 CURVE",
"310 294 OFFCURVE",
"319 273 OFFCURVE",
"274 225 CURVE"
);
},
{
closed = 1;
nodes = (
"449 251 LINE",
"447 248 LINE",
"447 251 LINE"
);
}
);
width = 482;
}
);
note = D;
rightKerningGroup = D;
unicode = 0044;
},
{
glyphname = E;
layers = (
{
hints = (
{
horizontal = 1;
place = "{3, 136}";
type = Stem;
},
{
horizontal = 1;
place = "{398, 162}";
type = Stem;
},
{
place = "{46, 29}";
type = Stem;
},
{
place = "{173, 151}";
type = Stem;
},
{
place = "{173, 26}";
type = Stem;
},
{
horizontal = 1;
place = "{539, 151}";
type = Stem;
},
{
horizontal = 1;
place = "{705, -20}";
target = down;
type = TopGhost;
},
{
horizontal = 1;
place = "{0, 21}";
target = up;
type = BottomGhost;
},
{
horizontal = 1;
place = "{3, 20}";
type = Stem;
}
);
layerId = "CFE16014-3183-49EF-AD56-7F9496F8AA7E";
paths = (
{
closed = 1;
nodes = (
"463 137 LINE",
"459 142 LINE",
"431 140 OFFCURVE",
"403 139 OFFCURVE",
"375 139 CURVE SMOOTH",
"319 139 OFFCURVE",
"264 142 OFFCURVE",
"204 142 CURVE",
"200 144 LINE",
"200 147 OFFCURVE",
"202 146 OFFCURVE",
"203 149 CURVE",
"200 159 OFFCURVE",
"199 173 OFFCURVE",
"199 192 CURVE SMOOTH",
"199 261 LINE",
"202 266 LINE",
"204 268 OFFCURVE",
"205 270 OFFCURVE",
"205 271 CURVE SMOOTH",
"205 274 OFFCURVE",
"275 274 OFFCURVE",
"288 274 CURVE SMOOTH",
"302 274 OFFCURVE",
"314 273 OFFCURVE",
"323 271 CURVE",
"323 307 OFFCURVE",
"324 349 OFFCURVE",
"324 380 CURVE SMOOTH",
"324 401 OFFCURVE",
"323 413 OFFCURVE",
"321 417 CURVE",
"200 418 LINE",
"196 422 LINE",
"195 431 OFFCURVE",
"194 440 OFFCURVE",
"194 449 CURVE SMOOTH",
"194 472 OFFCURVE",
"197 492 OFFCURVE",
"197 515 CURVE SMOOTH",
"197 522 OFFCURVE",
"196 527 OFFCURVE",
"196 534 CURVE",
"198 538 LINE",
"313 541 LINE",
"321 540 OFFCURVE",
"329 539 OFFCURVE",
"336 539 CURVE",
"404 542 OFFCURVE",
"444 544 OFFCURVE",
"461 547 CURVE",
"461 552 LINE SMOOTH",
"461 559 OFFCURVE",
"462 567 OFFCURVE",
"463 574 CURVE",
"462 576 OFFCURVE",
"462 580 OFFCURVE",
"462 585 CURVE SMOOTH",
"462 597 LINE SMOOTH",
"462 616 OFFCURVE",
"463 634 OFFCURVE",
"463 653 CURVE SMOOTH",
"463 666 OFFCURVE",
"463 679 OFFCURVE",
"460 691 CURVE",
"464 695 OFFCURVE",
"466 698 OFFCURVE",
"466 700 CURVE SMOOTH",
"466 703 OFFCURVE",
"465 704 OFFCURVE",
"462 705 CURVE",
"439 702 OFFCURVE",
"419 701 OFFCURVE",
"396 701 CURVE",
"396 699 LINE",
"401 699 LINE SMOOTH",
"408 699 OFFCURVE",
"415 700 OFFCURVE",
"422 700 CURVE SMOOTH",
"429 700 OFFCURVE",
"436 698 OFFCURVE",
"441 695 CURVE",
"438 693 LINE",
"405 691 OFFCURVE",
"370 690 OFFCURVE",
"334 690 CURVE SMOOTH",
"307 690 OFFCURVE",
"288 691 OFFCURVE",
"251 691 CURVE SMOOTH",
"221 691 LINE SMOOTH",
"214 691 OFFCURVE",
"209 692 OFFCURVE",
"206 694 CURVE",
"40 689 OFFCURVE",
"67 694 OFFCURVE",
"51 686 CURVE",
"47 650 OFFCURVE",
"46 611 OFFCURVE",
"46 572 CURVE SMOOTH",
"46 504 OFFCURVE",
"42 439 OFFCURVE",
"42 379 CURVE SMOOTH",
"42 303 OFFCURVE",
"50 229 OFFCURVE",
"50 149 CURVE SMOOTH",
"50 129 OFFCURVE",
"49 109 OFFCURVE",
"48 88 CURVE",
"49 87 OFFCURVE",
"49 84 OFFCURVE",
"49 80 CURVE SMOOTH",
"49 72 LINE SMOOTH",
"49 60 OFFCURVE",
"47 48 OFFCURVE",
"47 36 CURVE SMOOTH",
"47 29 OFFCURVE",
"48 25 OFFCURVE",
"49 18 CURVE",
"48 17 OFFCURVE",
"48 15 OFFCURVE",
"48 13 CURVE SMOOTH",
"48 12 OFFCURVE",
"48 12 OFFCURVE",
"47 11 CURVE",
"47 6 OFFCURVE",
"61 0 OFFCURVE",
"112 0 CURVE SMOOTH",
"136 0 OFFCURVE",
"151 4 OFFCURVE",
"168 4 CURVE SMOOTH",
"177 4 LINE SMOOTH",
"182 4 OFFCURVE",
"185 4 OFFCURVE",
"186 3 CURVE",
"455 4 LINE",
"461 11 LINE",
"461 43 OFFCURVE",
"465 72 OFFCURVE",
"465 103 CURVE"
);
},
{
closed = 1;
nodes = (
"415 23 LINE",
"266 20 OFFCURVE",
"191 19 OFFCURVE",
"190 19 CURVE SMOOTH",
"187 19 OFFCURVE",
"183 21 OFFCURVE",
"180 21 CURVE SMOOTH",
"121 21 LINE SMOOTH",
"110 21 OFFCURVE",
"100 18 OFFCURVE",
"89 18 CURVE SMOOTH",
"84 18 OFFCURVE",
"80 19 OFFCURVE",
"75 21 CURVE",
"75 32 OFFCURVE",
"76 51 OFFCURVE",
"79 78 CURVE",
"79 87 LINE SMOOTH",
"79 92 OFFCURVE",
"79 95 OFFCURVE",
"78 96 CURVE",
"79 95 OFFCURVE",
"79 95 OFFCURVE",
"80 95 CURVE SMOOTH",
"83 95 OFFCURVE",
"84 98 OFFCURVE",
"84 103 CURVE SMOOTH",
"84 115 OFFCURVE",
"64 142 OFFCURVE",
"64 146 CURVE SMOOTH",
"64 147 OFFCURVE",
"64 147 OFFCURVE",
"65 147 CURVE",
"65 151 LINE",
"70 166 OFFCURVE",
"73 177 OFFCURVE",
"74 183 CURVE",
"73 191 OFFCURVE",
"75 200 OFFCURVE",
"72 207 CURVE",
"69 206 LINE",
"69 209 OFFCURVE",
"74 214 OFFCURVE",
"74 219 CURVE SMOOTH",
"74 220 OFFCURVE",
"74 221 OFFCURVE",
"73 221 CURVE",
"74 223 LINE",
"77 223 OFFCURVE",
"75 221 OFFCURVE",
"78 221 CURVE SMOOTH",
"81 221 OFFCURVE",
"82 231 OFFCURVE",
"82 235 CURVE SMOOTH",
"82 243 OFFCURVE",
"81 250 OFFCURVE",
"79 256 CURVE",
"77 255 OFFCURVE",
"76 253 OFFCURVE",
"76 251 CURVE SMOOTH",
"76 248 OFFCURVE",
"77 247 OFFCURVE",
"77 244 CURVE",
"76 244 LINE SMOOTH",
"73 244 OFFCURVE",
"75 242 OFFCURVE",
"72 239 CURVE",
"66 242 OFFCURVE",
"69 229 OFFCURVE",
"66 276 CURVE",
"66 323 LINE",
"72 347 OFFCURVE",
"75 366 OFFCURVE",
"75 380 CURVE SMOOTH",
"75 399 OFFCURVE",
"71 413 OFFCURVE",
"71 421 CURVE",
"72 428 OFFCURVE",
"72 433 OFFCURVE",
"72 438 CURVE SMOOTH",
"72 451 OFFCURVE",
"65 454 OFFCURVE",
"65 461 CURVE SMOOTH",
"65 517 LINE SMOOTH",
"65 526 OFFCURVE",
"64 545 OFFCURVE",
"62 575 CURVE",
"62 580 OFFCURVE",
"62 583 OFFCURVE",
"63 584 CURVE",
"61 652 LINE",
"64 659 LINE",
"129 670 OFFCURVE",
"192 677 OFFCURVE",
"256 677 CURVE SMOOTH",
"281 677 OFFCURVE",
"312 675 OFFCURVE",
"332 675 CURVE SMOOTH",
"349 675 OFFCURVE",
"349 676 OFFCURVE",
"368 676 CURVE SMOOTH",
"395 676 OFFCURVE",
"407 673 OFFCURVE",
"422 673 CURVE SMOOTH",
"429 673 OFFCURVE",
"436 674 OFFCURVE",
"442 676 CURVE",
"444 673 LINE",
"446 564 LINE",
"435 561 OFFCURVE",
"427 561 OFFCURVE",
"418 560 CURVE",
"318 557 OFFCURVE",
"258 555 OFFCURVE",
"231 555 CURVE SMOOTH",
"217 555 LINE",
"204 552 OFFCURVE",
"192 551 OFFCURVE",
"183 551 CURVE SMOOTH",
"177 551 LINE",
"174 545 LINE SMOOTH",
"173 543 OFFCURVE",
"173 539 OFFCURVE",
"173 533 CURVE SMOOTH",
"175 458 LINE",
"173 425 LINE",
"176 423 OFFCURVE",
"177 420 OFFCURVE",
"177 416 CURVE",
"178 405 LINE",
"179 398 OFFCURVE",
"181 392 OFFCURVE",
"190 392 CURVE",
"191 396 OFFCURVE",
"195 398 OFFCURVE",
"202 398 CURVE SMOOTH",
"223 398 OFFCURVE",
"243 394 OFFCURVE",
"263 394 CURVE SMOOTH",
"274 394 OFFCURVE",
"286 395 OFFCURVE",
"297 397 CURVE",
"308 397 OFFCURVE",
"309 359 OFFCURVE",
"309 348 CURVE",
"307 300 LINE",
"307 296 OFFCURVE",
"307 293 OFFCURVE",
"308 292 CURVE",
"302 292 LINE",
"302 294 OFFCURVE",
"301 295 OFFCURVE",
"298 295 CURVE",
"279 292 OFFCURVE",
"175 288 OFFCURVE",
"175 281 CURVE SMOOTH",
"175 278 OFFCURVE",
"172 283 OFFCURVE",
"172 248 CURVE SMOOTH",
"172 233 OFFCURVE",
"177 224 OFFCURVE",
"177 209 CURVE SMOOTH",
"177 152 LINE SMOOTH",
"177 144 OFFCURVE",
"177 139 OFFCURVE",
"178 137 CURVE",
"184 132 LINE",
"183 131 LINE",
"187 126 OFFCURVE",
"192 124 OFFCURVE",
"199 124 CURVE SMOOTH",
"261 124 LINE SMOOTH",
"317 124 OFFCURVE",
"366 123 OFFCURVE",
"422 122 CURVE",
"424 125 OFFCURVE",
"427 126 OFFCURVE",
"430 126 CURVE SMOOTH",
"433 126 OFFCURVE",
"435 125 OFFCURVE",
"438 125 CURVE SMOOTH",
"441 125 OFFCURVE",
"443 126 OFFCURVE",
"445 128 CURVE",
"445 109 OFFCURVE",
"448 87 OFFCURVE",
"448 66 CURVE SMOOTH",
"448 49 OFFCURVE",
"447 36 OFFCURVE",
"444 26 CURVE"
);
}
);
width = 481;
}
);
note = E;
rightKerningGroup = E;
unicode = 0045;
},
{
glyphname = F;
layers = (
{
hints = (
{
horizontal = 1;
place = "{-5, 21}";
target = up;
type = BottomGhost;
},
{
horizontal = 1;
place = "{409, 144}";
type = Stem;
},
{
horizontal = 1;
place = "{662, 29}";
type = Stem;
},
{
place = "{49, 168}";
type = Stem;
},
{
place = "{334, 22}";
type = Stem;
},
{
place = "{461, 28}";
type = Stem;
},
{
horizontal = 1;
place = "{518, -20}";
target = down;
type = TopGhost;
},
{
horizontal = 1;
place = "{521, 32}";
type = Stem;
},
{
horizontal = 1;
place = "{699, -20}";
target = down;
type = TopGhost;
},
{
place = "{44, 161}";
type = Stem;
},
{
horizontal = 1;
place = "{-3, 21}";
target = up;
type = BottomGhost;
},
{
place = "{217, 117}";
type = Stem;
},
{
place = "{69, 136}";
type = Stem;
}
);
layerId = "CFE16014-3183-49EF-AD56-7F9496F8AA7E";
paths = (
{
closed = 1;
nodes = (
"355 261 LINE",
"357 264 LINE",
"359 266 OFFCURVE",
"360 268 OFFCURVE",
"360 271 CURVE SMOOTH",
"360 275 OFFCURVE",
"359 278 OFFCURVE",
"359 281 CURVE SMOOTH",
"359 284 OFFCURVE",
"361 286 OFFCURVE",
"364 288 CURVE",
"364 291 LINE",
"361 292 OFFCURVE",
"359 293 OFFCURVE",
"359 294 CURVE",
"354 399 LINE",
"361 404 OFFCURVE",
"370 399 OFFCURVE",
"375 404 CURVE",
"374 407 OFFCURVE",
"372 406 OFFCURVE",
"372 409 CURVE SMOOTH",
"372 413 LINE SMOOTH",
"372 415 OFFCURVE",
"371 416 OFFCURVE",
"370 416 CURVE SMOOTH",
"367 416 OFFCURVE",
"363 412 OFFCURVE",
"360 412 CURVE SMOOTH",
"359 412 OFFCURVE",
"358 413 OFFCURVE",
"358 414 CURVE",
"359 415 OFFCURVE",
"359 416 OFFCURVE",
"359 417 CURVE SMOOTH",
"359 420 OFFCURVE",
"352 422 OFFCURVE",
"339 422 CURVE SMOOTH",
"324 422 OFFCURVE",
"306 420 OFFCURVE",
"286 420 CURVE SMOOTH",
"251 420 OFFCURVE",
"217 425 OFFCURVE",
"217 450 CURVE SMOOTH",
"217 467 OFFCURVE",
"220 489 OFFCURVE",
"221 490 CURVE",
"223 488 LINE",
"224 489 OFFCURVE",
"224 493 OFFCURVE",
"224 498 CURVE SMOOTH",
"224 506 LINE SMOOTH",
"224 509 OFFCURVE",
"224 518 OFFCURVE",
"228 518 CURVE SMOOTH",
"231 518 OFFCURVE",
"231 517 OFFCURVE",
"234 517 CURVE",
"240 520 OFFCURVE",
"249 521 OFFCURVE",
"261 521 CURVE SMOOTH",
"271 521 OFFCURVE",
"283 520 OFFCURVE",
"296 518 CURVE",
"416 529 OFFCURVE",
"410 521 OFFCURVE",
"442 529 CURVE",
"445 533 OFFCURVE",
"450 535 OFFCURVE",
"458 535 CURVE SMOOTH",
"469 535 OFFCURVE",
"471 529 OFFCURVE",
"474 521 CURVE",
"475 524 OFFCURVE",
"476 525 OFFCURVE",
"478 526 CURVE",
"485 529 LINE",
"490 532 OFFCURVE",
"495 535 OFFCURVE",
"495 547 CURVE SMOOTH",
"495 550 LINE",
"487 552 LINE",
"487 555 OFFCURVE",
"488 558 OFFCURVE",
"489 559 CURVE",
"490 658 LINE",
"488 666 LINE",
"488 673 OFFCURVE",
"495 664 OFFCURVE",
"495 675 CURVE",
"491 676 LINE",
"481 699 LINE",
"476 696 OFFCURVE",
"479 693 OFFCURVE",
"476 690 CURVE",
"362 693 LINE",
"279 690 OFFCURVE",
"223 686 OFFCURVE",
"104 686 CURVE SMOOTH",
"95 686 OFFCURVE",
"86 686 OFFCURVE",
"77 687 CURVE",
"80 690 OFFCURVE",
"87 688 OFFCURVE",
"92 691 CURVE",
"84 691 LINE SMOOTH",
"73 691 OFFCURVE",
"67 694 OFFCURVE",
"56 694 CURVE",
"56 695 LINE",
"51 691 OFFCURVE",
"50 676 OFFCURVE",
"46 676 CURVE SMOOTH",
"43 676 OFFCURVE",
"41 678 OFFCURVE",
"38 678 CURVE SMOOTH",
"37 678 OFFCURVE",
"36 677 OFFCURVE",
"35 675 CURVE",
"43 671 LINE",
"47 621 OFFCURVE",
"49 572 OFFCURVE",
"49 524 CURVE SMOOTH",
"49 444 OFFCURVE",
"40 338 OFFCURVE",
"40 293 CURVE SMOOTH",
"40 265 OFFCURVE",
"45 259 OFFCURVE",
"46 259 CURVE",
"46 260 LINE SMOOTH",
"46 265 OFFCURVE",
"43 269 OFFCURVE",
"43 272 CURVE",
"45 275 LINE",
"44 280 OFFCURVE",
"44 286 OFFCURVE",
"44 291 CURVE SMOOTH",
"44 309 LINE SMOOTH",
"44 347 OFFCURVE",
"47 386 OFFCURVE",
"53 425 CURVE",
"55 417 LINE",
"51 301 OFFCURVE",
"51 32 OFFCURVE",
"42 32 CURVE",
"40 30 LINE",
"40 27 OFFCURVE",
"43 27 OFFCURVE",
"46 24 CURVE",
"46 7 OFFCURVE",
"37 9 OFFCURVE",
"37 5 CURVE SMOOTH",
"37 1 OFFCURVE",
"43 -2 OFFCURVE",
"48 -3 CURVE",
"51 2 OFFCURVE",
"48 8 OFFCURVE",
"53 12 CURVE",
"57 9 OFFCURVE",
"57 5 OFFCURVE",
"58 1 CURVE",
"82 1 OFFCURVE",
"106 2 OFFCURVE",
"130 2 CURVE SMOOTH",
"153 2 OFFCURVE",
"176 1 OFFCURVE",
"203 0 CURVE",
"212 -5 LINE",
"212 -4 OFFCURVE",
"212 -3 OFFCURVE",
"213 -3 CURVE",
"214 -4 LINE",
"221 1 OFFCURVE",
"218 2 OFFCURVE",
"219 10 CURVE",
"210 11 LINE",
"210 15 OFFCURVE",
"212 17 OFFCURVE",
"217 17 CURVE SMOOTH",
"220 17 LINE",
"218 29 OFFCURVE",
"217 42 OFFCURVE",
"217 55 CURVE SMOOTH",
"217 72 LINE SMOOTH",
"217 79 OFFCURVE",
"218 84 OFFCURVE",
"219 91 CURVE SMOOTH",
"226 135 OFFCURVE",
"219 194 OFFCURVE",
"226 245 CURVE",
"234 244 OFFCURVE",
"243 246 OFFCURVE",
"262 250 CURVE",
"281 253 OFFCURVE",
"318 254 OFFCURVE",
"349 261 CURVE",
"349 259 LINE"
);
},
{
closed = 1;
nodes = (
"458 619 LINE SMOOTH",
"458 618 OFFCURVE",
"458 613 OFFCURVE",
"457 606 CURVE",
"460 579 OFFCURVE",
"461 564 OFFCURVE",
"461 563 CURVE SMOOTH",
"461 554 OFFCURVE",
"452 553 OFFCURVE",
"444 553 CURVE SMOOTH",
"432 553 OFFCURVE",
"421 554 OFFCURVE",
"410 554 CURVE SMOOTH",
"402 554 OFFCURVE",
"397 554 OFFCURVE",
"396 553 CURVE",
"396 555 LINE",
"397 555 OFFCURVE",
"398 555 OFFCURVE",
"399 556 CURVE",
"399 558 OFFCURVE",
"399 559 OFFCURVE",
"398 560 CURVE",
"398 559 OFFCURVE",
"397 559 OFFCURVE",
"396 559 CURVE SMOOTH",
"391 559 LINE SMOOTH",
"389 559 OFFCURVE",
"388 558 OFFCURVE",
"388 555 CURVE",
"387 557 OFFCURVE",
"386 558 OFFCURVE",
"385 558 CURVE SMOOTH",
"382 558 OFFCURVE",
"382 553 OFFCURVE",
"379 553 CURVE SMOOTH",
"372 553 OFFCURVE",
"365 559 OFFCURVE",
"357 559 CURVE SMOOTH",
"348 559 OFFCURVE",
"341 557 OFFCURVE",
"335 553 CURVE",
"331 557 LINE",
"324 553 OFFCURVE",
"314 553 OFFCURVE",
"258 550 CURVE SMOOTH",
"226 548 LINE",
"223 549 OFFCURVE",
"223 553 OFFCURVE",
"220 554 CURVE",
"217 551 OFFCURVE",
"213 550 OFFCURVE",
"208 550 CURVE SMOOTH",
"206 550 LINE",
"204 555 LINE",
"201 548 OFFCURVE",
"189 544 OFFCURVE",
"189 536 CURVE",
"189 536 OFFCURVE",
"189 535 OFFCURVE",
"190 534 CURVE",
"192 526 LINE",
"195 521 OFFCURVE",
"197 514 OFFCURVE",
"201 513 CURVE",
"202 438 LINE",
"199 463 LINE",
"194 454 OFFCURVE",
"196 442 OFFCURVE",
"193 431 CURVE",
"196 431 OFFCURVE",
"197 430 OFFCURVE",
"197 429 CURVE",
"195 427 LINE",
"196 427 LINE",
"195 426 LINE",
"195 425 OFFCURVE",
"196 424 OFFCURVE",
"199 421 CURVE",
"199 413 LINE",
"196 413 LINE SMOOTH",
"193 413 OFFCURVE",
"191 412 OFFCURVE",
"189 410 CURVE",
"189 403 OFFCURVE",
"201 404 OFFCURVE",
"201 397 CURVE SMOOTH",
"201 395 OFFCURVE",
"201 394 OFFCURVE",
"200 393 CURVE",
"203 390 LINE",
"207 394 OFFCURVE",
"205 401 OFFCURVE",
"209 404 CURVE",
"210 403 OFFCURVE",
"211 403 OFFCURVE",
"214 403 CURVE SMOOTH",
"216 403 LINE SMOOTH",
"219 403 OFFCURVE",
"221 403 OFFCURVE",
"222 402 CURVE",
"238 407 OFFCURVE",
"255 409 OFFCURVE",
"271 409 CURVE SMOOTH",
"291 409 OFFCURVE",
"310 406 OFFCURVE",
"330 402 CURVE",
"333 394 OFFCURVE",
"334 376 OFFCURVE",
"334 328 CURVE SMOOTH",
"334 316 OFFCURVE",
"333 314 OFFCURVE",
"333 307 CURVE SMOOTH",
"333 301 OFFCURVE",
"334 296 OFFCURVE",
"336 291 CURVE",
"307 283 OFFCURVE",
"282 281 OFFCURVE",
"263 281 CURVE SMOOTH",
"212 281 OFFCURVE",
"228 296 OFFCURVE",
"219 296 CURVE SMOOTH",
"215 296 OFFCURVE",
"217 283 OFFCURVE",
"210 282 CURVE",
"203 283 OFFCURVE",
"200 284 OFFCURVE",
"200 284 CURVE SMOOTH",
"194 284 OFFCURVE",
"190 282 OFFCURVE",
"188 278 CURVE",
"189 275 OFFCURVE",
"191 274 OFFCURVE",
"194 274 CURVE SMOOTH",
"195 274 OFFCURVE",
"203 275 OFFCURVE",
"204 276 CURVE",
"203 275 OFFCURVE",
"202 273 OFFCURVE",
"202 272 CURVE SMOOTH",
"202 267 LINE",
"203 266 OFFCURVE",
"204 225 OFFCURVE",
"205 144 CURVE SMOOTH",
"205 139 OFFCURVE",
"205 137 OFFCURVE",
"206 136 CURVE",
"204 136 LINE",
"204 134 LINE SMOOTH",
"204 131 OFFCURVE",
"206 128 OFFCURVE",
"206 120 CURVE SMOOTH",
"206 117 LINE",
"205 118 OFFCURVE",
"205 118 OFFCURVE",
"204 118 CURVE",
"202 116 LINE",
"202 113 OFFCURVE",
"205 114 OFFCURVE",
"205 111 CURVE",
"204 111 LINE",
"199 86 OFFCURVE",
"204 54 OFFCURVE",
"196 29 CURVE",
"171 24 OFFCURVE",
"158 21 OFFCURVE",
"156 21 CURVE",
"118 18 LINE",
"115 22 LINE",
"114 23 OFFCURVE",
"113 23 OFFCURVE",
"110 23 CURVE SMOOTH",
"108 23 LINE",
"108 25 LINE",
"70 29 LINE",
"69 36 OFFCURVE",
"69 43 OFFCURVE",
"69 50 CURVE SMOOTH",
"69 72 LINE SMOOTH",
"69 132 OFFCURVE",
"74 196 OFFCURVE",
"74 240 CURVE SMOOTH",
"74 284 OFFCURVE",
"73 307 OFFCURVE",
"70 335 CURVE",
"73 443 OFFCURVE",
"74 552 OFFCURVE",
"78 665 CURVE",
"83 654 OFFCURVE",
"86 647 OFFCURVE",
"89 643 CURVE",
"88 643 OFFCURVE",
"88 642 OFFCURVE",
"88 641 CURVE",
"89 638 LINE",
"89 637 OFFCURVE",
"88 637 OFFCURVE",
"87 637 CURVE",
"84 635 LINE",
"87 632 OFFCURVE",
"89 631 OFFCURVE",
"92 631 CURVE",
"93 632 OFFCURVE",
"93 634 OFFCURVE",
"93 637 CURVE SMOOTH",
"93 644 OFFCURVE",
"91 649 OFFCURVE",
"90 656 CURVE",
"93 656 OFFCURVE",
"93 655 OFFCURVE",
"96 655 CURVE SMOOTH",
"107 655 OFFCURVE",
"114 659 OFFCURVE",
"123 659 CURVE SMOOTH",
"128 659 OFFCURVE",
"133 658 OFFCURVE",
"138 655 CURVE",
"155 658 OFFCURVE",
"200 661 OFFCURVE",
"273 662 CURVE",
"274 664 OFFCURVE",
"275 665 OFFCURVE",
"277 665 CURVE SMOOTH",
"280 665 OFFCURVE",
"280 663 OFFCURVE",
"283 663 CURVE SMOOTH",
"284 663 OFFCURVE",
"284 663 OFFCURVE",
"285 664 CURVE",
"285 666 LINE",
"294 669 LINE",
"294 664 LINE",
"295 663 OFFCURVE",
"317 663 OFFCURVE",
"362 663 CURVE SMOOTH",
"385 663 OFFCURVE",
"401 664 OFFCURVE",
"412 664 CURVE SMOOTH",
"424 664 OFFCURVE",
"430 663 OFFCURVE",
"431 663 CURVE SMOOTH",
"439 663 LINE",
"445 660 OFFCURVE",
"449 659 OFFCURVE",
"451 659 CURVE SMOOTH",
"452 659 OFFCURVE",
"452 659 OFFCURVE",
"452 660 CURVE",
"451 663 LINE",
"459 663 OFFCURVE",
"458 656 OFFCURVE",
"458 651 CURVE SMOOTH"
);
},
{
closed = 1;
nodes = (
"49 455 OFFCURVE",
"50 462 OFFCURVE",
"50 469 CURVE SMOOTH",
"50 477 LINE",
"51 477 OFFCURVE",
"51 456 OFFCURVE",
"51 455 CURVE SMOOTH",
"51 450 OFFCURVE",
"50 447 OFFCURVE",
"49 444 CURVE"
);
},
{
closed = 1;
nodes = (
"55 434 LINE",
"55 427 LINE",
"54 427 LINE"
);
},
{
closed = 1;
nodes = (
"209 406 LINE",
"207 408 LINE",
"208 408 LINE SMOOTH",
"209 408 OFFCURVE",
"209 408 OFFCURVE",
"209 407 CURVE SMOOTH"
);
}
);
width = 494;
}
);
note = F;
rightKerningGroup = F;
unicode = 0046;
},
{
glyphname = G;
layers = (
{
hints = (
{
horizontal = 1;
place = "{-9, 27}";
type = Stem;
},
{
horizontal = 1;
place = "{236, 128}";
type = Stem;
},
{
horizontal = 1;
place = "{558, 28}";
type = Stem;
},
{
place = "{162, 98}";
type = Stem;
},
{
place = "{244, 219}";
type = Stem;
},
{
horizontal = 1;
place = "{-9, 162}";
type = Stem;
},
{
place = "{34, 145}";
type = Stem;
},
{
horizontal = 1;
place = "{350, 146}";
type = Stem;
},
{
horizontal = 1;
place = "{472, 24}";
type = Stem;
},
{
horizontal = 1;
place = "{558, 148}";
type = Stem;
},
{
place = "{442, 21}";
type = Stem;
},
{
place = "{162, 173}";
type = Stem;
},
{
horizontal = 1;
place = "{350, 219}";
type = Stem;
}
);
layerId = "CFE16014-3183-49EF-AD56-7F9496F8AA7E";
paths = (
{
closed = 1;
nodes = (
"455 363 LINE",
"450 364 OFFCURVE",
"444 364 OFFCURVE",
"439 364 CURVE SMOOTH",
"392 364 OFFCURVE",
"373 363 OFFCURVE",
"348 360 CURVE",
"341 363 OFFCURVE",
"334 362 OFFCURVE",
"326 362 CURVE SMOOTH",
"287 362 OFFCURVE",
"259 361 OFFCURVE",
"242 359 CURVE",
"243 340 OFFCURVE",
"244 327 OFFCURVE",
"244 314 CURVE SMOOTH",
"244 291 OFFCURVE",
"242 273 OFFCURVE",
"239 242 CURVE",
"244 236 LINE",
"307 236 LINE",
"319 233 OFFCURVE",
"320 229 OFFCURVE",
"320 213 CURVE SMOOTH",
"320 186 OFFCURVE",
"321 153 OFFCURVE",
"253 153 CURVE SMOOTH",
"194 153 OFFCURVE",
"179 207 OFFCURVE",
"179 245 CURVE SMOOTH",
"179 278 OFFCURVE",
"187 315 OFFCURVE",
"187 350 CURVE SMOOTH",
"187 361 OFFCURVE",
"186 368 OFFCURVE",
"185 379 CURVE",
"185 382 OFFCURVE",
"186 383 OFFCURVE",
"188 383 CURVE",
"188 414 OFFCURVE",
"179 444 OFFCURVE",
"179 475 CURVE SMOOTH",
"179 484 OFFCURVE",
"184 498 OFFCURVE",
"193 516 CURVE SMOOTH",
"212 552 OFFCURVE",
"232 558 OFFCURVE",
"259 558 CURVE SMOOTH",
"284 558 OFFCURVE",
"309 537 OFFCURVE",
"313 513 CURVE",
"318 502 OFFCURVE",
"316 487 OFFCURVE",
"324 476 CURVE",
"343 473 OFFCURVE",
"361 472 OFFCURVE",
"380 472 CURVE SMOOTH",
"389 472 OFFCURVE",
"393 473 OFFCURVE",
"409 473 CURVE SMOOTH",
"430 473 LINE SMOOTH",
"441 473 OFFCURVE",
"449 475 OFFCURVE",
"453 479 CURVE",
"453 528 LINE SMOOTH",
"453 590 OFFCURVE",
"447 652 OFFCURVE",
"384 681 CURVE",
"320 698 OFFCURVE",
"253 706 OFFCURVE",
"185 706 CURVE SMOOTH",
"151 706 OFFCURVE",
"94 679 OFFCURVE",
"67 644 CURVE SMOOTH",
"42 612 OFFCURVE",
"42 604 OFFCURVE",
"39 595 CURVE",
"39 592 OFFCURVE",
"39 591 OFFCURVE",
"40 590 CURVE",
"33 581 OFFCURVE",
"38 572 OFFCURVE",
"34 563 CURVE",
"34 483 OFFCURVE",
"30 402 OFFCURVE",
"30 321 CURVE SMOOTH",
"30 296 OFFCURVE",
"30 248 OFFCURVE",
"37 175 CURVE SMOOTH",
"40 142 OFFCURVE",
"47 93 OFFCURVE",
"60 70 CURVE SMOOTH",
"81 34 OFFCURVE",
"136 -6 OFFCURVE",
"181 -9 CURVE",
"249 -6 OFFCURVE",
"318 -12 OFFCURVE",
"378 12 CURVE SMOOTH",
"452 41 OFFCURVE",
"463 143 OFFCURVE",
"463 229 CURVE SMOOTH",
"463 274 OFFCURVE",
"459 320 OFFCURVE",
"458 360 CURVE"
);
},
{
closed = 1;
nodes = (
"453 190 OFFCURVE",
"453 169 OFFCURVE",
"442 154 CURVE",
"439 145 OFFCURVE",
"440 88 OFFCURVE",
"418 66 CURVE",
"404 48 LINE",
"403 49 LINE",
"384 40 OFFCURVE",
"369 27 OFFCURVE",
"346 27 CURVE",
"318 20 OFFCURVE",
"281 18 OFFCURVE",
"245 18 CURVE SMOOTH",
"230 18 OFFCURVE",
"214 21 OFFCURVE",
"201 21 CURVE SMOOTH",
"200 21 OFFCURVE",
"199 21 OFFCURVE",
"198 20 CURVE",
"201 17 LINE",
"192 13 OFFCURVE",
"183 13 OFFCURVE",
"168 13 CURVE SMOOTH",
"159 13 OFFCURVE",
"108 28 OFFCURVE",
"79 75 CURVE",
"78 74 OFFCURVE",
"78 73 OFFCURVE",
"78 72 CURVE SMOOTH",
"78 69 OFFCURVE",
"79 67 OFFCURVE",
"82 64 CURVE",
"71 73 OFFCURVE",
"67 85 OFFCURVE",
"63 100 CURVE",
"69 90 LINE",
"57 146 LINE",
"56 145 OFFCURVE",
"55 143 OFFCURVE",
"55 142 CURVE SMOOTH",
"55 139 LINE",
"48 150 OFFCURVE",
"47 165 OFFCURVE",
"47 180 CURVE SMOOTH",
"47 189 OFFCURVE",
"48 198 OFFCURVE",
"50 206 CURVE",
"50 205 LINE SMOOTH",
"50 202 OFFCURVE",
"52 199 OFFCURVE",
"53 196 CURVE",
"54 197 OFFCURVE",
"54 200 OFFCURVE",
"54 206 CURVE SMOOTH",
"54 216 OFFCURVE",
"52 228 OFFCURVE",
"49 243 CURVE",
"51 242 LINE",
"47 296 LINE",
"45 296 LINE",
"45 309 OFFCURVE",
"44 322 OFFCURVE",
"44 335 CURVE SMOOTH",
"44 362 OFFCURVE",
"45 389 OFFCURVE",
"48 416 CURVE",
"51 416 LINE",
"51 452 OFFCURVE",
"46 492 OFFCURVE",
"46 531 CURVE SMOOTH",
"46 571 OFFCURVE",
"51 609 OFFCURVE",
"71 641 CURVE",
"110 684 OFFCURVE",
"156 696 OFFCURVE",
"213 696 CURVE SMOOTH",
"273 696 OFFCURVE",
"348 690 OFFCURVE",
"395 656 CURVE SMOOTH",
"446 619 OFFCURVE",
"439 536 OFFCURVE",
"442 498 CURVE",
"430 496 OFFCURVE",
"422 495 OFFCURVE",
"418 495 CURVE SMOOTH",
"415 495 OFFCURVE",
"415 496 OFFCURVE",
"414 496 CURVE",
"411 500 LINE",
"380 497 OFFCURVE",
"361 496 OFFCURVE",
"350 496 CURVE SMOOTH",
"338 496 OFFCURVE",
"343 504 OFFCURVE",
"335 504 CURVE",
"335 552 OFFCURVE",
"288 586 OFFCURVE",
"243 586 CURVE SMOOTH",
"224 586 OFFCURVE",
"208 582 OFFCURVE",
"195 567 CURVE",
"210 571 OFFCURVE",
"224 580 OFFCURVE",
"241 581 CURVE",
"260 578 OFFCURVE",
"277 578 OFFCURVE",
"292 567 CURVE",
"281 567 OFFCURVE",
"270 569 OFFCURVE",
"258 569 CURVE SMOOTH",
"247 569 OFFCURVE",
"239 568 OFFCURVE",
"230 563 CURVE",
"225 563 LINE SMOOTH",
"209 563 OFFCURVE",
"155 537 OFFCURVE",
"155 529 CURVE",
"159 532 OFFCURVE",
"171 536 OFFCURVE",
"175 539 CURVE",
"175 527 OFFCURVE",
"158 521 OFFCURVE",
"154 510 CURVE",
"161 479 OFFCURVE",
"162 451 OFFCURVE",
"162 423 CURVE SMOOTH",
"162 376 OFFCURVE",
"157 331 OFFCURVE",
"157 287 CURVE SMOOTH",
"157 228 OFFCURVE",
"164 149 OFFCURVE",
"233 133 CURVE",
"232 127 LINE",
"257 135 OFFCURVE",
"305 135 OFFCURVE",
"326 159 CURVE SMOOTH",
"334 168 OFFCURVE",
"334 200 OFFCURVE",
"334 223 CURVE SMOOTH",
"334 245 LINE",
"337 247 OFFCURVE",
"339 249 OFFCURVE",
"339 251 CURVE SMOOTH",
"339 254 OFFCURVE",
"334 255 OFFCURVE",
"324 255 CURVE SMOOTH",
"313 255 OFFCURVE",
"297 254 OFFCURVE",
"281 254 CURVE SMOOTH",
"257 254 LINE",
"260 278 OFFCURVE",
"260 286 OFFCURVE",
"260 301 CURVE SMOOTH",
"260 350 LINE",
"303 349 OFFCURVE",
"330 348 OFFCURVE",
"341 345 CURVE",
"340 342 LINE",
"341 341 OFFCURVE",
"345 341 OFFCURVE",
"352 341 CURVE",
"411 345 LINE",
"434 346 LINE",
"434 347 OFFCURVE",
"436 347 OFFCURVE",
"441 348 CURVE",
"450 348 OFFCURVE",
"453 288 OFFCURVE",
"453 267 CURVE SMOOTH",
"453 247 OFFCURVE",
"452 227 OFFCURVE",
"451 208 CURVE",
"451 209 OFFCURVE",
"452 210 OFFCURVE",
"453 211 CURVE"
);
},
{
closed = 1;
nodes = (
"451 208 OFFCURVE",
"451 208 OFFCURVE",
"451 208 CURVE SMOOTH"
);
}
);
width = 481;
}
);
leftKerningGroup = G;
note = G;
rightKerningGroup = G;
unicode = 0047;
},
{
glyphname = H;
layers = (
{
hints = (
{
horizontal = 1;
place = "{-2, 21}";
target = up;
type = BottomGhost;
},
{
horizontal = 1;
place = "{280, 148}";
type = Stem;
},
{
horizontal = 1;
place = "{698, -20}";
target = down;
type = TopGhost;
},
{
place = "{39, 154}";
type = Stem;
},
{
place = "{435, 22}";
type = Stem;
},
{
place = "{447, 28}";
type = Stem;
},
{
horizontal = 1;
place = "{713, -20}";
target = down;
type = TopGhost;
},
{
place = "{305, 30}";
type = Stem;
},
{
place = "{179, 156}";
type = Stem;
},
{
place = "{156, 25}";
type = Stem;
},
{
place = "{39, 28}";
type = Stem;
},
{
place = "{156, 166}";
type = Stem;
}
);
layerId = "CFE16014-3183-49EF-AD56-7F9496F8AA7E";
paths = (
{
closed = 1;
nodes = (
"399 5 LINE SMOOTH",
"418 5 OFFCURVE",
"435 4 OFFCURVE",
"455 4 CURVE",
"459 6 LINE",
"470 6 OFFCURVE",
"469 17 OFFCURVE",
"470 21 CURVE",
"475 23 LINE",
"472 63 OFFCURVE",
"470 114 OFFCURVE",
"467 153 CURVE",
"463 170 LINE",
"463 173 OFFCURVE",
"464 176 OFFCURVE",
"467 178 CURVE",
"462 180 LINE",
"461 219 OFFCURVE",
"457 256 OFFCURVE",
"457 295 CURVE SMOOTH",
"457 326 OFFCURVE",
"462 359 OFFCURVE",
"462 363 CURVE SMOOTH",
"462 368 OFFCURVE",
"461 371 OFFCURVE",
"458 374 CURVE",
"459 375 OFFCURVE",
"461 376 OFFCURVE",
"462 376 CURVE",
"453 449 OFFCURVE",
"460 518 OFFCURVE",
"453 594 CURVE",
"453 680 LINE",
"455 680 LINE SMOOTH",
"458 680 OFFCURVE",
"459 681 OFFCURVE",
"460 684 CURVE",
"458 685 LINE",
"457 687 OFFCURVE",
"451 693 OFFCURVE",
"439 703 CURVE",
"439 706 OFFCURVE",
"439 709 OFFCURVE",
"440 710 CURVE",
"439 710 OFFCURVE",
"438 709 OFFCURVE",
"438 708 CURVE",
"433 713 LINE",
"420 700 OFFCURVE",
"366 698 OFFCURVE",
"342 698 CURVE SMOOTH",
"332 698 OFFCURVE",
"323 699 OFFCURVE",
"314 701 CURVE",
"310 700 OFFCURVE",
"310 692 OFFCURVE",
"305 692 CURVE SMOOTH",
"304 692 OFFCURVE",
"304 692 OFFCURVE",
"303 693 CURVE",
"304 676 OFFCURVE",
"305 659 OFFCURVE",
"305 643 CURVE SMOOTH",
"305 597 LINE SMOOTH",
"305 541 OFFCURVE",
"303 495 OFFCURVE",
"300 435 CURVE",
"297 431 LINE",
"274 431 OFFCURVE",
"247 428 OFFCURVE",
"222 428 CURVE SMOOTH",
"210 428 OFFCURVE",
"199 429 OFFCURVE",
"189 431 CURVE",
"189 454 OFFCURVE",
"178 494 OFFCURVE",
"178 508 CURVE SMOOTH",
"178 510 OFFCURVE",
"178 511 OFFCURVE",
"179 512 CURVE",
"181 512 LINE",
"177 620 OFFCURVE",
"175 663 OFFCURVE",
"175 672 CURVE SMOOTH",
"175 695 OFFCURVE",
"161 696 OFFCURVE",
"146 696 CURVE SMOOTH",
"115 696 OFFCURVE",
"86 694 OFFCURVE",
"55 691 CURVE",
"41 696 LINE",
"40 645 OFFCURVE",
"39 593 OFFCURVE",
"39 540 CURVE SMOOTH",
"39 371 OFFCURVE",
"43 203 OFFCURVE",
"50 30 CURVE",
"49 17 LINE",
"52 18 LINE",
"54 18 OFFCURVE",
"55 17 OFFCURVE",
"55 14 CURVE SMOOTH",
"55 11 OFFCURVE",
"54 6 OFFCURVE",
"54 2 CURVE",
"57 5 OFFCURVE",
"60 7 OFFCURVE",
"65 8 CURVE",
"96 4 OFFCURVE",
"126 9 OFFCURVE",
"155 -2 CURVE",
"158 4 LINE",
"167 4 OFFCURVE",
"175 8 OFFCURVE",
"184 8 CURVE SMOOTH",
"188 8 OFFCURVE",
"190 8 OFFCURVE",
"191 7 CURVE",
"195 24 OFFCURVE",
"191 46 OFFCURVE",
"196 63 CURVE",
"197 62 LINE",
"194 101 OFFCURVE",
"193 138 OFFCURVE",
"193 177 CURVE SMOOTH",
"193 208 OFFCURVE",
"194 238 OFFCURVE",
"194 271 CURVE SMOOTH",
"194 276 OFFCURVE",
"200 278 OFFCURVE",
"204 281 CURVE",
"306 280 LINE SMOOTH",
"310 280 OFFCURVE",
"312 275 OFFCURVE",
"312 271 CURVE SMOOTH",
"312 269 LINE",
"314 269 LINE",
"318 181 OFFCURVE",
"314 91 OFFCURVE",
"325 3 CURVE"
);
},
{
closed = 1;
nodes = (
"455 19 LINE",
"442 16 OFFCURVE",
"426 15 OFFCURVE",
"407 15 CURVE SMOOTH",
"384 15 OFFCURVE",
"365 17 OFFCURVE",
"348 17 CURVE",
"344 46 OFFCURVE",
"344 87 OFFCURVE",
"339 115 CURVE",
"340 116 OFFCURVE",
"341 117 OFFCURVE",
"341 118 CURVE SMOOTH",
"341 119 OFFCURVE",
"339 120 OFFCURVE",
"339 123 CURVE",
"336 154 OFFCURVE",
"335 186 OFFCURVE",
"335 218 CURVE SMOOTH",
"335 235 OFFCURVE",
"336 251 OFFCURVE",
"337 268 CURVE",
"332 275 LINE",
"330 272 LINE",
"329 273 OFFCURVE",
"329 274 OFFCURVE",
"329 275 CURVE SMOOTH",
"329 279 OFFCURVE",
"335 283 OFFCURVE",
"335 286 CURVE SMOOTH",
"335 289 OFFCURVE",
"327 290 OFFCURVE",
"316 297 CURVE",
"289 292 OFFCURVE",
"266 291 OFFCURVE",
"209 291 CURVE SMOOTH",
"201 291 OFFCURVE",
"196 294 OFFCURVE",
"195 299 CURVE",
"189 290 LINE",
"186 291 OFFCURVE",
"186 293 OFFCURVE",
"183 293 CURVE SMOOTH",
"182 293 OFFCURVE",
"182 293 OFFCURVE",
"181 292 CURVE",
"178 282 LINE",
"178 270 OFFCURVE",
"179 258 OFFCURVE",
"179 246 CURVE SMOOTH",
"179 203 OFFCURVE",
"176 163 OFFCURVE",
"176 122 CURVE SMOOTH",
"176 100 OFFCURVE",
"177 79 OFFCURVE",
"179 58 CURVE",
"178 51 OFFCURVE",
"175 45 OFFCURVE",
"175 38 CURVE SMOOTH",
"175 35 OFFCURVE",
"175 33 OFFCURVE",
"176 32 CURVE",
"178 35 LINE",
"179 34 OFFCURVE",
"179 33 OFFCURVE",
"179 30 CURVE SMOOTH",
"179 27 OFFCURVE",
"177 26 OFFCURVE",
"174 26 CURVE SMOOTH",
"166 26 LINE",
"141 22 OFFCURVE",
"127 20 OFFCURVE",
"108 20 CURVE SMOOTH",
"89 20 OFFCURVE",
"75 22 OFFCURVE",
"65 27 CURVE",
"66 48 OFFCURVE",
"67 69 OFFCURVE",
"67 90 CURVE SMOOTH",
"67 198 OFFCURVE",
"53 303 OFFCURVE",
"53 407 CURVE",
"52 406 LINE",
"53 414 OFFCURVE",
"54 419 OFFCURVE",
"54 423 CURVE SMOOTH",
"54 466 OFFCURVE",
"51 490 OFFCURVE",
"51 498 CURVE SMOOTH",
"51 503 OFFCURVE",
"52 507 OFFCURVE",
"53 512 CURVE",
"54 551 LINE SMOOTH",
"54 558 OFFCURVE",
"53 566 OFFCURVE",
"53 573 CURVE SMOOTH",
"53 578 OFFCURVE",
"53 581 OFFCURVE",
"54 582 CURVE",
"54 679 LINE",
"62 679 OFFCURVE",
"70 678 OFFCURVE",
"78 678 CURVE SMOOTH",
"123 678 OFFCURVE",
"146 683 OFFCURVE",
"147 683 CURVE SMOOTH",
"158 683 OFFCURVE",
"158 665 OFFCURVE",
"158 649 CURVE SMOOTH",
"158 596 OFFCURVE",
"156 546 OFFCURVE",
"156 494 CURVE SMOOTH",
"156 469 OFFCURVE",
"157 445 OFFCURVE",
"159 420 CURVE",
"168 417 OFFCURVE",
"169 417 OFFCURVE",
"172 408 CURVE",
"178 414 LINE",
"191 415 OFFCURVE",
"204 416 OFFCURVE",
"216 416 CURVE SMOOTH",
"235 416 OFFCURVE",
"249 415 OFFCURVE",
"285 415 CURVE SMOOTH",
"292 415 OFFCURVE",
"301 417 OFFCURVE",
"311 420 CURVE",
"312 419 OFFCURVE",
"313 419 OFFCURVE",
"315 419 CURVE SMOOTH",
"320 419 OFFCURVE",
"323 432 OFFCURVE",
"323 435 CURVE SMOOTH",
"323 438 OFFCURVE",
"322 441 OFFCURVE",
"322 444 CURVE",
"326 452 LINE",
"326 461 OFFCURVE",
"327 468 OFFCURVE",
"327 475 CURVE SMOOTH",
"327 511 OFFCURVE",
"322 545 OFFCURVE",
"322 581 CURVE SMOOTH",
"322 616 OFFCURVE",
"323 650 OFFCURVE",
"330 683 CURVE",
"346 680 OFFCURVE",
"362 679 OFFCURVE",
"379 679 CURVE SMOOTH",
"431 679 LINE",
"434 654 OFFCURVE",
"435 630 OFFCURVE",
"435 603 CURVE SMOOTH",
"435 572 OFFCURVE",
"434 541 OFFCURVE",
"432 510 CURVE",
"439 357 OFFCURVE",
"440 197 OFFCURVE",
"447 40 CURVE",
"448 36 OFFCURVE",
"455 29 OFFCURVE",
"455 22 CURVE SMOOTH"
);
}
);
width = 499;
}
);
note = H;
unicode = 0048;
},
{
glyphname = J;
layers = (
{
hints = (
{
horizontal = 1;
place = "{-10, 20}";
type = Stem;
},
{
horizontal = 1;
place = "{143, 21}";
type = Stem;
},
{
horizontal = 1;
place = "{720, -20}";
target = down;
type = TopGhost;
},
{
place = "{-2, 23}";
type = Stem;
},
{
place = "{269, 151}";
type = Stem;
},
{
horizontal = 1;
place = "{143, 150}";
type = Stem;
},
{
place = "{129, 170}";
type = Stem;
}
);
layerId = "CFE16014-3183-49EF-AD56-7F9496F8AA7E";
paths = (
{
closed = 1;
nodes = (
"379 717 OFFCURVE",
"359 717 OFFCURVE",
"338 717 CURVE SMOOTH",
"275 717 LINE",
"271 714 LINE",
"270 698 OFFCURVE",
"269 683 OFFCURVE",
"269 668 CURVE SMOOTH",
"269 636 OFFCURVE",
"271 605 OFFCURVE",
"271 570 CURVE SMOOTH",
"271 563 OFFCURVE",
"268 558 OFFCURVE",
"268 551 CURVE SMOOTH",
"268 526 OFFCURVE",
"272 501 OFFCURVE",
"272 474 CURVE SMOOTH",
"272 451 OFFCURVE",
"271 428 OFFCURVE",
"270 407 CURVE",
"271 406 OFFCURVE",
"271 405 OFFCURVE",
"271 403 CURVE SMOOTH",
"271 400 OFFCURVE",
"268 398 OFFCURVE",
"268 395 CURVE SMOOTH",
"268 394 OFFCURVE",
"268 394 OFFCURVE",
"269 393 CURVE",
"269 372 LINE SMOOTH",
"269 361 OFFCURVE",
"271 350 OFFCURVE",
"271 343 CURVE SMOOTH",
"271 340 OFFCURVE",
"270 338 OFFCURVE",
"269 338 CURVE",
"269 335 OFFCURVE",
"273 336 OFFCURVE",
"273 320 CURVE SMOOTH",
"273 315 LINE SMOOTH",
"273 302 OFFCURVE",
"274 288 OFFCURVE",
"274 273 CURVE SMOOTH",
"274 253 LINE SMOOTH",
"274 215 OFFCURVE",
"255 164 OFFCURVE",
"227 164 CURVE SMOOTH",
"224 164 OFFCURVE",
"222 165 OFFCURVE",
"219 167 CURVE",
"203 167 LINE SMOOTH",
"172 167 OFFCURVE",
"159 231 OFFCURVE",
"159 258 CURVE SMOOTH",
"159 271 LINE SMOOTH",
"159 275 OFFCURVE",
"160 279 OFFCURVE",
"161 284 CURVE",
"160 295 OFFCURVE",
"149 289 OFFCURVE",
"144 294 CURVE",
"133 293 OFFCURVE",
"122 293 OFFCURVE",
"111 293 CURVE SMOOTH",
"47 293 LINE SMOOTH",
"35 293 OFFCURVE",
"21 298 OFFCURVE",
"10 298 CURVE SMOOTH",
"7 298 OFFCURVE",
"8 297 OFFCURVE",
"5 297 CURVE SMOOTH",
"4 297 OFFCURVE",
"3 298 OFFCURVE",
"2 299 CURVE",
"-8 291 LINE",
"-2 287 LINE",
"-2 247 OFFCURVE",
"6 216 OFFCURVE",
"6 177 CURVE",
"13 168 OFFCURVE",
"12 156 OFFCURVE",
"12 147 CURVE",
"17 142 LINE",
"18 134 OFFCURVE",
"24 114 OFFCURVE",
"35 82 CURVE",
"54 15 OFFCURVE",
"119 -10 OFFCURVE",
"183 -10 CURVE SMOOTH",
"228 -10 OFFCURVE",
"274 2 OFFCURVE",
"313 17 CURVE SMOOTH",
"356 34 OFFCURVE",
"380 75 OFFCURVE",
"397 118 CURVE",
"400 131 OFFCURVE",
"409 143 OFFCURVE",
"409 156 CURVE SMOOTH",
"409 161 LINE",
"413 168 OFFCURVE",
"413 178 OFFCURVE",
"416 183 CURVE",
"417 206 LINE",
"418 205 LINE",
"418 261 OFFCURVE",
"420 319 OFFCURVE",
"420 376 CURVE SMOOTH",
"420 407 OFFCURVE",
"419 438 OFFCURVE",
"416 470 CURVE",
"416 485 LINE SMOOTH",
"416 520 OFFCURVE",
"414 557 OFFCURVE",
"414 590 CURVE SMOOTH",
"414 613 OFFCURVE",
"415 630 OFFCURVE",
"415 653 CURVE SMOOTH",
"415 677 OFFCURVE",
"415 701 OFFCURVE",
"408 720 CURVE",
"405 719 OFFCURVE",
"401 719 OFFCURVE",
"398 716 CURVE"
);
},
{
closed = 1;
nodes = (
"403 424 OFFCURVE",
"402 405 OFFCURVE",
"402 386 CURVE SMOOTH",
"402 350 OFFCURVE",
"404 313 OFFCURVE",
"404 277 CURVE SMOOTH",
"404 209 OFFCURVE",
"399 144 OFFCURVE",
"371 87 CURVE",
"345 66 OFFCURVE",
"336 36 OFFCURVE",
"303 33 CURVE",
"270 18 OFFCURVE",
"236 10 OFFCURVE",
"201 10 CURVE SMOOTH",
"62 10 OFFCURVE",
"21 137 OFFCURVE",
"21 237 CURVE SMOOTH",
"21 250 LINE SMOOTH",
"21 257 OFFCURVE",
"21 262 OFFCURVE",
"22 264 CURVE",
"18 265 OFFCURVE",
"16 267 OFFCURVE",
"16 272 CURVE SMOOTH",
"16 281 OFFCURVE",
"19 282 OFFCURVE",
"26 282 CURVE SMOOTH",
"41 282 OFFCURVE",
"52 275 OFFCURVE",
"68 275 CURVE SMOOTH",
"75 275 OFFCURVE",
"79 277 OFFCURVE",
"86 277 CURVE SMOOTH",
"101 277 OFFCURVE",
"111 272 OFFCURVE",
"126 269 CURVE",
"125 268 OFFCURVE",
"125 266 OFFCURVE",
"125 263 CURVE SMOOTH",
"125 258 OFFCURVE",
"126 255 OFFCURVE",
"129 252 CURVE",
"129 208 OFFCURVE",
"166 143 OFFCURVE",
"214 143 CURVE SMOOTH",
"223 143 OFFCURVE",
"247 161 OFFCURVE",
"262 170 CURVE",
"294 202 OFFCURVE",
"293 243 OFFCURVE",
"294 286 CURVE",
"298 289 OFFCURVE",
"299 307 OFFCURVE",
"299 327 CURVE SMOOTH",
"299 443 OFFCURVE",
"293 546 OFFCURVE",
"285 663 CURVE",
"287 701 LINE",
"294 703 OFFCURVE",
"301 704 OFFCURVE",
"309 704 CURVE SMOOTH",
"328 704 OFFCURVE",
"347 699 OFFCURVE",
"366 699 CURVE SMOOTH",
"374 699 OFFCURVE",
"378 703 OFFCURVE",
"382 703 CURVE SMOOTH",
"386 703 OFFCURVE",
"391 701 OFFCURVE",
"394 701 CURVE",
"405 613 OFFCURVE",
"393 528 OFFCURVE",
"404 443 CURVE"
);
}
);
width = 463;
}
);
leftKerningGroup = J;
note = J;
rightKerningGroup = J;
unicode = 004A;
},
{
glyphname = K;
layers = (
{
hints = (
{
horizontal = 1;
place = "{-1, 21}";
target = up;
type = BottomGhost;
},
{
horizontal = 1;
place = "{699, -20}";
target = down;
type = TopGhost;
},
{
place = "{43, 146}";
type = Stem;
},
{
horizontal = 1;
place = "{0, 21}";
target = up;
type = BottomGhost;
}
);
layerId = "CFE16014-3183-49EF-AD56-7F9496F8AA7E";
paths = (
{
closed = 1;
nodes = (
"430 87 OFFCURVE",
"393 163 OFFCURVE",
"357 238 CURVE",
"360 233 LINE",
"359 242 OFFCURVE",
"354 248 OFFCURVE",
"351 255 CURVE",
"351 250 LINE",
"342 269 OFFCURVE",
"334 284 OFFCURVE",
"327 303 CURVE SMOOTH",
"320 322 OFFCURVE",
"299 338 OFFCURVE",
"299 361 CURVE",
"304 364 OFFCURVE",
"332 426 OFFCURVE",
"348 456 CURVE SMOOTH",
"375 507 OFFCURVE",
"406 559 OFFCURVE",
"435 606 CURVE",
"439 637 OFFCURVE",
"460 659 OFFCURVE",
"465 690 CURVE",
"459 697 LINE",
"323 697 LINE",
"314 691 LINE",
"290 656 OFFCURVE",
"282 625 OFFCURVE",
"248 577 CURVE SMOOTH",
"203 514 OFFCURVE",
"212 500 OFFCURVE",
"183 477 CURVE",
"180 479 LINE",
"180 516 OFFCURVE",
"179 585 OFFCURVE",
"178 686 CURVE",
"172 693 OFFCURVE",
"166 696 OFFCURVE",
"160 696 CURVE SMOOTH",
"142 696 LINE SMOOTH",
"109 696 OFFCURVE",
"76 698 OFFCURVE",
"43 699 CURVE",
"43 561 LINE SMOOTH",
"43 500 OFFCURVE",
"40 447 OFFCURVE",
"40 391 CURVE SMOOTH",
"40 324 LINE SMOOTH",
"40 285 OFFCURVE",
"39 249 OFFCURVE",
"35 212 CURVE",
"38 183 OFFCURVE",
"39 154 OFFCURVE",
"39 125 CURVE SMOOTH",
"39 93 OFFCURVE",
"38 62 OFFCURVE",
"38 29 CURVE SMOOTH",
"38 8 LINE",
"34 5 LINE",
"44 1 LINE",
"47 0 LINE",
"48 0 OFFCURVE",
"56 1 OFFCURVE",
"60 1 CURVE SMOOTH",
"65 1 OFFCURVE",
"70 -1 OFFCURVE",
"74 -1 CURVE SMOOTH",
"82 -1 OFFCURVE",
"91 1 OFFCURVE",
"100 1 CURVE SMOOTH",
"117 1 OFFCURVE",
"134 -1 OFFCURVE",
"150 -1 CURVE SMOOTH",
"162 -1 OFFCURVE",
"175 -1 OFFCURVE",
"186 6 CURVE",
"189 1 LINE",
"194 6 LINE SMOOTH",
"195 7 OFFCURVE",
"195 8 OFFCURVE",
"195 10 CURVE SMOOTH",
"195 13 OFFCURVE",
"193 15 OFFCURVE",
"189 16 CURVE",
"188 52 OFFCURVE",
"185 97 OFFCURVE",
"185 137 CURVE SMOOTH",
"185 161 LINE SMOOTH",
"185 168 OFFCURVE",
"186 176 OFFCURVE",
"187 183 CURVE",
"184 185 LINE",
"185 186 OFFCURVE",
"185 188 OFFCURVE",
"185 193 CURVE SMOOTH",
"185 201 OFFCURVE",
"182 209 OFFCURVE",
"182 216 CURVE SMOOTH",
"182 219 OFFCURVE",
"183 223 OFFCURVE",
"185 227 CURVE",
"246 121 OFFCURVE",
"235 120 OFFCURVE",
"272 72 CURVE SMOOTH",
"287 52 OFFCURVE",
"301 19 OFFCURVE",
"320 2 CURVE",
"348 2 OFFCURVE",
"378 -1 OFFCURVE",
"409 -1 CURVE SMOOTH",
"420 -1 LINE SMOOTH",
"437 -1 OFFCURVE",
"460 2 OFFCURVE",
"460 5 CURVE SMOOTH",
"460 8 OFFCURVE",
"457 10 OFFCURVE",
"457 13 CURVE SMOOTH",
"457 14 OFFCURVE",
"457 15 OFFCURVE",
"458 16 CURVE"
);
},
{
closed = 1;
nodes = (
"376 8 OFFCURVE",
"374 8 OFFCURVE",
"369 8 CURVE SMOOTH",
"360 8 OFFCURVE",
"351 12 OFFCURVE",
"344 19 CURVE",
"342 16 OFFCURVE",
"340 15 OFFCURVE",
"338 15 CURVE SMOOTH",
"333 15 OFFCURVE",
"330 21 OFFCURVE",
"327 26 CURVE",
"286 111 OFFCURVE",
"231 201 OFFCURVE",
"182 282 CURVE",
"179 280 OFFCURVE",
"177 277 OFFCURVE",
"177 273 CURVE SMOOTH",
"177 265 LINE SMOOTH",
"177 262 OFFCURVE",
"177 260 OFFCURVE",
"176 259 CURVE",
"176 235 OFFCURVE",
"178 223 OFFCURVE",
"178 203 CURVE SMOOTH",
"178 155 OFFCURVE",
"175 107 OFFCURVE",
"175 60 CURVE SMOOTH",
"175 40 LINE SMOOTH",
"175 33 OFFCURVE",
"175 27 OFFCURVE",
"176 20 CURVE",
"172 18 OFFCURVE",
"168 17 OFFCURVE",
"165 17 CURVE SMOOTH",
"160 17 OFFCURVE",
"155 18 OFFCURVE",
"150 18 CURVE SMOOTH",
"146 18 OFFCURVE",
"144 18 OFFCURVE",
"143 17 CURVE",
"58 12 LINE",
"56 16 OFFCURVE",
"55 31 OFFCURVE",
"55 57 CURVE SMOOTH",
"55 71 OFFCURVE",
"57 190 OFFCURVE",
"60 507 CURVE SMOOTH",
"60 571 OFFCURVE",
"59 630 OFFCURVE",
"58 691 CURVE",
"62 691 OFFCURVE",
"67 692 OFFCURVE",
"71 692 CURVE SMOOTH",
"90 692 OFFCURVE",
"104 688 OFFCURVE",
"123 688 CURVE",
"120 685 LINE",
"121 684 OFFCURVE",
"123 683 OFFCURVE",
"125 683 CURVE SMOOTH",
"128 683 OFFCURVE",
"131 684 OFFCURVE",
"134 684 CURVE SMOOTH",
"136 684 OFFCURVE",
"138 682 OFFCURVE",
"140 679 CURVE",
"148 681 LINE",
"167 681 OFFCURVE",
"172 656 OFFCURVE",
"172 633 CURVE",
"174 631 LINE",
"173 624 OFFCURVE",
"173 616 OFFCURVE",
"173 609 CURVE SMOOTH",
"173 530 LINE SMOOTH",
"173 495 OFFCURVE",
"172 460 OFFCURVE",
"167 427 CURVE",
"171 425 LINE",
"180 425 OFFCURVE",
"183 442 OFFCURVE",
"192 442 CURVE SMOOTH",
"194 442 LINE",
"221 486 OFFCURVE",
"242 526 OFFCURVE",
"266 571 CURVE",
"290 603 OFFCURVE",
"299 647 OFFCURVE",
"329 682 CURVE",
"346 683 OFFCURVE",
"365 688 OFFCURVE",
"384 688 CURVE SMOOTH",
"396 688 OFFCURVE",
"405 686 OFFCURVE",
"412 681 CURVE",
"427 681 OFFCURVE",
"437 687 OFFCURVE",
"450 687 CURVE",
"450 681 LINE",
"431 640 OFFCURVE",
"403 602 OFFCURVE",
"392 559 CURVE",
"387 548 OFFCURVE",
"380 537 OFFCURVE",
"377 525 CURVE",
"383 534 LINE",
"355 485 LINE",
"353 487 LINE",
"340 447 OFFCURVE",
"300 410 OFFCURVE",
"286 369 CURVE",
"286 350 LINE",
"305 319 OFFCURVE",
"335 285 OFFCURVE",
"342 250 CURVE",
"366 186 OFFCURVE",
"405 124 OFFCURVE",
"424 59 CURVE",
"432 47 OFFCURVE",
"445 29 OFFCURVE",
"448 14 CURVE",
"424 11 OFFCURVE",
"400 16 OFFCURVE",
"377 9 CURVE"
);
},
{
closed = 1;
nodes = (
"311 30 OFFCURVE",
"323 15 OFFCURVE",
"324 6 CURVE",
"315 11 OFFCURVE",
"307 28 OFFCURVE",
"306 37 CURVE"
);
}
);
width = 459;
}
);
note = K;
rightKerningGroup = K;
unicode = 004B;
},
{
glyphname = L;
layers = (
{
hints = (
{
horizontal = 1;
place = "{4, 23}";
type = Stem;
},
{
horizontal = 1;
place = "{133, 33}";
type = Stem;
},
{
horizontal = 1;
place = "{684, 26}";
type = Stem;
},
{
place = "{54, 150}";
type = Stem;
},
{
horizontal = 1;
place = "{-1, 21}";
target = up;
type = BottomGhost;
},
{
place = "{181, 23}";
type = Stem;
}
);
layerId = "CFE16014-3183-49EF-AD56-7F9496F8AA7E";
paths = (
{
closed = 1;
nodes = (
"456 75 LINE SMOOTH",
"456 82 OFFCURVE",
"456 88 OFFCURVE",
"457 95 CURVE",
"457 98 OFFCURVE",
"456 99 OFFCURVE",
"456 102 CURVE SMOOTH",
"456 117 OFFCURVE",
"461 128 OFFCURVE",
"461 141 CURVE SMOOTH",
"461 164 OFFCURVE",
"437 166 OFFCURVE",
"420 166 CURVE SMOOTH",
"417 166 OFFCURVE",
"413 165 OFFCURVE",
"408 164 CURVE",
"434 155 LINE",
"433 154 OFFCURVE",
"434 152 OFFCURVE",
"431 152 CURVE SMOOTH",
"412 152 LINE SMOOTH",
"400 152 OFFCURVE",
"387 153 OFFCURVE",
"379 160 CURVE",
"374 160 OFFCURVE",
"370 159 OFFCURVE",
"367 156 CURVE",
"340 160 OFFCURVE",
"315 162 OFFCURVE",
"284 162 CURVE SMOOTH",
"264 162 LINE SMOOTH",
"209 162 OFFCURVE",
"237 166 OFFCURVE",
"220 166 CURVE SMOOTH",
"216 166 OFFCURVE",
"213 163 OFFCURVE",
"211 158 CURVE",
"207 159 OFFCURVE",
"205 157 OFFCURVE",
"202 160 CURVE",
"203 163 OFFCURVE",
"201 165 OFFCURVE",
"205 168 CURVE",
"204 169 OFFCURVE",
"204 170 OFFCURVE",
"204 172 CURVE SMOOTH",
"204 175 OFFCURVE",
"206 178 OFFCURVE",
"206 181 CURVE SMOOTH",
"206 184 OFFCURVE",
"204 186 OFFCURVE",
"200 187 CURVE",
"200 239 OFFCURVE",
"204 294 OFFCURVE",
"204 347 CURVE SMOOTH",
"204 392 OFFCURVE",
"200 439 OFFCURVE",
"200 484 CURVE SMOOTH",
"200 630 LINE SMOOTH",
"200 654 OFFCURVE",
"201 678 OFFCURVE",
"202 702 CURVE",
"181 709 OFFCURVE",
"162 710 OFFCURVE",
"142 710 CURVE SMOOTH",
"121 710 OFFCURVE",
"99 707 OFFCURVE",
"75 706 CURVE",
"71 707 OFFCURVE",
"68 708 OFFCURVE",
"66 708 CURVE SMOOTH",
"54 708 OFFCURVE",
"33 705 OFFCURVE",
"33 700 CURVE SMOOTH",
"33 697 OFFCURVE",
"41 698 OFFCURVE",
"44 693 CURVE",
"49 553 OFFCURVE",
"49 767 OFFCURVE",
"54 215 CURVE",
"46 110 OFFCURVE",
"51 139 OFFCURVE",
"46 83 CURVE",
"49 86 LINE",
"46 77 LINE",
"46 83 LINE",
"45 79 OFFCURVE",
"44 77 OFFCURVE",
"44 77 CURVE",
"46 69 LINE",
"46 68 OFFCURVE",
"46 68 OFFCURVE",
"45 67 CURVE",
"45 50 OFFCURVE",
"43 35 OFFCURVE",
"39 20 CURVE",
"38 21 LINE",
"38 20 LINE",
"42 12 OFFCURVE",
"60 5 OFFCURVE",
"64 5 CURVE",
"64 7 OFFCURVE",
"71 8 OFFCURVE",
"85 8 CURVE SMOOTH",
"141 7 LINE SMOOTH",
"152 7 OFFCURVE",
"157 7 OFFCURVE",
"164 8 CURVE",
"163 7 OFFCURVE",
"163 7 OFFCURVE",
"163 6 CURVE SMOOTH",
"163 5 OFFCURVE",
"164 4 OFFCURVE",
"166 4 CURVE SMOOTH",
"167 4 OFFCURVE",
"169 5 OFFCURVE",
"172 6 CURVE",
"179 3 OFFCURVE",
"180 5 OFFCURVE",
"188 2 CURVE",
"188 1 LINE",
"190 2 LINE",
"230 2 LINE",
"232 4 LINE",
"232 5 OFFCURVE",
"231 5 OFFCURVE",
"230 5 CURVE SMOOTH",
"227 5 LINE",
"236 8 OFFCURVE",
"253 8 OFFCURVE",
"266 8 CURVE SMOOTH",
"286 8 LINE",
"286 7 LINE",
"293 7 LINE SMOOTH",
"300 7 OFFCURVE",
"305 8 OFFCURVE",
"312 8 CURVE SMOOTH",
"319 8 OFFCURVE",
"324 7 OFFCURVE",
"329 4 CURVE",
"329 8 LINE",
"340 7 OFFCURVE",
"347 5 OFFCURVE",
"352 4 CURVE",
"355 6 OFFCURVE",
"357 7 OFFCURVE",
"360 7 CURVE SMOOTH",
"367 7 OFFCURVE",
"373 -1 OFFCURVE",
"380 -1 CURVE SMOOTH",
"387 -1 OFFCURVE",
"387 8 OFFCURVE",
"394 8 CURVE",
"402 6 LINE",
"404 5 LINE",
"399 5 OFFCURVE",
"397 5 OFFCURVE",
"396 4 CURVE",
"411 5 OFFCURVE",
"419 5 OFFCURVE",
"420 5 CURVE SMOOTH",
"429 5 OFFCURVE",
"438 1 OFFCURVE",
"445 1 CURVE SMOOTH",
"451 1 OFFCURVE",
"456 4 OFFCURVE",
"459 10 CURVE",
"457 24 OFFCURVE",
"456 39 OFFCURVE",
"456 56 CURVE SMOOTH"
);
},
{
closed = 1;
nodes = (
"435 16 OFFCURVE",
"432 16 OFFCURVE",
"426 16 CURVE SMOOTH",
"413 16 LINE SMOOTH",
"401 16 OFFCURVE",
"393 23 OFFCURVE",
"381 23 CURVE SMOOTH",
"374 23 OFFCURVE",
"368 22 OFFCURVE",
"363 20 CURVE",
"363 23 OFFCURVE",
"228 19 OFFCURVE",
"111 27 CURVE",
"99 20 OFFCURVE",
"86 24 OFFCURVE",
"71 20 CURVE",
"59 20 OFFCURVE",
"65 30 OFFCURVE",
"62 38 CURVE",
"62 41 LINE SMOOTH",
"62 46 OFFCURVE",
"60 51 OFFCURVE",
"60 54 CURVE SMOOTH",
"60 57 OFFCURVE",
"62 59 OFFCURVE",
"65 61 CURVE",
"62 106 OFFCURVE",
"60 151 OFFCURVE",
"60 195 CURVE SMOOTH",
"60 291 OFFCURVE",
"66 383 OFFCURVE",
"66 479 CURVE SMOOTH",
"66 510 OFFCURVE",
"64 541 OFFCURVE",
"64 572 CURVE SMOOTH",
"64 608 OFFCURVE",
"66 645 OFFCURVE",
"67 680 CURVE",
"90 683 OFFCURVE",
"113 684 OFFCURVE",
"137 684 CURVE SMOOTH",
"151 684 OFFCURVE",
"186 683 OFFCURVE",
"186 676 CURVE",
"185 674 LINE",
"183 676 LINE",
"182 675 OFFCURVE",
"181 672 OFFCURVE",
"181 667 CURVE SMOOTH",
"181 557 LINE SMOOTH",
"181 522 OFFCURVE",
"178 519 OFFCURVE",
"178 514 CURVE SMOOTH",
"178 507 OFFCURVE",
"182 505 OFFCURVE",
"182 501 CURVE SMOOTH",
"182 499 OFFCURVE",
"181 497 OFFCURVE",
"178 495 CURVE",
"179 492 OFFCURVE",
"180 487 OFFCURVE",
"180 480 CURVE SMOOTH",
"180 438 LINE SMOOTH",
"180 431 OFFCURVE",
"181 426 OFFCURVE",
"182 423 CURVE",
"182 396 OFFCURVE",
"179 366 OFFCURVE",
"176 341 CURVE",
"174 334 LINE",
"173 338 OFFCURVE",
"172 340 OFFCURVE",
"171 340 CURVE",
"169 292 LINE SMOOTH",
"168 265 OFFCURVE",
"168 233 OFFCURVE",
"168 212 CURVE SMOOTH",
"168 197 OFFCURVE",
"169 183 OFFCURVE",
"174 168 CURVE",
"177 165 OFFCURVE",
"179 161 OFFCURVE",
"179 156 CURVE SMOOTH",
"179 151 OFFCURVE",
"177 145 OFFCURVE",
"177 140 CURVE SMOOTH",
"177 133 OFFCURVE",
"180 129 OFFCURVE",
"187 128 CURVE",
"190 131 OFFCURVE",
"191 135 OFFCURVE",
"191 141 CURVE",
"188 142 OFFCURVE",
"189 145 OFFCURVE",
"188 148 CURVE",
"272 132 OFFCURVE",
"351 136 OFFCURVE",
"439 133 CURVE",
"440 132 OFFCURVE",
"440 127 OFFCURVE",
"440 119 CURVE SMOOTH",
"440 107 OFFCURVE",
"437 95 OFFCURVE",
"437 83 CURVE SMOOTH",
"437 72 OFFCURVE",
"439 64 OFFCURVE",
"444 57 CURVE",
"443 42 OFFCURVE",
"441 27 OFFCURVE",
"436 15 CURVE"
);
}
);
width = 461;
}
);
note = L;
rightKerningGroup = L;
unicode = 004C;
},
{
glyphname = M;
layers = (
{
hints = (
{
horizontal = 1;
place = "{-2, 21}";
target = up;
type = BottomGhost;
},
{
horizontal = 1;
place = "{698, -20}";
target = down;
type = TopGhost;
},
{
place = "{39, 227}";
type = Stem;
},
{
place = "{310, 145}";
type = Stem;
},
{
place = "{174, 142}";
type = Stem;
},
{
horizontal = 1;
place = "{-5, 21}";
target = up;
type = BottomGhost;
},
{
place = "{39, 140}";
type = Stem;
},
{
horizontal = 1;
place = "{-7, 21}";
target = up;
type = BottomGhost;
}
);
layerId = "CFE16014-3183-49EF-AD56-7F9496F8AA7E";
paths = (
{
closed = 1;
nodes = (
"455 234 OFFCURVE",
"455 301 OFFCURVE",
"454 316 CURVE",
"457 348 OFFCURVE",
"458 380 OFFCURVE",
"458 412 CURVE SMOOTH",
"458 480 OFFCURVE",
"454 542 OFFCURVE",
"454 610 CURVE SMOOTH",
"454 648 LINE SMOOTH",
"454 661 OFFCURVE",
"455 673 OFFCURVE",
"456 686 CURVE",
"454 688 LINE SMOOTH",
"453 689 OFFCURVE",
"453 689 OFFCURVE",
"453 690 CURVE SMOOTH",
"453 693 OFFCURVE",
"457 693 OFFCURVE",
"457 696 CURVE",
"429 698 LINE",
"415 693 OFFCURVE",
"397 691 OFFCURVE",
"374 691 CURVE SMOOTH",
"349 691 OFFCURVE",
"326 693 OFFCURVE",
"305 693 CURVE",
"283 660 OFFCURVE",
"260 558 OFFCURVE",
"241 558 CURVE SMOOTH",
"224 558 OFFCURVE",
"221 625 OFFCURVE",
"197 654 CURVE",
"199 657 LINE",
"175 690 LINE",
"59 690 LINE SMOOTH",
"52 690 OFFCURVE",
"48 691 OFFCURVE",
"43 691 CURVE SMOOTH",
"38 691 OFFCURVE",
"38 689 OFFCURVE",
"35 673 CURVE",
"33 667 LINE",
"34 640 OFFCURVE",
"35 615 OFFCURVE",
"35 588 CURVE SMOOTH",
"35 501 OFFCURVE",
"29 424 OFFCURVE",
"29 338 CURVE",
"30 338 OFFCURVE",
"30 339 OFFCURVE",
"31 339 CURVE SMOOTH",
"33 339 OFFCURVE",
"31 321 OFFCURVE",
"39 81 CURVE SMOOTH",
"39 62 OFFCURVE",
"34 58 OFFCURVE",
"34 47 CURVE",
"36 47 LINE",
"37 45 OFFCURVE",
"37 42 OFFCURVE",
"37 38 CURVE SMOOTH",
"37 31 OFFCURVE",
"36 25 OFFCURVE",
"36 18 CURVE SMOOTH",
"36 -2 OFFCURVE",
"45 -5 OFFCURVE",
"57 -5 CURVE SMOOTH",
"81 -5 OFFCURVE",
"104 -3 OFFCURVE",
"128 -3 CURVE SMOOTH",
"143 -3 OFFCURVE",
"155 -4 OFFCURVE",
"170 -5 CURVE",
"174 -5 LINE",
"180 -1 LINE",
"179 1 OFFCURVE",
"179 6 OFFCURVE",
"179 14 CURVE SMOOTH",
"179 30 LINE SMOOTH",
"179 79 OFFCURVE",
"183 127 OFFCURVE",
"183 172 CURVE",
"182 172 LINE",
"184 183 LINE",
"181 228 OFFCURVE",
"181 269 OFFCURVE",
"181 305 CURVE SMOOTH",
"181 336 OFFCURVE",
"181 358 OFFCURVE",
"184 369 CURVE",
"190 366 OFFCURVE",
"198 324 OFFCURVE",
"201 321 CURVE",
"201 322 OFFCURVE",
"201 323 OFFCURVE",
"202 323 CURVE SMOOTH",
"205 323 OFFCURVE",
"220 298 OFFCURVE",
"232 275 CURVE",
"225 283 OFFCURVE",
"220 291 OFFCURVE",
"213 299 CURVE",
"211 299 LINE",
"214 292 OFFCURVE",
"218 286 OFFCURVE",
"218 279 CURVE SMOOTH",
"218 276 OFFCURVE",
"217 276 OFFCURVE",
"217 273 CURVE SMOOTH",
"217 268 OFFCURVE",
"230 259 OFFCURVE",
"230 248 CURVE",
"229 245 LINE",
"232 240 OFFCURVE",
"236 238 OFFCURVE",
"241 238 CURVE SMOOTH",
"269 238 OFFCURVE",
"267 333 OFFCURVE",
"299 352 CURVE",
"302 352 LINE",
"311 276 OFFCURVE",
"306 203 OFFCURVE",
"310 123 CURVE SMOOTH",
"311 111 OFFCURVE",
"312 99 OFFCURVE",
"312 87 CURVE SMOOTH",
"312 76 OFFCURVE",
"311 69 OFFCURVE",
"311 58 CURVE SMOOTH",
"311 35 OFFCURVE",
"312 15 OFFCURVE",
"319 -4 CURVE",
"320 -3 OFFCURVE",
"321 -3 OFFCURVE",
"322 -3 CURVE SMOOTH",
"325 -3 OFFCURVE",
"327 -7 OFFCURVE",
"330 -7 CURVE SMOOTH",
"331 -7 OFFCURVE",
"333 -5 OFFCURVE",
"334 -1 CURVE",
"336 -2 OFFCURVE",
"340 -2 OFFCURVE",
"346 -2 CURVE SMOOTH",
"359 -2 LINE SMOOTH",
"375 -2 OFFCURVE",
"391 -1 OFFCURVE",
"407 -1 CURVE SMOOTH",
"424 -1 OFFCURVE",
"438 -2 OFFCURVE",
"448 -5 CURVE",
"466 -2 OFFCURVE",
"460 21 OFFCURVE",
"463 32 CURVE",
"460 49 OFFCURVE",
"458 76 OFFCURVE",
"455 113 CURVE"
);
},
{
closed = 1;
nodes = (
"440 329 LINE",
"447 105 LINE",
"447 76 LINE",
"445 37 OFFCURVE",
"442 14 OFFCURVE",
"438 9 CURVE",
"417 6 OFFCURVE",
"396 5 OFFCURVE",
"375 5 CURVE SMOOTH",
"356 5 OFFCURVE",
"341 6 OFFCURVE",
"331 9 CURVE",
"331 16 OFFCURVE",
"316 230 OFFCURVE",
"316 285 CURVE SMOOTH",
"316 301 LINE SMOOTH",
"316 326 OFFCURVE",
"312 352 OFFCURVE",
"312 376 CURVE SMOOTH",
"312 384 OFFCURVE",
"313 391 OFFCURVE",
"314 399 CURVE",
"305 399 LINE",
"288 362 LINE SMOOTH",
"272 328 OFFCURVE",
"256 259 OFFCURVE",
"249 259 CURVE",
"249 260 LINE",
"245 256 LINE",
"238 272 OFFCURVE",
"225 298 OFFCURVE",
"213 322 CURVE",
"210 330 OFFCURVE",
"182 387 OFFCURVE",
"178 387 CURVE SMOOTH",
"175 387 OFFCURVE",
"173 380 OFFCURVE",
"173 366 CURVE SMOOTH",
"173 362 OFFCURVE",
"174 357 OFFCURVE",
"174 352 CURVE SMOOTH",
"175 232 LINE SMOOTH",
"175 201 OFFCURVE",
"177 170 OFFCURVE",
"177 147 CURVE",
"166 59 OFFCURVE",
"161 10 OFFCURVE",
"158 6 CURVE",
"139 2 OFFCURVE",
"123 1 OFFCURVE",
"107 1 CURVE SMOOTH",
"57 1 OFFCURVE",
"47 1 OFFCURVE",
"47 62 CURVE SMOOTH",
"47 101 OFFCURVE",
"48 132 OFFCURVE",
"48 167 CURVE SMOOTH",
"48 195 OFFCURVE",
"47 223 OFFCURVE",
"44 251 CURVE",
"44 277 LINE SMOOTH",
"44 317 OFFCURVE",
"41 360 OFFCURVE",
"41 403 CURVE SMOOTH",
"41 428 OFFCURVE",
"42 453 OFFCURVE",
"46 477 CURVE",
"43 494 OFFCURVE",
"41 508 OFFCURVE",
"41 521 CURVE SMOOTH",
"42 559 LINE",
"42 571 LINE SMOOTH",
"42 604 OFFCURVE",
"46 642 OFFCURVE",
"53 674 CURVE",
"72 674 LINE SMOOTH",
"83 674 OFFCURVE",
"100 673 OFFCURVE",
"125 673 CURVE SMOOTH",
"152 673 OFFCURVE",
"169 674 OFFCURVE",
"174 675 CURVE",
"179 663 OFFCURVE",
"189 644 OFFCURVE",
"198 624 CURVE",
"200 617 OFFCURVE",
"225 526 OFFCURVE",
"242 526 CURVE SMOOTH",
"245 526 OFFCURVE",
"247 528 OFFCURVE",
"250 528 CURVE",
"252 527 LINE",
"255 540 OFFCURVE",
"261 549 OFFCURVE",
"266 560 CURVE",
"269 608 OFFCURVE",
"296 686 OFFCURVE",
"365 686 CURVE SMOOTH",
"410 686 LINE SMOOTH",
"417 686 OFFCURVE",
"421 686 OFFCURVE",
"423 687 CURVE",
"432 681 OFFCURVE",
"436 677 OFFCURVE",
"436 676 CURVE",
"449 608 OFFCURVE",
"450 599 OFFCURVE",
"450 586 CURVE SMOOTH",
"450 566 OFFCURVE",
"449 551 OFFCURVE",
"449 532 CURVE SMOOTH",
"449 521 OFFCURVE",
"450 512 OFFCURVE",
"451 503 CURVE",
"447 488 OFFCURVE",
"447 477 OFFCURVE",
"447 465 CURVE SMOOTH",
"447 449 OFFCURVE",
"445 468 OFFCURVE",
"450 419 CURVE",
"447 404 LINE",
"450 399 OFFCURVE",
"451 393 OFFCURVE",
"451 387 CURVE"
);
},
{
closed = 1;
nodes = (
"315 196 LINE",
"315 205 LINE",
"316 207 LINE"
);
},
{
closed = 1;
nodes = (
"318 191 OFFCURVE",
"316 188 OFFCURVE",
"317 185 CURVE",
"314 188 OFFCURVE",
"316 191 OFFCURVE",
"315 194 CURVE"
);
}
);
width = 501;
}
);
note = M;
rightKerningGroup = M;
unicode = 004D;
},
{
glyphname = N;
layers = (
{
hints = (
{
horizontal = 1;
place = "{-1, 21}";
target = up;
type = BottomGhost;
},
{
horizontal = 1;
place = "{715, -20}";
target = down;
type = TopGhost;
},
{
place = "{31, 154}";
type = Stem;
},
{
horizontal = 1;
place = "{0, 21}";
target = up;
type = BottomGhost;
},
{
horizontal = 1;
place = "{-3, 21}";
target = up;
type = BottomGhost;
},
{
horizontal = 1;
place = "{-7, 21}";
target = up;
type = BottomGhost;
}
);
layerId = "CFE16014-3183-49EF-AD56-7F9496F8AA7E";
paths = (
{
closed = 1;
nodes = (
"456 287 OFFCURVE",
"454 358 OFFCURVE",
"454 434 CURVE SMOOTH",
"454 494 OFFCURVE",
"459 550 OFFCURVE",
"459 610 CURVE SMOOTH",
"459 637 OFFCURVE",
"458 663 OFFCURVE",
"455 690 CURVE",
"456 691 OFFCURVE",
"456 691 OFFCURVE",
"456 692 CURVE SMOOTH",
"456 695 OFFCURVE",
"451 697 OFFCURVE",
"451 701 CURVE SMOOTH",
"451 702 OFFCURVE",
"455 707 OFFCURVE",
"456 707 CURVE",
"457 710 LINE",
"447 713 OFFCURVE",
"440 715 OFFCURVE",
"436 715 CURVE",
"435 714 LINE",
"434 714 OFFCURVE",
"431 715 OFFCURVE",
"428 715 CURVE SMOOTH",
"374 715 OFFCURVE",
"355 710 OFFCURVE",
"323 710 CURVE SMOOTH",
"316 710 OFFCURVE",
"311 711 OFFCURVE",
"304 712 CURVE",
"296 703 OFFCURVE",
"302 685 OFFCURVE",
"297 678 CURVE",
"298 673 OFFCURVE",
"299 670 OFFCURVE",
"299 669 CURVE SMOOTH",
"302 534 LINE",
"300 537 LINE",
"308 473 OFFCURVE",
"309 478 OFFCURVE",
"309 454 CURVE",
"307 456 LINE",
"306 455 OFFCURVE",
"306 454 OFFCURVE",
"306 452 CURVE SMOOTH",
"306 449 OFFCURVE",
"308 446 OFFCURVE",
"308 443 CURVE SMOOTH",
"308 441 OFFCURVE",
"307 440 OFFCURVE",
"305 439 CURVE",
"296 450 OFFCURVE",
"294 459 OFFCURVE",
"283 470 CURVE",
"284 471 OFFCURVE",
"284 471 OFFCURVE",
"285 471 CURVE",
"281 475 LINE",
"281 491 OFFCURVE",
"264 501 OFFCURVE",
"260 516 CURVE",
"253 523 OFFCURVE",
"242 578 OFFCURVE",
"234 589 CURVE",
"222 608 OFFCURVE",
"205 627 OFFCURVE",
"200 642 CURVE",
"198 652 OFFCURVE",
"168 715 OFFCURVE",
"144 715 CURVE SMOOTH",
"123 715 OFFCURVE",
"103 706 OFFCURVE",
"84 706 CURVE SMOOTH",
"73 706 OFFCURVE",
"62 709 OFFCURVE",
"54 709 CURVE SMOOTH",
"41 709 OFFCURVE",
"31 706 OFFCURVE",
"31 687 CURVE SMOOTH",
"31 661 LINE SMOOTH",
"31 629 OFFCURVE",
"27 596 OFFCURVE",
"27 564 CURVE SMOOTH",
"27 554 LINE SMOOTH",
"27 549 OFFCURVE",
"27 545 OFFCURVE",
"28 544 CURVE",
"23 140 LINE",
"26 134 OFFCURVE",
"27 124 OFFCURVE",
"27 111 CURVE SMOOTH",
"27 100 OFFCURVE",
"25 92 OFFCURVE",
"25 81 CURVE SMOOTH",
"25 65 OFFCURVE",
"28 45 OFFCURVE",
"28 26 CURVE SMOOTH",
"28 15 OFFCURVE",
"27 7 OFFCURVE",
"25 1 CURVE",
"25 0 OFFCURVE",
"26 -1 OFFCURVE",
"27 -1 CURVE SMOOTH",
"29 -1 OFFCURVE",
"30 -1 OFFCURVE",
"30 0 CURVE",
"37 -5 LINE",
"49 0 LINE SMOOTH",
"56 3 OFFCURVE",
"62 1 OFFCURVE",
"69 2 CURVE",
"84 -3 OFFCURVE",
"102 2 OFFCURVE",
"141 -3 CURVE",
"150 0 OFFCURVE",
"156 1 OFFCURVE",
"161 1 CURVE SMOOTH",
"164 1 OFFCURVE",
"165 -3 OFFCURVE",
"169 -3 CURVE SMOOTH",
"172 -3 OFFCURVE",
"176 -1 OFFCURVE",
"180 3 CURVE",
"183 -3 LINE",
"184 4 OFFCURVE",
"185 7 OFFCURVE",
"185 7 CURVE",
"185 15 LINE SMOOTH",
"185 23 OFFCURVE",
"182 24 OFFCURVE",
"182 32 CURVE SMOOTH",
"182 35 OFFCURVE",
"183 40 OFFCURVE",
"185 48 CURVE",
"183 68 OFFCURVE",
"182 82 OFFCURVE",
"182 91 CURVE SMOOTH",
"182 102 OFFCURVE",
"188 124 OFFCURVE",
"188 136 CURVE SMOOTH",
"188 138 OFFCURVE",
"188 139 OFFCURVE",
"187 140 CURVE",
"188 142 OFFCURVE",
"188 146 OFFCURVE",
"188 152 CURVE SMOOTH",
"188 209 LINE SMOOTH",
"188 217 OFFCURVE",
"184 266 OFFCURVE",
"184 278 CURVE SMOOTH",
"184 289 LINE SMOOTH",
"184 296 OFFCURVE",
"185 301 OFFCURVE",
"187 305 CURVE",
"231 217 LINE",
"232 203 LINE",
"236 188 OFFCURVE",
"239 181 OFFCURVE",
"242 181 CURVE SMOOTH",
"243 181 OFFCURVE",
"243 181 OFFCURVE",
"243 182 CURVE",
"253 154 LINE",
"288 41 OFFCURVE",
"279 41 OFFCURVE",
"321 -1 CURVE",
"322 -4 OFFCURVE",
"325 -4 OFFCURVE",
"325 -7 CURVE",
"330 -2 LINE",
"341 -1 OFFCURVE",
"353 0 OFFCURVE",
"365 0 CURVE SMOOTH",
"382 0 OFFCURVE",
"398 -1 OFFCURVE",
"415 -1 CURVE SMOOTH",
"428 -1 LINE",
"460 10 OFFCURVE",
"457 11 OFFCURVE",
"458 11 CURVE",
"455 19 OFFCURVE",
"456 59 OFFCURVE",
"453 98 CURVE",
"456 137 OFFCURVE",
"456 172 OFFCURVE",
"456 211 CURVE SMOOTH"
);
},
{
closed = 1;
nodes = (
"440 39 LINE",
"441 17 LINE",
"436 17 LINE SMOOTH",
"429 17 OFFCURVE",
"423 15 OFFCURVE",
"416 15 CURVE SMOOTH",
"411 15 OFFCURVE",
"408 16 OFFCURVE",
"406 18 CURVE",
"398 16 OFFCURVE",
"389 15 OFFCURVE",
"380 15 CURVE SMOOTH",
"361 15 OFFCURVE",
"345 18 OFFCURVE",
"326 18 CURVE",
"296 96 OFFCURVE",
"282 123 OFFCURVE",
"255 200 CURVE",
"248 203 OFFCURVE",
"255 210 OFFCURVE",
"248 214 CURVE",
"243 227 LINE",
"244 228 OFFCURVE",
"244 229 OFFCURVE",
"244 231 CURVE SMOOTH",
"244 235 OFFCURVE",
"239 237 OFFCURVE",
"236 244 CURVE",
"225 284 OFFCURVE",
"192 307 OFFCURVE",
"187 349 CURVE",
"183 350 LINE",
"165 350 OFFCURVE",
"168 323 OFFCURVE",
"166 308 CURVE",
"168 305 LINE",
"168 241 OFFCURVE",
"170 196 OFFCURVE",
"170 149 CURVE SMOOTH",
"170 118 OFFCURVE",
"171 88 OFFCURVE",
"166 57 CURVE SMOOTH",
"161 28 LINE",
"160 28 OFFCURVE",
"159 27 OFFCURVE",
"158 25 CURVE",
"158 22 OFFCURVE",
"161 20 OFFCURVE",
"161 16 CURVE",
"143 12 OFFCURVE",
"124 10 OFFCURVE",
"104 10 CURVE SMOOTH",
"84 10 OFFCURVE",
"66 11 OFFCURVE",
"51 14 CURVE",
"44 87 OFFCURVE",
"48 180 OFFCURVE",
"45 260 CURVE",
"42 265 OFFCURVE",
"42 297 OFFCURVE",
"42 340 CURVE SMOOTH",
"42 380 OFFCURVE",
"45 418 OFFCURVE",
"45 457 CURVE SMOOTH",
"45 468 OFFCURVE",
"44 477 OFFCURVE",
"44 488 CURVE",
"47 492 LINE",
"53 684 LINE",
"81 687 OFFCURVE",
"107 696 OFFCURVE",
"136 696 CURVE SMOOTH",
"141 696 OFFCURVE",
"146 695 OFFCURVE",
"151 695 CURVE",
"226 596 OFFCURVE",
"233 552 OFFCURVE",
"262 483 CURVE",
"273 464 LINE",
"276 464 OFFCURVE",
"305 426 OFFCURVE",
"311 426 CURVE",
"317 434 LINE",
"316 473 OFFCURVE",
"315 510 OFFCURVE",
"315 549 CURVE SMOOTH",
"315 597 OFFCURVE",
"316 645 OFFCURVE",
"320 692 CURVE",
"339 692 OFFCURVE",
"357 693 OFFCURVE",
"376 693 CURVE SMOOTH",
"398 693 LINE SMOOTH",
"406 693 OFFCURVE",
"414 692 OFFCURVE",
"422 691 CURVE",
"429 692 OFFCURVE",
"432 693 OFFCURVE",
"435 693 CURVE",
"438 688 OFFCURVE",
"439 682 OFFCURVE",
"439 676 CURVE SMOOTH",
"439 672 LINE",
"434 670 LINE",
"439 661 LINE",
"440 633 OFFCURVE",
"441 604 OFFCURVE",
"441 576 CURVE SMOOTH",
"443 161 LINE SMOOTH",
"443 130 OFFCURVE",
"441 100 OFFCURVE",
"441 69 CURVE SMOOTH",
"441 54 LINE SMOOTH",
"441 46 OFFCURVE",
"441 41 OFFCURVE",
"442 39 CURVE"
);
},
{
closed = 1;
nodes = (
"23 140 OFFCURVE",
"23 140 OFFCURVE",
"23 140 CURVE SMOOTH"
);
}
);
width = 498;
}
);
note = N;
rightKerningGroup = M;
unicode = 004E;
},
{
glyphname = O;
layers = (
{
hints = (
{
horizontal = 1;
place = "{-6, 21}";
target = up;
type = BottomGhost;
},
{
horizontal = 1;
place = "{535, 28}";
type = Stem;
},
{
place = "{152, 24}";
type = Stem;
},
{
place = "{289, 37}";
type = Stem;
},
{
place = "{420, 29}";
type = Stem;
},
{
horizontal = 1;
place = "{535, 162}";
type = Stem;
},
{
place = "{30, 146}";
type = Stem;
},
{
horizontal = 1;
place = "{-10, 21}";
target = up;
type = BottomGhost;
},
{
place = "{137, 39}";
type = Stem;
}
);
layerId = "CFE16014-3183-49EF-AD56-7F9496F8AA7E";
paths = (
{
closed = 1;
nodes = (
"448 354 LINE SMOOTH",
"448 393 OFFCURVE",
"452 434 OFFCURVE",
"452 473 CURVE SMOOTH",
"452 514 OFFCURVE",
"448 554 OFFCURVE",
"432 591 CURVE",
"405 669 OFFCURVE",
"317 697 OFFCURVE",
"234 697 CURVE SMOOTH",
"214 697 LINE SMOOTH",
"151 697 OFFCURVE",
"84 676 OFFCURVE",
"60 614 CURVE",
"28 567 OFFCURVE",
"35 503 OFFCURVE",
"30 448 CURVE",
"30 409 OFFCURVE",
"27 371 OFFCURVE",
"27 334 CURVE SMOOTH",
"27 321 LINE",
"38 243 OFFCURVE",
"25 177 OFFCURVE",
"44 99 CURVE SMOOTH",
"55 46 OFFCURVE",
"108 -10 OFFCURVE",
"164 -10 CURVE SMOOTH",
"192 -10 OFFCURVE",
"214 -6 OFFCURVE",
"243 -6 CURVE SMOOTH",
"262 -6 LINE",
"305 5 OFFCURVE",
"358 3 OFFCURVE",
"390 38 CURVE",
"449 130 OFFCURVE",
"444 226 OFFCURVE",
"449 326 CURVE",
"448 328 OFFCURVE",
"448 333 OFFCURVE",
"448 340 CURVE SMOOTH"
);
},
{
closed = 1;
nodes = (
"421 368 OFFCURVE",
"420 336 OFFCURVE",
"420 289 CURVE",
"422 292 LINE",
"420 284 LINE",
"420 213 LINE SMOOTH",
"420 144 OFFCURVE",
"415 139 OFFCURVE",
"351 48 CURVE",
"230 19 OFFCURVE",
"239 27 OFFCURVE",
"206 19 CURVE",
"163 22 OFFCURVE",
"112 30 OFFCURVE",
"91 75 CURVE",
"46 126 OFFCURVE",
"54 206 OFFCURVE",
"43 273 CURVE",
"42 317 LINE",
"43 317 OFFCURVE",
"43 317 OFFCURVE",
"44 316 CURVE",
"45 316 LINE",
"42 327 OFFCURVE",
"41 344 OFFCURVE",
"41 367 CURVE SMOOTH",
"41 412 OFFCURVE",
"47 442 OFFCURVE",
"47 525 CURVE SMOOTH",
"47 582 OFFCURVE",
"81 635 OFFCURVE",
"128 662 CURVE",
"128 661 OFFCURVE",
"128 660 OFFCURVE",
"127 659 CURVE",
"128 656 LINE",
"147 675 OFFCURVE",
"171 679 OFFCURVE",
"198 679 CURVE SMOOTH",
"266 679 OFFCURVE",
"332 669 OFFCURVE",
"384 642 CURVE",
"419 591 OFFCURVE",
"423 526 OFFCURVE",
"423 485 CURVE SMOOTH",
"423 445 OFFCURVE",
"422 433 OFFCURVE",
"422 414 CURVE SMOOTH",
"422 403 OFFCURVE",
"423 395 OFFCURVE",
"423 384 CURVE"
);
},
{
closed = 1;
nodes = (
"272 559 OFFCURVE",
"265 563 OFFCURVE",
"254 563 CURVE SMOOTH",
"243 563 OFFCURVE",
"254 555 OFFCURVE",
"243 555 CURVE SMOOTH",
"203 555 OFFCURVE",
"185 541 OFFCURVE",
"168 524 CURVE",
"163 520 OFFCURVE",
"165 513 OFFCURVE",
"158 510 CURVE",
"149 469 LINE",
"151 458 OFFCURVE",
"152 447 OFFCURVE",
"152 438 CURVE SMOOTH",
"152 393 OFFCURVE",
"137 350 OFFCURVE",
"137 303 CURVE SMOOTH",
"137 293 LINE",
"140 237 OFFCURVE",
"144 204 OFFCURVE",
"147 189 CURVE",
"171 154 OFFCURVE",
"191 122 OFFCURVE",
"241 122 CURVE SMOOTH",
"248 122 OFFCURVE",
"253 123 OFFCURVE",
"256 134 CURVE",
"277 134 OFFCURVE",
"317 162 OFFCURVE",
"317 170 CURVE SMOOTH",
"317 174 LINE",
"324 195 OFFCURVE",
"326 219 OFFCURVE",
"326 242 CURVE",
"323 373 OFFCURVE",
"322 441 OFFCURVE",
"321 452 CURVE",
"318 475 OFFCURVE",
"316 496 OFFCURVE",
"304 535 CURVE"
);
},
{
closed = 1;
nodes = (
"253 174 OFFCURVE",
"238 165 OFFCURVE",
"215 152 CURVE",
"211 152 LINE",
"178 195 OFFCURVE",
"187 258 OFFCURVE",
"179 314 CURVE SMOOTH",
"175 341 OFFCURVE",
"176 365 OFFCURVE",
"176 392 CURVE SMOOTH",
"176 422 LINE SMOOTH",
"176 433 OFFCURVE",
"176 443 OFFCURVE",
"177 454 CURVE",
"178 461 OFFCURVE",
"176 487 OFFCURVE",
"181 502 CURVE",
"197 513 LINE",
"194 503 LINE",
"198 502 LINE",
"214 518 OFFCURVE",
"207 535 OFFCURVE",
"245 535 CURVE SMOOTH",
"292 535 OFFCURVE",
"277 442 OFFCURVE",
"285 404 CURVE",
"288 379 OFFCURVE",
"289 353 OFFCURVE",
"289 326 CURVE SMOOTH",
"289 304 OFFCURVE",
"279 255 OFFCURVE",
"260 179 CURVE"
);
}
);
width = 483;
}
);
leftKerningGroup = G;
note = O;
rightKerningGroup = O;
unicode = 004F;
},
{
glyphname = P;
layers = (
{
hints = (
{
horizontal = 1;
place = "{-3, 21}";
target = up;
type = BottomGhost;
},
{
horizontal = 1;
place = "{707, -20}";
target = down;
type = TopGhost;
},
{
place = "{43, 30}";
type = Stem;
},
{
place = "{193, 21}";
type = Stem;
},
{
place = "{324, 21}";
type = Stem;
},
{
place = "{324, 163}";
type = Stem;
}
);
layerId = "CFE16014-3183-49EF-AD56-7F9496F8AA7E";
paths = (
{
closed = 1;
nodes = (
"252 703 OFFCURVE",
"204 707 OFFCURVE",
"153 707 CURVE SMOOTH",
"124 707 LINE SMOOTH",
"90 707 OFFCURVE",
"43 703 OFFCURVE",
"43 683 CURVE SMOOTH",
"43 623 OFFCURVE",
"45 588 OFFCURVE",
"48 576 CURVE",
"47 559 OFFCURVE",
"47 542 OFFCURVE",
"47 525 CURVE SMOOTH",
"47 475 LINE SMOOTH",
"47 422 OFFCURVE",
"46 401 OFFCURVE",
"46 373 CURVE SMOOTH",
"46 336 OFFCURVE",
"47 283 OFFCURVE",
"52 124 CURVE",
"50 105 OFFCURVE",
"49 87 OFFCURVE",
"49 71 CURVE SMOOTH",
"49 54 OFFCURVE",
"52 39 OFFCURVE",
"52 20 CURVE SMOOTH",
"52 11 OFFCURVE",
"40 7 OFFCURVE",
"40 4 CURVE",
"42 4 LINE SMOOTH",
"43 4 OFFCURVE",
"43 3 OFFCURVE",
"44 3 CURVE",
"46 5 OFFCURVE",
"48 6 OFFCURVE",
"49 6 CURVE SMOOTH",
"53 6 OFFCURVE",
"56 0 OFFCURVE",
"59 -3 CURVE",
"60 2 OFFCURVE",
"63 5 OFFCURVE",
"67 5 CURVE SMOOTH",
"134 5 LINE SMOOTH",
"149 5 OFFCURVE",
"170 8 OFFCURVE",
"177 8 CURVE SMOOTH",
"184 8 OFFCURVE",
"181 8 OFFCURVE",
"185 5 CURVE",
"187 6 LINE",
"198 12 OFFCURVE",
"204 15 OFFCURVE",
"205 15 CURVE SMOOTH",
"208 15 OFFCURVE",
"212 14 OFFCURVE",
"217 11 CURVE",
"221 16 LINE",
"221 20 OFFCURVE",
"214 18 OFFCURVE",
"214 25 CURVE SMOOTH",
"214 30 OFFCURVE",
"215 33 OFFCURVE",
"218 36 CURVE",
"215 39 OFFCURVE",
"213 42 OFFCURVE",
"213 45 CURVE SMOOTH",
"213 47 LINE",
"214 46 OFFCURVE",
"215 45 OFFCURVE",
"216 45 CURVE",
"216 46 LINE SMOOTH",
"216 61 OFFCURVE",
"215 76 OFFCURVE",
"215 91 CURVE SMOOTH",
"215 143 LINE SMOOTH",
"215 152 OFFCURVE",
"216 161 OFFCURVE",
"213 170 CURVE",
"212 168 LINE",
"212 175 LINE",
"213 175 OFFCURVE",
"213 176 OFFCURVE",
"213 177 CURVE SMOOTH",
"213 180 OFFCURVE",
"211 181 OFFCURVE",
"211 184 CURVE SMOOTH",
"211 186 OFFCURVE",
"212 187 OFFCURVE",
"215 188 CURVE",
"214 189 OFFCURVE",
"214 192 OFFCURVE",
"214 197 CURVE SMOOTH",
"214 205 LINE SMOOTH",
"214 222 OFFCURVE",
"216 237 OFFCURVE",
"219 254 CURVE",
"213 261 LINE",
"216 263 LINE",
"217 262 OFFCURVE",
"220 262 OFFCURVE",
"225 262 CURVE SMOOTH",
"234 262 LINE SMOOTH",
"251 262 OFFCURVE",
"267 264 OFFCURVE",
"286 264 CURVE SMOOTH",
"294 264 LINE",
"347 271 OFFCURVE",
"387 305 OFFCURVE",
"430 336 CURVE",
"458 381 OFFCURVE",
"487 429 OFFCURVE",
"487 485 CURVE SMOOTH",
"487 576 OFFCURVE",
"402 687 OFFCURVE",
"303 700 CURVE"
);
},
{
closed = 1;
nodes = (
"342 297 OFFCURVE",
"310 275 OFFCURVE",
"258 275 CURVE SMOOTH",
"237 275 OFFCURVE",
"221 277 OFFCURVE",
"209 282 CURVE",
"209 291 OFFCURVE",
"206 295 OFFCURVE",
"201 295 CURVE",
"200 289 LINE",
"195 289 OFFCURVE",
"193 288 OFFCURVE",
"193 285 CURVE SMOOTH",
"193 282 OFFCURVE",
"195 281 OFFCURVE",
"195 278 CURVE SMOOTH",
"195 275 OFFCURVE",
"193 276 OFFCURVE",
"193 273 CURVE SMOOTH",
"193 270 OFFCURVE",
"195 264 OFFCURVE",
"195 253 CURVE SMOOTH",
"195 246 OFFCURVE",
"193 240 OFFCURVE",
"193 235 CURVE SMOOTH",
"193 230 OFFCURVE",
"195 226 OFFCURVE",
"198 223 CURVE",
"203 204 OFFCURVE",
"198 175 OFFCURVE",
"202 160 CURVE",
"201 148 OFFCURVE",
"200 136 OFFCURVE",
"200 121 CURVE SMOOTH",
"200 110 OFFCURVE",
"201 100 OFFCURVE",
"201 89 CURVE SMOOTH",
"201 76 LINE SMOOTH",
"201 57 OFFCURVE",
"199 29 OFFCURVE",
"196 29 CURVE",
"194 30 LINE",
"194 22 LINE SMOOTH",
"194 20 OFFCURVE",
"161 14 OFFCURVE",
"140 14 CURVE SMOOTH",
"124 14 OFFCURVE",
"108 15 OFFCURVE",
"92 16 CURVE",
"91 18 OFFCURVE",
"89 19 OFFCURVE",
"88 19 CURVE SMOOTH",
"84 19 LINE SMOOTH",
"83 19 OFFCURVE",
"82 20 OFFCURVE",
"81 21 CURVE",
"72 22 LINE",
"72 25 OFFCURVE",
"73 24 OFFCURVE",
"73 27 CURVE SMOOTH",
"73 30 OFFCURVE",
"68 37 OFFCURVE",
"68 45 CURVE SMOOTH",
"68 49 OFFCURVE",
"69 52 OFFCURVE",
"69 57 CURVE SMOOTH",
"69 63 OFFCURVE",
"65 89 OFFCURVE",
"65 94 CURVE",
"66 95 OFFCURVE",
"66 100 OFFCURVE",
"66 108 CURVE SMOOTH",
"66 123 OFFCURVE",
"63 139 OFFCURVE",
"63 155 CURVE SMOOTH",
"63 162 OFFCURVE",
"64 170 OFFCURVE",
"66 178 CURVE",
"64 196 OFFCURVE",
"63 214 OFFCURVE",
"63 231 CURVE SMOOTH",
"63 252 OFFCURVE",
"66 291 OFFCURVE",
"71 351 CURVE",
"71 356 OFFCURVE",
"71 359 OFFCURVE",
"70 360 CURVE",
"70 363 OFFCURVE",
"70 392 OFFCURVE",
"73 452 CURVE SMOOTH",
"76 512 OFFCURVE",
"77 543 OFFCURVE",
"77 550 CURVE SMOOTH",
"77 557 OFFCURVE",
"76 564 OFFCURVE",
"75 572 CURVE",
"80 609 OFFCURVE",
"80 642 OFFCURVE",
"81 681 CURVE",
"82 682 OFFCURVE",
"85 682 OFFCURVE",
"90 682 CURVE",
"110 687 LINE",
"111 686 OFFCURVE",
"112 685 OFFCURVE",
"113 685 CURVE SMOOTH",
"116 685 OFFCURVE",
"119 688 OFFCURVE",
"122 688 CURVE SMOOTH",
"139 688 LINE",
"140 687 OFFCURVE",
"142 686 OFFCURVE",
"145 686 CURVE",
"149 693 OFFCURVE",
"161 688 OFFCURVE",
"169 691 CURVE",
"170 689 OFFCURVE",
"171 688 OFFCURVE",
"174 688 CURVE",
"189 689 LINE",
"203 689 LINE SMOOTH",
"259 689 OFFCURVE",
"318 660 OFFCURVE",
"350 660 CURVE SMOOTH",
"363 660 OFFCURVE",
"397 626 OFFCURVE",
"410 615 CURVE",
"446 565 LINE",
"455 538 OFFCURVE",
"462 510 OFFCURVE",
"465 481 CURVE",
"457 448 OFFCURVE",
"465 402 OFFCURVE",
"438 375 CURVE",
"433 348 OFFCURVE",
"397 318 OFFCURVE",
"362 305 CURVE SMOOTH"
);
},
{
closed = 1;
nodes = (
"221 557 LINE SMOOTH",
"216 557 OFFCURVE",
"212 557 OFFCURVE",
"211 556 CURVE SMOOTH",
"209 554 OFFCURVE",
"206 553 OFFCURVE",
"203 553 CURVE SMOOTH",
"200 553 OFFCURVE",
"199 554 OFFCURVE",
"196 554 CURVE SMOOTH",
"191 554 OFFCURVE",
"188 552 OFFCURVE",
"188 547 CURVE SMOOTH",
"192 420 LINE",
"189 418 OFFCURVE",
"188 416 OFFCURVE",
"188 415 CURVE SMOOTH",
"188 411 OFFCURVE",
"195 406 OFFCURVE",
"195 403 CURVE",
"218 404 OFFCURVE",
"236 403 OFFCURVE",
"259 406 CURVE",
"294 417 OFFCURVE",
"345 408 OFFCURVE",
"345 476 CURVE SMOOTH",
"345 529 OFFCURVE",
"275 557 OFFCURVE",
"232 557 CURVE SMOOTH"
);
},
{
closed = 1;
nodes = (
"285 433 OFFCURVE",
"258 425 OFFCURVE",
"227 420 CURVE",
"224 423 OFFCURVE",
"216 421 OFFCURVE",
"212 424 CURVE",
"201 492 OFFCURVE",
"202 525 OFFCURVE",
"202 534 CURVE SMOOTH",
"202 542 OFFCURVE",
"204 540 OFFCURVE",
"220 543 CURVE",
"257 530 OFFCURVE",
"324 537 OFFCURVE",
"324 478 CURVE SMOOTH",
"324 464 OFFCURVE",
"320 452 OFFCURVE",
"312 442 CURVE"
);
}
);
width = 497;
}
);
note = P;
rightKerningGroup = P;
unicode = 0050;
},
{
glyphname = Q;
layers = (
{
hints = (
{
horizontal = 1;
place = "{-8, 21}";
target = up;
type = BottomGhost;
},
{
place = "{138, 207}";
type = Stem;
},
{
place = "{330, 134}";
type = Stem;
},
{
place = "{28, 135}";
type = Stem;
}
);
layerId = "CFE16014-3183-49EF-AD56-7F9496F8AA7E";
paths = (
{
closed = 1;
nodes = (
"465 305 LINE",
"464 326 OFFCURVE",
"463 348 OFFCURVE",
"463 369 CURVE SMOOTH",
"463 392 OFFCURVE",
"464 415 OFFCURVE",
"464 438 CURVE SMOOTH",
"464 528 OFFCURVE",
"459 637 OFFCURVE",
"379 693 CURVE",
"349 718 OFFCURVE",
"278 716 OFFCURVE",
"269 716 CURVE SMOOTH",
"251 716 LINE SMOOTH",
"190 716 OFFCURVE",
"148 719 OFFCURVE",
"81 658 CURVE SMOOTH",
"24 604 OFFCURVE",
"37 594 OFFCURVE",
"29 563 CURVE",
"30 555 OFFCURVE",
"30 547 OFFCURVE",
"30 539 CURVE SMOOTH",
"30 515 LINE SMOOTH",
"30 480 OFFCURVE",
"28 446 OFFCURVE",
"28 410 CURVE SMOOTH",
"28 394 OFFCURVE",
"29 377 OFFCURVE",
"29 361 CURVE SMOOTH",
"29 321 OFFCURVE",
"27 280 OFFCURVE",
"27 239 CURVE SMOOTH",
"27 199 OFFCURVE",
"26 124 OFFCURVE",
"43 113 CURVE",
"46 90 OFFCURVE",
"64 75 OFFCURVE",
"72 55 CURVE",
"96 12 OFFCURVE",
"148 4 OFFCURVE",
"195 4 CURVE SMOOTH",
"241 4 LINE SMOOTH",
"278 4 OFFCURVE",
"312 11 OFFCURVE",
"348 18 CURVE",
"349 17 OFFCURVE",
"349 17 OFFCURVE",
"349 16 CURVE SMOOTH",
"349 15 OFFCURVE",
"349 14 OFFCURVE",
"348 13 CURVE",
"348 12 LINE SMOOTH",
"348 4 OFFCURVE",
"370 -8 OFFCURVE",
"377 -8 CURVE",
"389 -1 LINE",
"412 9 OFFCURVE",
"454 34 OFFCURVE",
"454 39 CURVE SMOOTH",
"454 47 OFFCURVE",
"426 78 OFFCURVE",
"422 82 CURVE",
"441 97 LINE",
"457 140 OFFCURVE",
"461 163 OFFCURVE",
"461 194 CURVE SMOOTH",
"461 210 LINE SMOOTH",
"461 217 OFFCURVE",
"461 222 OFFCURVE",
"460 229 CURVE"
);
},
{
closed = 1;
nodes = (
"418 90 OFFCURVE",
"410 94 OFFCURVE",
"410 82 CURVE",
"413 75 OFFCURVE",
"424 67 OFFCURVE",
"427 62 CURVE",
"427 59 OFFCURVE",
"434 47 OFFCURVE",
"441 39 CURVE",
"437 36 OFFCURVE",
"431 34 OFFCURVE",
"428 31 CURVE",
"424 29 LINE",
"413 21 OFFCURVE",
"384 3 OFFCURVE",
"380 3 CURVE SMOOTH",
"372 3 OFFCURVE",
"360 37 OFFCURVE",
"349 37 CURVE SMOOTH",
"346 37 OFFCURVE",
"344 34 OFFCURVE",
"339 31 CURVE",
"316 19 OFFCURVE",
"288 15 OFFCURVE",
"260 15 CURVE SMOOTH",
"212 15 OFFCURVE",
"135 20 OFFCURVE",
"92 63 CURVE SMOOTH",
"45 110 OFFCURVE",
"40 163 OFFCURVE",
"40 219 CURVE SMOOTH",
"40 263 LINE SMOOTH",
"40 282 OFFCURVE",
"39 300 OFFCURVE",
"39 320 CURVE SMOOTH",
"39 347 OFFCURVE",
"41 376 OFFCURVE",
"41 403 CURVE SMOOTH",
"41 418 OFFCURVE",
"40 434 OFFCURVE",
"38 449 CURVE",
"39 450 OFFCURVE",
"40 452 OFFCURVE",
"40 455 CURVE",
"39 470 LINE",
"40 470 LINE",
"45 505 OFFCURVE",
"41 544 OFFCURVE",
"45 580 CURVE SMOOTH",
"49 616 OFFCURVE",
"65 633 OFFCURVE",
"105 666 CURVE",
"132 702 OFFCURVE",
"185 706 OFFCURVE",
"236 706 CURVE SMOOTH",
"247 706 OFFCURVE",
"259 705 OFFCURVE",
"270 705 CURVE SMOOTH",
"278 705 OFFCURVE",
"287 705 OFFCURVE",
"295 706 CURVE",
"351 698 OFFCURVE",
"411 667 OFFCURVE",
"430 611 CURVE",
"448 606 OFFCURVE",
"458 546 OFFCURVE",
"458 510 CURVE SMOOTH",
"458 499 OFFCURVE",
"457 489 OFFCURVE",
"456 478 CURVE",
"459 433 OFFCURVE",
"461 449 OFFCURVE",
"461 319 CURVE SMOOTH",
"461 234 OFFCURVE",
"455 127 OFFCURVE",
"425 97 CURVE SMOOTH"
);
},
{
closed = 1;
nodes = (
"332 486 LINE",
"332 489 OFFCURVE",
"333 489 OFFCURVE",
"333 492 CURVE SMOOTH",
"333 535 OFFCURVE",
"301 574 OFFCURVE",
"245 574 CURVE SMOOTH",
"216 574 OFFCURVE",
"188 562 OFFCURVE",
"165 549 CURVE",
"142 513 OFFCURVE",
"138 467 OFFCURVE",
"138 423 CURVE SMOOTH",
"138 401 LINE SMOOTH",
"138 394 OFFCURVE",
"138 388 OFFCURVE",
"139 381 CURVE",
"136 379 LINE",
"136 369 OFFCURVE",
"134 404 OFFCURVE",
"150 227 CURVE",
"150 222 OFFCURVE",
"150 219 OFFCURVE",
"149 218 CURVE",
"146 219 LINE",
"189 125 OFFCURVE",
"186 139 OFFCURVE",
"203 122 CURVE",
"197 120 LINE",
"198 119 OFFCURVE",
"199 119 OFFCURVE",
"201 119 CURVE SMOOTH",
"208 119 LINE SMOOTH",
"217 119 OFFCURVE",
"227 114 OFFCURVE",
"238 114 CURVE SMOOTH",
"250 114 OFFCURVE",
"260 115 OFFCURVE",
"269 118 CURVE",
"270 118 LINE",
"274 121 LINE",
"276 124 LINE",
"275 127 LINE",
"262 143 OFFCURVE",
"237 183 OFFCURVE",
"234 186 CURVE",
"242 193 LINE",
"246 195 LINE",
"257 203 OFFCURVE",
"278 222 OFFCURVE",
"285 222 CURVE SMOOTH",
"292 222 OFFCURVE",
"305 196 OFFCURVE",
"329 173 CURVE",
"331 172 LINE",
"330 171 LINE",
"331 171 LINE",
"332 169 OFFCURVE",
"332 168 OFFCURVE",
"333 168 CURVE",
"335 170 LINE SMOOTH",
"336 171 OFFCURVE",
"336 172 OFFCURVE",
"336 173 CURVE SMOOTH",
"336 175 LINE",
"343 218 OFFCURVE",
"345 263 OFFCURVE",
"345 308 CURVE SMOOTH",
"345 365 OFFCURVE",
"342 420 OFFCURVE",
"335 476 CURVE"
);
},
{
closed = 1;
nodes = (
"264 222 LINE",
"260 220 LINE",
"261 220 LINE",
"246 207 OFFCURVE",
"219 193 OFFCURVE",
"219 186 CURVE SMOOTH",
"219 168 OFFCURVE",
"244 143 OFFCURVE",
"252 135 CURVE",
"251 134 OFFCURVE",
"247 134 OFFCURVE",
"241 134 CURVE SMOOTH",
"210 134 OFFCURVE",
"177 185 OFFCURVE",
"169 216 CURVE",
"165 260 OFFCURVE",
"163 305 OFFCURVE",
"163 351 CURVE SMOOTH",
"163 404 OFFCURVE",
"165 455 OFFCURVE",
"168 506 CURVE",
"177 534 OFFCURVE",
"209 563 OFFCURVE",
"246 566 CURVE",
"277 558 LINE",
"277 561 LINE",
"280 552 OFFCURVE",
"297 551 OFFCURVE",
"304 542 CURVE",
"305 538 OFFCURVE",
"307 528 OFFCURVE",
"311 528 CURVE SMOOTH",
"312 528 OFFCURVE",
"314 529 OFFCURVE",
"315 530 CURVE",
"322 511 OFFCURVE",
"327 492 OFFCURVE",
"327 471 CURVE SMOOTH",
"327 466 OFFCURVE",
"326 462 OFFCURVE",
"326 458 CURVE",
"322 455 LINE",
"331 402 OFFCURVE",
"330 349 OFFCURVE",
"330 285 CURVE SMOOTH",
"330 253 OFFCURVE",
"329 221 OFFCURVE",
"322 197 CURVE",
"319 205 OFFCURVE",
"305 235 OFFCURVE",
"289 238 CURVE",
"289 237 LINE SMOOTH",
"289 234 OFFCURVE",
"273 226 OFFCURVE",
"265 222 CURVE SMOOTH",
"263 221 LINE"
);
}
);
width = 495;
}
);
leftKerningGroup = Q;
note = Q;
rightKerningGroup = Q;
unicode = 0051;
},
{
glyphname = R;
layers = (
{
hints = (
{
horizontal = 1;
place = "{-1, 21}";
target = up;
type = BottomGhost;
},
{
horizontal = 1;
place = "{559, 146}";
type = Stem;
},
{
place = "{40, 149}";
type = Stem;
},
{
place = "{194, 136}";
type = Stem;
},
{
place = "{323, 171}";
type = Stem;
},
{
horizontal = 1;
place = "{711, -20}";
target = down;
type = TopGhost;
},
{
horizontal = 1;
place = "{0, 21}";
target = up;
type = BottomGhost;
},
{
place = "{40, 33}";
type = Stem;
},
{
place = "{40, 167}";
type = Stem;
},
{
place = "{474, 20}";
type = Stem;
},
{
horizontal = 1;
place = "{432, 133}";
type = Stem;
}
);
layerId = "CFE16014-3183-49EF-AD56-7F9496F8AA7E";
paths = (
{
closed = 1;
nodes = (
"510 9 LINE",
"483 53 OFFCURVE",
"488 57 OFFCURVE",
"483 69 CURVE SMOOTH",
"466 110 OFFCURVE",
"439 148 OFFCURVE",
"412 187 CURVE SMOOTH",
"372 244 LINE SMOOTH",
"359 263 OFFCURVE",
"346 283 OFFCURVE",
"335 303 CURVE",
"362 312 OFFCURVE",
"391 316 OFFCURVE",
"416 328 CURVE",
"479 367 OFFCURVE",
"494 437 OFFCURVE",
"494 509 CURVE SMOOTH",
"494 530 OFFCURVE",
"493 548 OFFCURVE",
"491 563 CURVE",
"491 560 OFFCURVE",
"491 559 OFFCURVE",
"490 558 CURVE",
"478 593 OFFCURVE",
"465 631 OFFCURVE",
"432 654 CURVE",
"433 656 LINE",
"385 684 OFFCURVE",
"334 706 OFFCURVE",
"277 711 CURVE",
"281 710 OFFCURVE",
"284 709 OFFCURVE",
"288 709 CURVE",
"285 706 LINE",
"283 707 OFFCURVE",
"278 707 OFFCURVE",
"271 707 CURVE SMOOTH",
"257 707 LINE SMOOTH",
"233 707 OFFCURVE",
"209 705 OFFCURVE",
"185 705 CURVE SMOOTH",
"172 705 OFFCURVE",
"159 706 OFFCURVE",
"147 708 CURVE",
"149 710 LINE",
"122 706 OFFCURVE",
"100 701 OFFCURVE",
"75 701 CURVE SMOOTH",
"67 701 LINE SMOOTH",
"62 701 OFFCURVE",
"59 701 OFFCURVE",
"58 702 CURVE",
"53 711 LINE",
"41 697 LINE",
"40 642 OFFCURVE",
"40 600 OFFCURVE",
"40 568 CURVE SMOOTH",
"40 451 OFFCURVE",
"48 297 OFFCURVE",
"48 219 CURVE SMOOTH",
"48 190 OFFCURVE",
"46 157 OFFCURVE",
"46 120 CURVE SMOOTH",
"46 87 LINE SMOOTH",
"46 84 OFFCURVE",
"45 82 OFFCURVE",
"44 81 CURVE",
"44 82 OFFCURVE",
"44 83 OFFCURVE",
"43 83 CURVE",
"42 84 LINE",
"42 69 OFFCURVE",
"46 60 OFFCURVE",
"46 45 CURVE SMOOTH",
"46 38 OFFCURVE",
"44 27 OFFCURVE",
"41 10 CURVE",
"43 2 LINE",
"47 5 LINE",
"50 4 OFFCURVE",
"48 1 OFFCURVE",
"51 0 CURVE",
"53 4 LINE",
"53 3 OFFCURVE",
"53 3 OFFCURVE",
"54 2 CURVE SMOOTH",
"55 1 LINE",
"55 2 LINE SMOOTH",
"55 3 OFFCURVE",
"56 4 OFFCURVE",
"59 4 CURVE SMOOTH",
"63 4 OFFCURVE",
"67 2 OFFCURVE",
"72 2 CURVE SMOOTH",
"82 2 LINE",
"109 0 LINE",
"121 0 LINE SMOOTH",
"148 0 OFFCURVE",
"171 3 OFFCURVE",
"198 4 CURVE",
"200 2 OFFCURVE",
"201 1 OFFCURVE",
"202 1 CURVE SMOOTH",
"205 1 OFFCURVE",
"204 3 OFFCURVE",
"207 3 CURVE SMOOTH",
"208 3 OFFCURVE",
"210 2 OFFCURVE",
"211 1 CURVE",
"216 5 OFFCURVE",
"213 14 OFFCURVE",
"222 14 CURVE",
"212 23 LINE",
"214 24 LINE",
"207 81 OFFCURVE",
"207 146 OFFCURVE",
"207 210 CURVE SMOOTH",
"207 258 LINE",
"268 171 LINE",
"277 147 OFFCURVE",
"288 121 OFFCURVE",
"303 94 CURVE SMOOTH",
"324 55 LINE SMOOTH",
"331 42 OFFCURVE",
"337 31 OFFCURVE",
"344 20 CURVE",
"342 18 LINE",
"338 20 LINE",
"337 20 OFFCURVE",
"336 19 OFFCURVE",
"336 16 CURVE SMOOTH",
"336 1 OFFCURVE",
"358 -1 OFFCURVE",
"377 -1 CURVE SMOOTH",
"394 -1 LINE SMOOTH",
"433 -1 OFFCURVE",
"467 3 OFFCURVE",
"504 3 CURVE",
"503 1 LINE",
"505 1 LINE",
"514 4 LINE",
"511 5 OFFCURVE",
"513 7 OFFCURVE",
"510 7 CURVE"
);
},
{
closed = 1;
nodes = (
"481 14 OFFCURVE",
"477 18 OFFCURVE",
"470 18 CURVE SMOOTH",
"466 18 LINE",
"468 14 LINE",
"449 11 OFFCURVE",
"428 8 OFFCURVE",
"408 8 CURVE SMOOTH",
"333 8 OFFCURVE",
"339 77 OFFCURVE",
"308 116 CURVE",
"284 168 OFFCURVE",
"253 217 OFFCURVE",
"221 266 CURVE",
"223 268 LINE",
"215 277 OFFCURVE",
"212 292 OFFCURVE",
"201 295 CURVE",
"201 297 LINE SMOOTH",
"201 300 OFFCURVE",
"200 304 OFFCURVE",
"198 308 CURVE",
"193 292 OFFCURVE",
"192 242 OFFCURVE",
"192 210 CURVE SMOOTH",
"192 200 LINE SMOOTH",
"192 195 OFFCURVE",
"192 192 OFFCURVE",
"193 191 CURVE",
"196 196 LINE",
"197 189 OFFCURVE",
"197 183 OFFCURVE",
"197 176 CURVE SMOOTH",
"192 20 LINE",
"176 16 OFFCURVE",
"174 14 OFFCURVE",
"169 11 CURVE",
"171 11 LINE",
"164 9 OFFCURVE",
"157 8 OFFCURVE",
"151 8 CURVE SMOOTH",
"138 8 OFFCURVE",
"126 11 OFFCURVE",
"115 11 CURVE SMOOTH",
"111 11 OFFCURVE",
"108 10 OFFCURVE",
"105 10 CURVE",
"106 11 LINE",
"105 12 OFFCURVE",
"102 12 OFFCURVE",
"96 12 CURVE SMOOTH",
"91 12 LINE SMOOTH",
"82 12 OFFCURVE",
"76 14 OFFCURVE",
"73 19 CURVE",
"70 42 LINE",
"71 41 OFFCURVE",
"71 38 OFFCURVE",
"74 37 CURVE",
"75 37 LINE",
"81 76 LINE",
"81 77 OFFCURVE",
"80 79 OFFCURVE",
"78 80 CURVE",
"74 101 OFFCURVE",
"73 121 OFFCURVE",
"73 144 CURVE SMOOTH",
"73 175 OFFCURVE",
"75 207 OFFCURVE",
"75 238 CURVE SMOOTH",
"75 260 LINE SMOOTH",
"75 279 OFFCURVE",
"65 359 OFFCURVE",
"65 425 CURVE SMOOTH",
"65 493 OFFCURVE",
"69 559 OFFCURVE",
"72 624 CURVE",
"76 636 OFFCURVE",
"78 647 OFFCURVE",
"78 656 CURVE SMOOTH",
"78 662 LINE",
"87 677 OFFCURVE",
"98 673 OFFCURVE",
"109 678 CURVE",
"106 678 OFFCURVE",
"106 679 OFFCURVE",
"103 679 CURVE SMOOTH",
"95 679 OFFCURVE",
"86 676 OFFCURVE",
"79 676 CURVE",
"76 680 LINE",
"75 677 OFFCURVE",
"74 679 OFFCURVE",
"71 678 CURVE",
"70 685 OFFCURVE",
"69 688 OFFCURVE",
"69 687 CURVE",
"69 690 LINE",
"76 691 LINE",
"128 694 OFFCURVE",
"167 695 OFFCURVE",
"208 695 CURVE SMOOTH",
"247 695 OFFCURVE",
"289 694 OFFCURVE",
"326 686 CURVE",
"345 681 OFFCURVE",
"373 663 OFFCURVE",
"415 631 CURVE",
"404 638 OFFCURVE",
"390 641 OFFCURVE",
"377 647 CURVE",
"376 646 LINE",
"416 625 OFFCURVE",
"469 591 OFFCURVE",
"469 542 CURVE SMOOTH",
"469 535 LINE",
"473 535 LINE",
"473 531 OFFCURVE",
"474 527 OFFCURVE",
"474 523 CURVE SMOOTH",
"474 467 OFFCURVE",
"448 429 OFFCURVE",
"408 376 CURVE",
"404 376 LINE",
"381 344 OFFCURVE",
"344 319 OFFCURVE",
"311 319 CURVE SMOOTH",
"310 319 OFFCURVE",
"309 319 OFFCURVE",
"308 320 CURVE",
"316 289 OFFCURVE",
"344 264 OFFCURVE",
"368 235 CURVE",
"365 239 OFFCURVE",
"361 248 OFFCURVE",
"358 252 CURVE",
"389 216 OFFCURVE",
"405 173 OFFCURVE",
"432 136 CURVE",
"431 137 LINE",
"439 113 OFFCURVE",
"470 79 OFFCURVE",
"470 64 CURVE SMOOTH",
"470 61 LINE SMOOTH",
"470 59 OFFCURVE",
"488 29 OFFCURVE",
"488 24 CURVE",
"486 22 OFFCURVE",
"485 21 OFFCURVE",
"485 20 CURVE SMOOTH",
"485 17 OFFCURVE",
"491 21 OFFCURVE",
"494 16 CURVE",
"493 15 OFFCURVE",
"491 14 OFFCURVE",
"488 14 CURVE SMOOTH"
);
},
{
closed = 1;
nodes = (
"329 494 OFFCURVE",
"329 498 OFFCURVE",
"328 499 CURVE",
"330 507 LINE",
"330 535 OFFCURVE",
"276 574 OFFCURVE",
"272 574 CURVE",
"272 573 OFFCURVE",
"274 571 OFFCURVE",
"277 568 CURVE",
"266 565 OFFCURVE",
"254 565 OFFCURVE",
"242 565 CURVE SMOOTH",
"227 565 OFFCURVE",
"212 566 OFFCURVE",
"196 566 CURVE SMOOTH",
"189 566 OFFCURVE",
"183 565 OFFCURVE",
"176 565 CURVE",
"178 547 LINE",
"182 544 OFFCURVE",
"183 531 OFFCURVE",
"183 514 CURVE SMOOTH",
"183 473 LINE SMOOTH",
"183 468 OFFCURVE",
"183 464 OFFCURVE",
"182 463 CURVE",
"183 462 OFFCURVE",
"183 461 OFFCURVE",
"183 458 CURVE SMOOTH",
"183 453 OFFCURVE",
"180 448 OFFCURVE",
"177 443 CURVE",
"180 443 OFFCURVE",
"182 442 OFFCURVE",
"182 440 CURVE SMOOTH",
"182 437 LINE SMOOTH",
"182 434 OFFCURVE",
"184 432 OFFCURVE",
"188 432 CURVE SMOOTH",
"200 432 LINE SMOOTH",
"213 432 OFFCURVE",
"226 433 OFFCURVE",
"238 433 CURVE SMOOTH",
"249 433 OFFCURVE",
"260 431 OFFCURVE",
"271 428 CURVE",
"275 436 OFFCURVE",
"285 432 OFFCURVE",
"293 435 CURVE",
"312 448 OFFCURVE",
"329 465 OFFCURVE",
"329 488 CURVE SMOOTH"
);
},
{
closed = 1;
nodes = (
"273 444 OFFCURVE",
"281 444 OFFCURVE",
"284 447 CURVE",
"281 447 OFFCURVE",
"279 448 OFFCURVE",
"278 448 CURVE SMOOTH",
"277 448 OFFCURVE",
"277 448 OFFCURVE",
"276 449 CURVE",
"269 449 OFFCURVE",
"266 446 OFFCURVE",
"266 439 CURVE",
"265 440 OFFCURVE",
"259 440 OFFCURVE",
"250 440 CURVE SMOOTH",
"235 440 OFFCURVE",
"219 437 OFFCURVE",
"204 437 CURVE SMOOTH",
"191 437 OFFCURVE",
"189 448 OFFCURVE",
"189 461 CURVE SMOOTH",
"189 485 OFFCURVE",
"191 506 OFFCURVE",
"191 533 CURVE SMOOTH",
"191 540 OFFCURVE",
"190 548 OFFCURVE",
"190 556 CURVE",
"205 557 OFFCURVE",
"218 559 OFFCURVE",
"233 559 CURVE SMOOTH",
"279 559 OFFCURVE",
"323 544 OFFCURVE",
"323 492 CURVE SMOOTH",
"323 463 OFFCURVE",
"298 440 OFFCURVE",
"273 440 CURVE"
);
},
{
closed = 1;
nodes = (
"368 235 LINE",
"368 235 OFFCURVE",
"369 234 OFFCURVE",
"369 234 CURVE"
);
}
);
width = 518;
}
);
note = R;
rightKerningGroup = R;
unicode = 0052;
},
{
glyphname = S;
layers = (
{
hints = (
{
horizontal = 1;
place = "{0, 21}";
type = Stem;
},
{
horizontal = 1;
place = "{134, 78}";
type = Stem;
},
{
horizontal = 1;
place = "{468, 20}";
type = Stem;
},
{
horizontal = 1;
place = "{544, 25}";
type = Stem;
},
{
horizontal = 1;
place = "{675, 23}";
type = Stem;
},
{
place = "{24, 159}";
type = Stem;
},
{
place = "{439, 22}";
type = Stem;
},
{
place = "{303, 158}";
type = Stem;
},
{
horizontal = 1;
place = "{0, 145}";
type = Stem;
}
);
layerId = "CFE16014-3183-49EF-AD56-7F9496F8AA7E";
paths = (
{
closed = 1;
nodes = (
"364 685 OFFCURVE",
"315 698 OFFCURVE",
"266 698 CURVE SMOOTH",
"195 698 OFFCURVE",
"117 670 OFFCURVE",
"70 625 CURVE",
"37 582 OFFCURVE",
"24 532 OFFCURVE",
"24 476 CURVE SMOOTH",
"24 405 OFFCURVE",
"57 335 OFFCURVE",
"127 308 CURVE SMOOTH",
"183 287 OFFCURVE",
"262 296 OFFCURVE",
"297 234 CURVE",
"301 228 OFFCURVE",
"303 222 OFFCURVE",
"303 216 CURVE SMOOTH",
"303 173 OFFCURVE",
"275 145 OFFCURVE",
"235 145 CURVE SMOOTH",
"212 145 OFFCURVE",
"194 155 OFFCURVE",
"180 175 CURVE",
"167 185 OFFCURVE",
"175 210 OFFCURVE",
"156 216 CURVE",
"137 213 OFFCURVE",
"118 212 OFFCURVE",
"99 212 CURVE SMOOTH",
"71 212 OFFCURVE",
"42 213 OFFCURVE",
"13 216 CURVE",
"7 211 LINE",
"10 168 OFFCURVE",
"17 128 OFFCURVE",
"38 93 CURVE",
"60 69 OFFCURVE",
"74 28 OFFCURVE",
"108 17 CURVE",
"152 6 OFFCURVE",
"186 0 OFFCURVE",
"231 0 CURVE SMOOTH",
"242 0 LINE SMOOTH",
"248 0 OFFCURVE",
"252 0 OFFCURVE",
"254 1 CURVE",
"255 0 OFFCURVE",
"257 0 OFFCURVE",
"260 0 CURVE SMOOTH",
"268 0 OFFCURVE",
"279 3 OFFCURVE",
"287 3 CURVE SMOOTH",
"291 3 LINE",
"305 13 OFFCURVE",
"319 21 OFFCURVE",
"332 27 CURVE SMOOTH",
"353 36 LINE SMOOTH",
"360 39 OFFCURVE",
"368 44 OFFCURVE",
"376 49 CURVE",
"387 49 LINE",
"380 38 OFFCURVE",
"368 34 OFFCURVE",
"361 25 CURVE",
"429 57 OFFCURVE",
"461 127 OFFCURVE",
"461 207 CURVE SMOOTH",
"461 336 OFFCURVE",
"395 366 OFFCURVE",
"315 414 CURVE SMOOTH",
"278 435 OFFCURVE",
"183 416 OFFCURVE",
"183 488 CURVE SMOOTH",
"183 511 OFFCURVE",
"192 532 OFFCURVE",
"220 536 CURVE",
"216 538 LINE",
"221 543 OFFCURVE",
"237 544 OFFCURVE",
"248 544 CURVE SMOOTH",
"279 544 OFFCURVE",
"313 523 OFFCURVE",
"313 488 CURVE SMOOTH",
"313 483 OFFCURVE",
"312 480 OFFCURVE",
"309 477 CURVE",
"320 469 OFFCURVE",
"339 468 OFFCURVE",
"359 468 CURVE SMOOTH",
"398 468 OFFCURVE",
"434 467 OFFCURVE",
"469 476 CURVE",
"470 487 OFFCURVE",
"471 494 OFFCURVE",
"471 505 CURVE SMOOTH",
"471 562 OFFCURVE",
"450 615 OFFCURVE",
"399 652 CURVE"
);
},
{
closed = 1;
nodes = (
"432 485 LINE",
"431 485 OFFCURVE",
"430 485 OFFCURVE",
"429 484 CURVE",
"428 484 LINE SMOOTH",
"421 484 OFFCURVE",
"415 488 OFFCURVE",
"408 488 CURVE SMOOTH",
"395 488 OFFCURVE",
"378 483 OFFCURVE",
"363 483 CURVE SMOOTH",
"351 483 OFFCURVE",
"341 484 OFFCURVE",
"332 486 CURVE",
"321 526 OFFCURVE",
"289 569 OFFCURVE",
"238 569 CURVE SMOOTH",
"185 569 OFFCURVE",
"171 525 OFFCURVE",
"171 489 CURVE SMOOTH",
"171 466 OFFCURVE",
"175 437 OFFCURVE",
"200 425 CURVE",
"297 384 LINE SMOOTH",
"373 352 OFFCURVE",
"439 327 OFFCURVE",
"439 220 CURVE SMOOTH",
"439 187 OFFCURVE",
"431 155 OFFCURVE",
"419 128 CURVE",
"376 71 OFFCURVE",
"318 21 OFFCURVE",
"243 21 CURVE SMOOTH",
"227 21 OFFCURVE",
"214 28 OFFCURVE",
"202 28 CURVE SMOOTH",
"197 28 LINE SMOOTH",
"192 28 OFFCURVE",
"189 29 OFFCURVE",
"187 31 CURVE",
"184 28 OFFCURVE",
"181 27 OFFCURVE",
"176 27 CURVE SMOOTH",
"131 27 OFFCURVE",
"66 72 OFFCURVE",
"50 119 CURVE",
"44 119 OFFCURVE",
"35 168 OFFCURVE",
"32 189 CURVE",
"33 188 OFFCURVE",
"36 188 OFFCURVE",
"40 188 CURVE SMOOTH",
"49 188 LINE SMOOTH",
"74 188 OFFCURVE",
"98 194 OFFCURVE",
"125 194 CURVE SMOOTH",
"138 194 OFFCURVE",
"148 193 OFFCURVE",
"156 190 CURVE",
"172 165 OFFCURVE",
"185 134 OFFCURVE",
"233 134 CURVE SMOOTH",
"281 134 OFFCURVE",
"321 175 OFFCURVE",
"321 215 CURVE SMOOTH",
"321 224 OFFCURVE",
"319 232 OFFCURVE",
"315 240 CURVE",
"272 309 OFFCURVE",
"188 311 OFFCURVE",
"117 332 CURVE",
"110 335 OFFCURVE",
"103 342 OFFCURVE",
"103 349 CURVE",
"66 380 OFFCURVE",
"43 419 OFFCURVE",
"43 462 CURVE SMOOTH",
"43 489 OFFCURVE",
"43 490 OFFCURVE",
"51 513 CURVE SMOOTH",
"60 538 OFFCURVE",
"68 580 OFFCURVE",
"99 608 CURVE",
"97 614 LINE",
"90 610 OFFCURVE",
"79 600 OFFCURVE",
"79 596 CURVE",
"79 604 OFFCURVE",
"106 641 OFFCURVE",
"127 646 CURVE",
"119 635 OFFCURVE",
"104 632 OFFCURVE",
"104 627 CURVE SMOOTH",
"104 626 OFFCURVE",
"105 625 OFFCURVE",
"106 625 CURVE SMOOTH",
"111 625 OFFCURVE",
"120 642 OFFCURVE",
"135 642 CURVE",
"155 662 OFFCURVE",
"206 675 OFFCURVE",
"247 675 CURVE SMOOTH",
"258 675 LINE SMOOTH",
"260 675 OFFCURVE",
"264 674 OFFCURVE",
"269 673 CURVE",
"338 652 OFFCURVE",
"427 617 OFFCURVE",
"440 536 CURVE SMOOTH",
"443 517 OFFCURVE",
"441 505 OFFCURVE",
"442 490 CURVE"
);
}
);
width = 485;
}
);
leftKerningGroup = S;
note = S;
rightKerningGroup = S;
unicode = 0053;
},
